<?xml version="1.0" encoding="utf-8"?>
<!-- Generator: Adobe Illustrator 16.0.0, SVG Export Plug-In . SVG Version: 6.00 Build 0)  -->
<!DOCTYPE svg PUBLIC "-//W3C//DTD SVG 1.1//EN" "http://www.w3.org/Graphics/SVG/1.1/DTD/svg11.dtd">
<svg version="1.1" id="Calque_1" xmlns="http://www.w3.org/2000/svg" xmlns:xlink="http://www.w3.org/1999/xlink" x="0px" y="0px"
	 width="1278.881px" height="80.425px" viewBox="0.56 359.788 1278.881 80.425"
	 enable-background="new 0.56 359.788 1278.881 80.425" xml:space="preserve">
<g>
	<path opacity="0.8" fill="#FFFFFF" enable-background="new    " d="M624.685,437.875c9.086-2.693,18.523-4.209,28.097-5.297
		c1.441-0.168,2.937-0.297,4.246-0.732c0.646-0.211,1.355-1.141,1.312-1.732c-0.056-0.617-0.896-1.416-1.603-1.758
		c-0.68-0.33-1.629-0.275-2.438-0.238c-2.23,0.119-4.441,0.289-6.65,0.48c-1.365,0.119-2.596-0.078-3.41-1.256
		c-0.819-1.207,0.123-1.949,0.806-2.719c5.17-5.779,10.34-11.564,15.51-17.354c0.383-0.436,0.979-0.859,1.033-1.363
		c0.063-0.576-0.172-1.41-0.627-1.797c-0.369-0.299-1.304-0.217-1.892-0.072c-0.414,0.117-0.668,0.621-0.987,0.971
		c-2.99,3.344-5.962,6.723-8.99,10.043c-1.025,1.135-2.601,1.238-3.699,0.291c-1.168-1.012-1.33-2.143-0.377-3.25
		c0.229-0.271,0.465-0.533,0.703-0.787c3.797-4.26,7.611-8.533,11.416-12.797c0.729-0.814,1.09-1.722-0.117-2.568
		c-1.115-0.774-1.916-0.214-2.584,0.543c-0.469,0.521-0.934,1.048-1.404,1.562c-4.737,5.301-9.436,10.643-14.276,15.87
		c-0.532,0.592-1.865,1.021-2.679,0.816c-0.725-0.176-1.562-1.271-1.738-2.033c-0.146-0.646,0.448-1.494,0.941-2.086
		c3.032-3.467,6.116-6.889,9.191-10.33c1.432-1.61,2.957-3.151,4.248-4.859c0.344-0.469,0.256-1.613-0.162-2.089
		c-0.725-0.827-1.736-0.644-2.459,0.122c-0.318,0.348-0.627,0.7-0.941,1.038c-4.854,5.443-9.701,10.891-14.565,16.313
		c-1.403,1.574-2.924,1.84-4.205,0.811c-1.247-1.01-1.247-2.32,0.09-3.822c2.86-3.229,5.743-6.443,8.616-9.661
		c0.902-1.007,1.908-1.932,2.606-3.044c0.301-0.472,0.163-1.702-0.188-1.899c-0.605-0.327-1.587-0.224-2.346-0.072
		c-0.403,0.068-0.651,0.626-0.968,0.984c-2.718,3.038-5.376,6.134-8.205,9.09c-0.564,0.584-1.85,0.982-2.736,0.84
		c-0.701-0.104-1.656-1.105-1.841-1.803c-0.178-0.693,0.269-1.668,0.802-2.265c5.254-5.999,10.598-11.943,15.868-17.944
		c0.436-0.49,0.507-1.269,0.734-1.917c-0.807-0.253-1.651-0.727-2.437-0.712c-2.294,0.054-4.547,0.361-6.851,0.445
		c-0.979,0.049-2.224,0.046-2.952-0.434c-0.896-0.594-1.761-1.709-1.877-2.611c-0.084-0.718,0.835-1.725,1.629-2.126
		c0.977-0.506,2.278-0.563,3.458-0.724c9.444-1.325,18.886-2.627,27.962-5.176c3.149-0.871,6.155-1.832,8.256-4.106
		c0.012,0.005,2.397-2.681,3.742-4.872H0.56v80.424h620.472C622.497,438.611,623.549,438.213,624.685,437.875z"/>
	<path opacity="0.8" fill="#214865" enable-background="new    " d="M1279.438,359.788H669.749c-1.345,2.191-3.73,4.877-3.742,4.872
		c-2.101,2.274-5.105,3.235-8.256,4.106c-9.076,2.55-18.518,3.851-27.962,5.177c-1.18,0.158-2.481,0.217-3.458,0.723
		c-0.795,0.402-1.715,1.408-1.63,2.126c0.118,0.902,0.983,2.019,1.878,2.611c0.729,0.479,1.972,0.481,2.952,0.434
		c2.304-0.084,4.557-0.393,6.851-0.445c0.784-0.015,1.63,0.459,2.437,0.712c-0.229,0.648-0.3,1.427-0.734,1.917
		c-5.271,6.001-10.614,11.945-15.868,17.944c-0.533,0.598-0.979,1.571-0.802,2.266c0.185,0.697,1.14,1.699,1.841,1.801
		c0.887,0.145,2.172-0.256,2.735-0.838c2.829-2.958,5.487-6.053,8.206-9.091c0.316-0.358,0.564-0.916,0.968-0.984
		c0.759-0.15,1.74-0.255,2.346,0.073c0.351,0.196,0.487,1.428,0.188,1.898c-0.698,1.112-1.705,2.037-2.606,3.044
		c-2.874,3.218-5.756,6.433-8.616,9.662c-1.337,1.502-1.337,2.812-0.09,3.822c1.281,1.029,2.801,0.764,4.205-0.811
		c4.864-5.424,9.711-10.87,14.565-16.314c0.314-0.338,0.623-0.69,0.941-1.038c0.723-0.766,1.734-0.949,2.459-0.122
		c0.418,0.476,0.506,1.62,0.162,2.089c-1.291,1.708-2.816,3.249-4.248,4.859c-3.075,3.442-6.159,6.862-9.191,10.331
		c-0.494,0.59-1.087,1.438-0.941,2.086c0.177,0.762,1.015,1.855,1.738,2.033c0.812,0.203,2.146-0.227,2.679-0.816
		c4.841-5.229,9.539-10.568,14.276-15.871c0.472-0.516,0.937-1.042,1.404-1.562c0.668-0.757,1.469-1.317,2.584-0.542
		c1.207,0.847,0.846,1.753,0.117,2.567c-3.806,4.265-7.619,8.537-11.416,12.798c-0.238,0.252-0.476,0.514-0.703,0.787
		c-0.953,1.107-0.791,2.236,0.377,3.25c1.1,0.945,2.674,0.842,3.699-0.293c3.028-3.318,6-6.697,8.989-10.043
		c0.32-0.348,0.574-0.854,0.988-0.969c0.588-0.146,1.521-0.229,1.892,0.07c0.454,0.387,0.69,1.223,0.627,1.797
		c-0.056,0.506-0.65,0.93-1.033,1.363c-5.17,5.789-10.34,11.574-15.51,17.355c-0.683,0.768-1.625,1.512-0.806,2.717
		c0.814,1.178,2.045,1.375,3.41,1.256c2.209-0.189,4.42-0.361,6.65-0.479c0.811-0.037,1.76-0.092,2.438,0.238
		c0.705,0.34,1.547,1.141,1.603,1.756c0.043,0.594-0.666,1.521-1.312,1.734c-1.311,0.436-2.805,0.564-4.246,0.732
		c-9.573,1.088-19.011,2.604-28.097,5.297c-1.136,0.338-2.188,0.736-3.653,2.336h658.407v-80.423H1279.438z"/>
</g>
</svg>
