<?xml version="1.0" encoding="utf-8"?>
<svg viewBox="504.962 233.322 185.029 130.688" xmlns="http://www.w3.org/2000/svg">
  <g>
    <path fill="#B4DAC7" d="M547.743,298.393h2.288v3.021c0.901-1.146,1.941-2.01,3.115-2.583c1.175-0.574,2.486-0.862,3.932-0.862 c2.524,0,4.683,0.842,6.478,2.523c1.796,1.684,2.692,3.707,2.692,6.076c0,2.418-0.889,4.47-2.668,6.156 c-1.778,1.688-3.923,2.532-6.438,2.532c-1.412,0-2.712-0.274-3.897-0.816c-1.186-0.545-2.256-1.355-3.213-2.433v13.473h-2.288 V298.393z M556.887,300.009c-1.975,0-3.641,0.641-4.991,1.916c-1.354,1.279-2.03,2.87-2.03,4.771c0,1.248,0.302,2.371,0.906,3.365 c0.602,0.997,1.465,1.785,2.592,2.371c1.121,0.583,2.309,0.874,3.56,0.874c1.227,0,2.383-0.293,3.462-0.882 c1.082-0.59,1.94-1.41,2.583-2.469c0.64-1.057,0.96-2.164,0.96-3.318c0-1.17-0.315-2.276-0.951-3.321 c-0.637-1.046-1.491-1.86-2.568-2.438C559.335,300.299,558.16,300.009,556.887,300.009z"/>
    <path fill="#B4DAC7" d="M571.667,298.393h2.337v2.402c0.695-0.947,1.432-1.654,2.203-2.123c0.773-0.468,1.58-0.703,2.418-0.703 c0.632,0,1.307,0.187,2.025,0.56l-1.192,1.784c-0.479-0.19-0.882-0.287-1.208-0.287c-0.762,0-1.495,0.289-2.203,0.868 c-0.709,0.579-1.248,1.478-1.619,2.697c-0.281,0.937-0.424,2.831-0.424,5.682v5.56h-2.337V298.393z"/>
    <path fill="#B4DAC7" d="M592.883,297.969c2.736,0,5.004,0.918,6.807,2.75c1.636,1.674,2.454,3.652,2.454,5.939 c0,2.296-0.866,4.305-2.594,6.022c-1.728,1.717-3.95,2.576-6.667,2.576c-2.728,0-4.957-0.859-6.685-2.576 c-1.729-1.718-2.594-3.727-2.594-6.022c0-2.277,0.817-4.252,2.456-5.924C587.858,298.891,590.134,297.969,592.883,297.969z M592.874,300.041c-1.903,0-3.536,0.648-4.899,1.948c-1.367,1.299-2.05,2.871-2.05,4.714c0,1.188,0.312,2.297,0.935,3.323 c0.623,1.029,1.464,1.821,2.523,2.381c1.061,0.559,2.225,0.839,3.491,0.839c1.269,0,2.433-0.28,3.49-0.839 c1.06-0.56,1.902-1.352,2.526-2.381c0.621-1.026,0.934-2.135,0.934-3.323c0-1.843-0.688-3.415-2.059-4.714 C596.395,300.689,594.765,300.041,592.874,300.041z"/>
    <path fill="#B4DAC7" d="M608.103,298.393h2.32v18.535c0,1.381-0.27,2.387-0.811,3.016c-0.538,0.63-1.276,0.943-2.211,0.943 c-0.774,0-1.646-0.172-2.615-0.513v-1.904c0.612,0.293,1.159,0.438,1.65,0.438c0.621,0,1.085-0.238,1.388-0.71 c0.188-0.304,0.278-0.931,0.278-1.891V298.393z M609.231,292.246c0.521,0,0.965,0.172,1.329,0.514 c0.365,0.344,0.547,0.755,0.547,1.239c0,0.474-0.182,0.882-0.547,1.226c-0.364,0.341-0.808,0.513-1.329,0.513 c-0.524,0-0.967-0.172-1.332-0.513c-0.365-0.344-0.547-0.752-0.547-1.226c0-0.484,0.182-0.896,0.547-1.239 C608.265,292.418,608.707,292.246,609.231,292.246z"/>
    <path fill="#B4DAC7" d="M632.143,309.378l1.927,0.938c-0.633,1.147-1.362,2.073-2.191,2.78c-0.829,0.703-1.76,1.24-2.795,1.607 c-1.035,0.369-2.206,0.554-3.516,0.554c-2.897,0-5.165-0.88-6.8-2.638c-1.635-1.759-2.453-3.745-2.453-5.961 c0-2.085,0.693-3.943,2.076-5.576c1.754-2.074,4.103-3.113,7.047-3.113c3.028,0,5.45,1.064,7.257,3.189 c1.285,1.502,1.94,3.373,1.962,5.619h-15.99c0.044,1.912,0.704,3.477,1.98,4.698c1.274,1.219,2.851,1.83,4.726,1.83 c0.903,0,1.786-0.145,2.64-0.435c0.856-0.293,1.584-0.679,2.185-1.16C630.795,311.229,631.443,310.451,632.143,309.378z M632.143,304.95c-0.306-1.128-0.75-2.03-1.334-2.704c-0.583-0.674-1.355-1.219-2.313-1.633c-0.958-0.411-1.968-0.619-3.026-0.619 c-1.744,0-3.242,0.52-4.496,1.557c-0.915,0.755-1.609,1.89-2.078,3.399H632.143z"/>
    <path fill="#B4DAC7" d="M642.918,292.289h2.289v6.104h3.624v1.828h-3.624v14.611h-2.289v-14.611h-3.119v-1.828h3.119V292.289z"/>
    <path fill="#B4DAC7" d="M683.239,298.393v16.439h-2.253v-2.824c-0.958,1.077-2.035,1.888-3.228,2.432 c-1.19,0.543-2.497,0.816-3.91,0.816c-2.517,0-4.663-0.844-6.442-2.531c-1.781-1.687-2.672-3.739-2.672-6.156 c0-2.369,0.898-4.393,2.695-6.077c1.796-1.681,3.957-2.522,6.482-2.522c1.459,0,2.778,0.287,3.96,0.862 c1.183,0.573,2.22,1.437,3.114,2.583v-3.021H683.239z M674.101,300.009c-1.272,0-2.447,0.29-3.524,0.869 c-1.077,0.577-1.932,1.392-2.567,2.438c-0.639,1.045-0.955,2.151-0.955,3.32c0,1.155,0.32,2.263,0.961,3.319 c0.644,1.059,1.503,1.879,2.587,2.469c1.08,0.589,2.242,0.881,3.484,0.881c1.25,0,2.436-0.29,3.555-0.873 c1.12-0.586,1.982-1.375,2.585-2.371c0.604-0.994,0.905-2.117,0.905-3.365c0-1.9-0.677-3.491-2.03-4.771 C677.747,300.648,676.08,300.009,674.101,300.009z M674.545,292.199l2.424,3.142h-2.257l-3.68-3.142H674.545z"/>
  </g>
  <g>
    <path fill="#FFFFFF" d="M509.982,238.896h4.429c2.422,0,4.149,0.217,5.178,0.649c1.029,0.434,1.855,1.151,2.482,2.156 c0.625,1.005,0.938,2.193,0.938,3.566c0,1.442-0.345,2.648-1.037,3.618c-0.69,0.97-1.733,1.704-3.125,2.201l5.199,9.758h-4.566 l-4.938-9.295h-0.382v9.295h-4.179V238.896z M514.161,247.476h1.309c1.329,0,2.245-0.175,2.745-0.522 c0.501-0.351,0.751-0.93,0.751-1.737c0-0.479-0.124-0.896-0.371-1.25c-0.249-0.354-0.581-0.609-0.996-0.765 c-0.417-0.154-1.181-0.23-2.291-0.23h-1.146V247.476z"/>
    <path fill="#FFFFFF" d="M527.441,238.896h11.982v4.088h-7.833v3.971h7.833v4.014h-7.833v5.774h7.833v4.103h-11.982V238.896z"/>
    <path fill="#FFFFFF" d="M554.839,241.88l-3.095,2.73c-1.087-1.513-2.193-2.268-3.319-2.268c-0.548,0-0.996,0.147-1.346,0.44 c-0.348,0.293-0.522,0.624-0.522,0.992s0.125,0.717,0.374,1.044c0.339,0.438,1.36,1.378,3.064,2.821 c1.595,1.332,2.561,2.173,2.899,2.521c0.847,0.856,1.447,1.675,1.802,2.454c0.354,0.781,0.529,1.635,0.529,2.561 c0,1.8-0.622,3.287-1.866,4.461c-1.245,1.174-2.869,1.761-4.87,1.761c-1.562,0-2.925-0.384-4.086-1.149 c-1.159-0.766-2.152-1.97-2.98-3.61l3.513-2.119c1.056,1.939,2.271,2.91,3.646,2.91c0.717,0,1.319-0.209,1.809-0.628 c0.488-0.418,0.732-0.899,0.732-1.446c0-0.497-0.185-0.995-0.554-1.492c-0.368-0.497-1.18-1.259-2.436-2.283 c-2.392-1.949-3.938-3.454-4.634-4.515c-0.698-1.059-1.047-2.115-1.047-3.17c0-1.521,0.58-2.828,1.741-3.917 c1.159-1.089,2.591-1.634,4.295-1.634c1.095,0,2.138,0.254,3.129,0.761C552.609,239.612,553.683,240.537,554.839,241.88z"/>
    <path fill="#FFFFFF" d="M557.047,238.896h12.131v4.118h-3.999v17.831h-4.237v-17.831h-3.895V238.896z"/>
    <path fill="#FFFFFF" d="M578.739,238.896h4.237l8.441,21.949h-4.342l-1.717-4.521h-8.957l-1.785,4.521h-4.342L578.739,238.896z M580.884,244.716l-2.944,7.534h5.872L580.884,244.716z"/>
    <path fill="#FFFFFF" d="M594.5,238.896h4.193v14.194c0,1.223,0.106,2.087,0.321,2.594c0.213,0.507,0.565,0.912,1.059,1.216 c0.493,0.303,1.087,0.454,1.783,0.454c0.735,0,1.371-0.168,1.902-0.507c0.532-0.338,0.901-0.768,1.104-1.289 c0.204-0.522,0.306-1.519,0.306-2.99v-13.672h4.194v13.086c0,2.209-0.126,3.741-0.374,4.597c-0.248,0.854-0.724,1.681-1.425,2.477 s-1.51,1.386-2.426,1.769c-0.914,0.383-1.979,0.574-3.192,0.574c-1.593,0-2.977-0.365-4.156-1.097 c-1.179-0.73-2.021-1.646-2.529-2.746c-0.507-1.1-0.761-2.956-0.761-5.573V238.896z"/>
    <path fill="#FFFFFF" d="M614.496,238.896h4.426c2.425,0,4.15,0.217,5.18,0.649c1.027,0.433,1.855,1.151,2.48,2.156 c0.627,1.005,0.939,2.193,0.939,3.566c0,1.442-0.345,2.648-1.036,3.618c-0.692,0.97-1.733,1.704-3.126,2.201l5.2,9.758h-4.567 l-4.936-9.295h-0.383v9.295h-4.178V238.896z M618.674,247.476h1.309c1.329,0,2.244-0.175,2.745-0.523 c0.5-0.35,0.751-0.929,0.751-1.737c0-0.479-0.125-0.895-0.372-1.25c-0.248-0.354-0.58-0.608-0.997-0.764 c-0.416-0.154-1.18-0.231-2.291-0.231h-1.145V247.476z"/>
    <path fill="#FFFFFF" d="M638.635,238.896h4.237l8.442,21.949h-4.342l-1.717-4.521h-8.957l-1.786,4.521h-4.342L638.635,238.896z M640.78,244.716l-2.944,7.534h5.871L640.78,244.716z"/>
    <path fill="#FFFFFF" d="M654.561,238.896h4.008l9.392,14.443v-14.443h4.178v21.949h-4.019l-9.381-14.399v14.399h-4.178V238.896z"/>
    <path fill="#FFFFFF" d="M674.988,238.896h12.132v4.118h-4.001v17.831h-4.236v-17.831h-3.895V238.896z"/>
  </g>
  <g>
    <path fill="#B4DAC7" d="M509.997,292.143h11.056c6.05,0,10.358,0.543,12.931,1.625c2.565,1.079,4.634,2.875,6.193,5.381 c1.564,2.508,2.349,5.479,2.349,8.906c0,3.604-0.861,6.612-2.589,9.036c-1.726,2.423-4.329,4.253-7.81,5.495l12.988,24.367H533.71 l-12.327-23.212h-0.954v23.212h-10.432V292.143z M520.429,313.568h3.271c3.317,0,5.604-0.437,6.849-1.307 c1.253-0.873,1.877-2.316,1.877-4.337c0-1.197-0.306-2.236-0.929-3.124c-0.618-0.882-1.447-1.518-2.486-1.903 c-1.04-0.387-2.947-0.582-5.719-0.581h-2.863V313.568z"/>
    <path fill="#B4DAC7" d="M571.754,335.633h-21.352c0.31,1.883,1.133,3.381,2.473,4.491c1.341,1.111,3.046,1.667,5.125,1.667 c2.479,0,4.618-0.867,6.403-2.604l5.599,2.629c-1.395,1.981-3.069,3.445-5.018,4.395c-1.947,0.949-4.259,1.422-6.934,1.422 c-4.157,0-7.542-1.308-10.154-3.929c-2.613-2.62-3.92-5.904-3.92-9.849c0-4.04,1.303-7.395,3.906-10.065 c2.604-2.669,5.871-4.006,9.799-4.006c4.172,0,7.562,1.337,10.179,4.006c2.613,2.671,3.919,6.195,3.919,10.576L571.754,335.633z M565.108,330.398c-0.442-1.476-1.307-2.677-2.597-3.604c-1.294-0.925-2.795-1.387-4.5-1.387c-1.854,0-3.479,0.52-4.878,1.559 c-0.879,0.649-1.688,1.792-2.438,3.432H565.108z"/>
    <path fill="#B4DAC7" d="M576.636,320.467h6.646v2.715c1.506-1.271,2.872-2.154,4.094-2.65c1.226-0.496,2.478-0.747,3.758-0.747 c2.625,0,4.853,0.918,6.684,2.753c1.54,1.557,2.309,3.861,2.309,6.914v17.502h-6.57v-11.599c0-3.161-0.145-5.259-0.425-6.298 c-0.283-1.037-0.779-1.828-1.483-2.371c-0.705-0.543-1.574-0.815-2.608-0.815c-1.345,0-2.498,0.45-3.461,1.351 c-0.964,0.899-1.634,2.146-2.007,3.733c-0.19,0.827-0.289,2.617-0.289,5.372v10.627h-6.646V320.467z"/>
    <path fill="#B4DAC7" d="M606.055,320.326h6.646v2.855c1.51-1.271,2.871-2.154,4.097-2.65c1.223-0.496,2.474-0.747,3.754-0.747 c2.626,0,4.856,0.918,6.686,2.753c1.539,1.557,2.311,3.861,2.311,6.914v17.502h-6.574v-11.599c0-3.161-0.139-5.259-0.424-6.298 c-0.283-1.037-0.775-1.828-1.48-2.371c-0.703-0.543-1.573-0.815-2.611-0.815c-1.346,0-2.5,0.45-3.462,1.351 c-0.963,0.899-1.629,2.146-2.003,3.733c-0.194,0.827-0.292,2.617-0.292,5.372v10.627h-6.646V320.326z"/>
    <path fill="#B4DAC7" d="M662.007,335.632l-21.348,0.001c0.306,1.883,1.134,3.381,2.47,4.491c1.339,1.111,3.049,1.667,5.127,1.667 c2.481,0,4.615-0.867,6.401-2.604l5.598,2.629c-1.396,1.98-3.067,3.444-5.013,4.395c-1.947,0.949-4.264,1.422-6.939,1.422 c-4.156,0-7.536-1.308-10.149-3.929c-2.612-2.62-3.919-5.904-3.919-9.849c0-4.04,1.302-7.395,3.906-10.065 c2.604-2.669,5.871-4.006,9.797-4.006c4.17,0,7.563,1.336,10.176,4.006c2.613,2.67,3.919,6.195,3.919,10.575L662.007,335.632z M655.36,330.398c-0.437-1.476-1.302-2.677-2.596-3.604c-1.294-0.925-2.79-1.387-4.5-1.387c-1.854,0-3.479,0.52-4.874,1.559 c-0.878,0.649-1.691,1.792-2.438,3.432H655.36z"/>
    <path fill="#B4DAC7" d="M683.104,324.168l-4.113,4.113c-1.673-1.656-3.191-2.482-4.552-2.482c-0.746,0-1.331,0.156-1.756,0.475 c-0.42,0.316-0.632,0.708-0.632,1.18c0,0.357,0.136,0.687,0.402,0.986c0.268,0.3,0.93,0.71,1.985,1.229l2.436,1.218 c2.56,1.266,4.321,2.555,5.279,3.869c0.958,1.315,1.438,2.856,1.438,4.625c0,2.355-0.864,4.318-2.596,5.893 c-1.726,1.574-4.041,2.359-6.946,2.359c-3.865,0-6.948-1.508-9.251-4.527l4.089-4.453c0.78,0.907,1.692,1.641,2.74,2.203 c1.042,0.56,1.973,0.84,2.786,0.84c0.874,0,1.582-0.212,2.116-0.634c0.534-0.423,0.806-0.908,0.806-1.462 c0-1.021-0.966-2.018-2.896-2.994l-2.239-1.119c-4.288-2.157-6.431-4.858-6.431-8.105c0-2.094,0.811-3.884,2.422-5.367 c1.616-1.485,3.683-2.229,6.197-2.229c1.722,0,3.339,0.378,4.856,1.132C680.763,321.671,682.048,322.756,683.104,324.168z"/>
  </g>
  <g>
    <path fill="#FFFFFF" d="M524.356,267.099l-3.41,3.021c-1.197-1.673-2.416-2.51-3.657-2.51c-0.604,0-1.099,0.162-1.482,0.486 c-0.385,0.325-0.577,0.69-0.577,1.098c0,0.408,0.138,0.793,0.412,1.155c0.374,0.485,1.499,1.525,3.377,3.122 c1.757,1.475,2.823,2.406,3.196,2.79c0.933,0.947,1.595,1.853,1.984,2.716c0.39,0.865,0.584,1.809,0.584,2.832 c0,1.993-0.686,3.638-2.058,4.937c-1.371,1.298-3.16,1.947-5.365,1.946c-1.724,0-3.225-0.423-4.503-1.271 c-1.279-0.848-2.374-2.18-3.284-3.996l3.87-2.343c1.164,2.145,2.503,3.219,4.018,3.219c0.792,0.001,1.456-0.23,1.994-0.692 c0.537-0.463,0.807-0.996,0.807-1.603c0-0.55-0.203-1.1-0.609-1.65c-0.406-0.55-1.302-1.393-2.685-2.527 c-2.636-2.157-4.339-3.822-5.107-4.994c-0.769-1.173-1.153-2.342-1.153-3.509c0-1.684,0.64-3.129,1.92-4.333 c1.277-1.205,2.854-1.808,4.732-1.808c1.208,0.001,2.356,0.28,3.449,0.842C521.9,264.588,523.084,265.611,524.356,267.099z"/>
    <path fill="#FFFFFF" d="M541.943,263.188c3.422,0,6.365,1.244,8.828,3.731c2.464,2.488,3.693,5.521,3.693,9.098 c0,3.545-1.214,6.543-3.644,8.997c-2.43,2.455-5.379,3.682-8.845,3.682c-3.632-0.001-6.648-1.261-9.051-3.783 c-2.403-2.52-3.604-5.514-3.604-8.981c0-2.321,0.559-4.457,1.678-6.405s2.658-3.492,4.617-4.631 C537.574,263.756,539.684,263.188,541.943,263.188z M541.894,267.711c-2.238-0.001-4.121,0.782-5.646,2.345 c-1.525,1.562-2.288,3.549-2.288,5.958c0,2.687,0.961,4.812,2.881,6.374c1.493,1.223,3.205,1.833,5.137,1.834 c2.184,0,4.043-0.793,5.58-2.376c1.537-1.586,2.305-3.54,2.305-5.861c0-2.312-0.773-4.268-2.321-5.869 C545.993,268.512,544.11,267.711,541.894,267.711z"/>
    <path fill="#FFFFFF" d="M560.154,263.801l4.604,0.001v19.878h6.71v4.41l-11.314-0.002V263.801z"/>
    <path fill="#FFFFFF" d="M575.989,263.804l4.571,0.001v24.286l-4.571-0.001V263.804z"/>
    <path fill="#FFFFFF" d="M587.104,263.805l5.456,0.001c3.516,0,6.128,0.438,7.836,1.313c1.71,0.875,3.117,2.299,4.224,4.269 c1.105,1.97,1.659,4.271,1.659,6.9c0,1.872-0.31,3.592-0.928,5.16c-0.619,1.568-1.473,2.87-2.563,3.905 c-1.09,1.033-2.271,1.749-3.542,2.146c-1.27,0.396-3.471,0.594-6.604,0.594l-5.538-0.002V263.805z M591.677,268.264v15.321h2.139 c2.104,0,3.631-0.241,4.578-0.727c0.949-0.484,1.725-1.3,2.327-2.445c0.604-1.147,0.905-2.557,0.905-4.232 c0-2.578-0.718-4.577-2.155-6c-1.294-1.277-3.37-1.917-6.231-1.917H591.677z"/>
    <path fill="#FFFFFF" d="M619.397,263.809l4.67,0.001l9.305,24.288h-4.785l-1.894-5.003l-9.871-0.002l-1.967,5.003l-4.786-0.001 L619.397,263.809z M621.761,270.248l-3.245,8.338h6.473L621.761,270.248z"/>
    <path fill="#FFFFFF" d="M637.95,263.812h4.571V288.1l-4.571-0.001V263.812z"/>
    <path fill="#FFFFFF" d="M649.361,263.813l4.878,0.001c2.673,0,4.575,0.239,5.709,0.719c1.132,0.479,2.045,1.273,2.734,2.385 c0.69,1.112,1.035,2.428,1.035,3.947c0,1.596-0.382,2.931-1.144,4.004s-1.91,1.885-3.443,2.434l5.73,10.799h-5.035l-5.438-10.286 h-0.423v10.286l-4.604-0.002V263.813z M653.965,273.307h1.443c1.465,0,2.473-0.192,3.025-0.579 c0.551-0.386,0.828-1.026,0.828-1.921c0-0.529-0.137-0.99-0.41-1.383s-0.64-0.675-1.1-0.845c-0.458-0.173-1.3-0.258-2.523-0.258 h-1.264V273.307z"/>
    <path fill="#FFFFFF" d="M669.949,263.816l13.205,0.002v4.523l-8.634-0.001v4.391l8.634,0.002v4.441l-8.634-0.001v6.389l8.634,0.002 v4.54l-13.205-0.003V263.816z"/>
  </g>
</svg>