<?xml version="1.0" encoding="utf-8"?>
<!-- Generator: Adobe Illustrator 16.0.0, SVG Export Plug-In . SVG Version: 6.00 Build 0)  -->
<!DOCTYPE svg PUBLIC "-//W3C//DTD SVG 1.1//EN" "http://www.w3.org/Graphics/SVG/1.1/DTD/svg11.dtd">
<svg version="1.1" id="Calque_1" xmlns="http://www.w3.org/2000/svg" xmlns:xlink="http://www.w3.org/1999/xlink" x="0px" y="0px"
	 width="176.341px" height="164.608px" viewBox="0 0 176.341 164.608" enable-background="new 0 0 176.341 164.608"
	 xml:space="preserve">
<g>
	<path fill="#FFFFFF" d="M141.814,65.877c-4.096-1.414-8.619-2.547-13.553-3.411c-2.069,3.135-6.905,4.647-11.176,3.387
		c-2.98-0.878-4.924-2.891-5.373-5.163c-6.165-0.308-12.771-0.305-19.818,0.027c-38.105,1.798-68.045,20.516-72.809,45.519
		c-2.209,11.594,2.023,22.551,11.918,30.85c1.176,0.986,2.434,1.908,3.737,2.796l-27.45,24.727l26.16-9.423l20.29-6.842
		c7.121,1.265,23.345,2.144,31.555,1.758c40.349-1.903,83.085-31.66,81.903-56.71C166.619,81.105,157.605,71.335,141.814,65.877z"/>
	<path opacity="0.21" fill="#FFFFFF" d="M134.377,66.369c-2.414-0.832-4.979-1.57-7.688-2.213c-2.435,1.939-6.198,2.701-9.604,1.696
		c-2.5-0.737-4.259-2.276-5.028-4.093c-8.274-0.842-17.491-1.026-27.599-0.55c-38.104,1.797-68.046,20.515-72.809,45.519
		c-2.209,11.594,2.023,22.548,11.917,30.848c0.91,0.763,1.872,1.484,2.859,2.188L0,163.572l46.289-16.677l-0.422-0.261l7.873,1.709
		c7.12,1.265,14.714,2.139,22.925,1.751c40.348-1.903,84.277-31.162,83.096-56.212C159.182,81.598,150.167,71.825,134.377,66.369z"
		/>
	<path fill="#FFFFFF" d="M123.977,48.693c-3.919-1.77-8.53-0.03-10.302,3.89c-0.601,1.329-0.789,2.737-0.634,4.087
		c0.05,0.424,0.144,0.839,0.261,1.246c0.602,2.127,2.088,3.988,4.261,4.969c2.962,1.339,6.311,0.668,8.538-1.426
		c0.563-0.531,1.062-1.149,1.455-1.854c0.111-0.197,0.217-0.398,0.313-0.609C129.64,55.078,127.9,50.465,123.977,48.693z"/>
	<path fill="none" stroke="#001E32" stroke-width="2.5" stroke-linecap="round" stroke-linejoin="round" stroke-miterlimit="10" d="
		M139.589,75.553c-1.094,2.441-3.966,3.495-6.412,2.354c-2.445-1.141-3.543-4.047-2.447-6.486c1.094-2.441,3.964-3.496,6.411-2.354
		C139.587,70.209,140.683,73.113,139.589,75.553z"/>
	<g>
		<path fill="#FFFFFF" d="M137.593,39.966L137.593,39.966c0.326,0,0.811,0.08,1.264,0.46c0.399,0.335,0.644,0.804,0.688,1.319
			c0.044,0.513-0.115,1.012-0.447,1.404c-0.371,0.438-0.916,0.69-1.496,0.69c-0.326,0-0.811-0.08-1.264-0.459
			c-0.399-0.336-0.644-0.806-0.688-1.322c-0.044-0.511,0.115-1.009,0.449-1.404C136.47,40.218,137.014,39.966,137.593,39.966
			 M137.593,37.466c-1.268,0-2.525,0.536-3.403,1.577c-1.585,1.873-1.341,4.671,0.54,6.252c0.838,0.703,1.858,1.046,2.872,1.046
			c1.268,0,2.525-0.536,3.405-1.576c1.583-1.874,1.34-4.673-0.543-6.253C139.627,37.81,138.607,37.466,137.593,37.466
			L137.593,37.466z"/>
	</g>
	<path fill="#FFFFFF" d="M151.123,61.412c-0.586,0-1.156-0.123-1.697-0.366c-1.007-0.454-1.774-1.274-2.165-2.307
		c-0.39-1.032-0.354-2.154,0.101-3.159c0.667-1.477,2.146-2.432,3.768-2.432c0.585,0,1.157,0.124,1.697,0.367
		c1.006,0.455,1.775,1.273,2.165,2.305c0.39,1.033,0.354,2.157-0.101,3.161C154.222,60.458,152.744,61.412,151.123,61.412z"/>
	<path fill="#001E32" d="M122.405,81.402c-0.309,0-0.608-0.064-0.894-0.193c-0.528-0.238-0.932-0.67-1.137-1.213
		c-0.206-0.541-0.187-1.132,0.052-1.66c0.351-0.776,1.129-1.278,1.98-1.278c0.308,0,0.609,0.065,0.893,0.193
		c0.528,0.239,0.934,0.67,1.138,1.211c0.206,0.543,0.188,1.134-0.052,1.662C124.034,80.9,123.257,81.402,122.405,81.402z"/>
	<path fill="none" stroke="#001E32" stroke-miterlimit="10" d="M132.276,91.595c-0.444,0-0.877-0.095-1.287-0.279
		c-0.761-0.344-1.343-0.964-1.64-1.746c-0.295-0.781-0.268-1.631,0.077-2.393c0.505-1.119,1.625-1.842,2.853-1.842
		c0.444,0,0.877,0.094,1.286,0.278c0.763,0.345,1.345,0.964,1.641,1.746c0.295,0.782,0.269,1.632-0.077,2.394
		C134.625,90.872,133.503,91.595,132.276,91.595z"/>
	<path fill="#FFFFFF" d="M154.469,7.731c-0.538-0.151-1.029-0.413-1.463-0.777c-0.806-0.677-1.3-1.626-1.392-2.673
		c-0.093-1.049,0.23-2.068,0.907-2.875c0.993-1.184,2.597-1.678,4.084-1.26c0.538,0.151,1.03,0.414,1.463,0.776
		c0.807,0.677,1.302,1.626,1.393,2.674c0.092,1.049-0.23,2.069-0.907,2.874C157.561,7.654,155.957,8.15,154.469,7.731z"/>
	<g>
		<path fill="#FFFFFF" d="M142.479,24.531c-3.236,3.855-8.991,4.357-12.85,1.117c-3.855-3.238-4.358-8.992-1.118-12.849
			c3.238-3.857,8.991-4.358,12.849-1.12C145.219,14.92,145.72,20.674,142.479,24.531z"/>
	</g>
	<path fill="#FFFFFF" d="M164.03,35.085c-1.324-0.372-2.536-1.014-3.601-1.907c-4.088-3.434-4.621-9.554-1.188-13.643
		c2.443-2.908,6.386-4.123,10.043-3.095c1.325,0.372,2.535,1.014,3.599,1.907c1.981,1.664,3.196,3.999,3.422,6.575
		c0.224,2.577-0.566,5.087-2.23,7.069C171.63,34.898,167.688,36.113,164.03,35.085z"/>
	<path fill="#001E32" d="M48.191,97.003c0.124-0.658,0.623-1.243,0.38-1.932c-0.051-0.123-0.122-0.242-0.244-0.283
		c-0.095-0.023-0.176,0.017-0.283,0.041c-2.048,0.816-1.571,3.751-0.897,5.357c0.644,1.568,1.819,2.702,3.105,3.721
		c0.037-0.031,0.098-0.066,0.157-0.103c1.087-0.782,2.211-1.395,3.465-1.831c0.103-0.046,0.959-0.146,0.741-0.008
		c-1.212,0.721-2.576,1.475-3.814,2.383c0.053,0.033,0.105,0.066,0.162,0.121c1.681,1.269,3.965,3.529,1.785,5.569
		c-1.081,1.008-3.127,1.126-4.451,0.544c-2.573-1.137-1.534-3.645,0.062-5.172c-0.472-0.391-0.924-0.808-1.345-1.275
		c-0.255-0.236-0.476-0.412-0.528-0.446c-0.686-0.657-1.276-1.382-1.692-2.233c-0.869-1.879-0.387-4.554,0.802-6.193
		c0.962-1.342,4.296-2.445,4.793-0.125c0.196,0.881-0.192,1.665-0.99,2.023c-0.188,0.064-1.006,0.337-1.158,0.057
		c-0.031-0.039-0.041-0.081-0.077-0.141L48.191,97.003z M48.643,109.109c0.483,0.951,2.398,2.168,2.721-0.021
		c0.088-0.515-0.383-1.311-0.733-1.771c-0.525-0.334-1.01-0.789-1.49-1.223C48.553,106.99,48.035,107.894,48.643,109.109z"/>
	<path fill="#001E32" d="M54.485,84.134c0.203,0.406,0.206,0.922,0.28,1.356c0.075,0.435,0.191,0.858,0.224,1.301
		c0.12,1.146-3.112,1.798-3.287,0.712c-0.102-0.653-0.052-1.34-0.02-1.999c0.062-0.735,0.232-1.179,0.866-1.569
		C53.101,83.587,54.138,83.492,54.485,84.134z M53.794,100.099c-0.617-2.361-1.289-5.568-0.462-7.914
		c0.146-0.461,1.885-0.939,2.193-0.468c1.312,1.938,1.095,4.598,1.593,6.829c0.264,1.18,0.63,2.313,1.146,3.416
		c0.39,0.836,0.789,1.31,0.382,2.211c-0.152,0.328-1.001,0.359-1.304,0.313C55.146,104.234,54.294,102.037,53.794,100.099z"/>
	<path fill="#001E32" d="M68.649,106.603c-0.585,1.009-2.305,1.076-3.325,0.945c-2.435-0.313-3.576-2.197-4.408-4.31
		c-1.309-3.334-1.956-7.04-2.582-10.548c-0.021-0.199-0.069-0.414-0.117-0.628c-0.438,0.255-0.898,0.517-1.354,0.798
		C56.645,93,54.816,93.273,55.3,92.826c0.781-0.738,1.739-1.289,2.748-1.717c-0.499-2.637-1.056-5.936,0.187-8.037
		c0.212-0.361,1.549-0.729,1.821-0.315c1.021,1.55,0.754,3.974,1.021,5.785c0.078,0.546,0.149,1.07,0.248,1.61
		c1.056-0.213,2.258-0.278,2.783,0.258c0.119,0.131-0.311,0.227-0.369,0.264c-0.764,0.213-1.496,0.266-2.266,0.347
		c0.257,1.451,0.557,2.894,0.83,4.319c0.419,1.979,1.953,13.077,5.708,11.338C68.072,106.642,68.677,106.529,68.649,106.603z"/>
	<path fill="#001E32" d="M65.205,98.138c-0.43-2.629-0.286-6.221,2.192-7.832c1.377-0.894,3.797-1.456,4.812,0.164
		c0.985,1.087-0.082,3.263-0.775,4.295c-0.697,1.012-1.616,1.938-2.703,2.518c0.208,1.035,0.521,2.632,1.217,3.332
		c1.363,1.363,3.181-2.398,3.805-3.642c0.09-0.2,1.123-0.317,1.099-0.224c-0.427,2.325-3.034,5.475-5.239,5.787
		C66.689,102.964,65.625,100.724,65.205,98.138z M68.595,96.481c0.566-0.487,1.072-1.052,1.493-1.686
		c0.488-0.739,0.931-1.581,0.996-2.498c0.036-0.75-0.274-1.334-0.497-2.027C68.322,90.009,68.322,94.447,68.595,96.481z"/>
	<path fill="#001E32" d="M83.548,94.042c-0.429-2.629-0.285-6.221,2.193-7.832c1.377-0.893,3.797-1.455,4.811,0.165
		c0.986,1.087-0.082,3.262-0.774,4.294c-0.697,1.012-1.616,1.939-2.704,2.518c0.209,1.036,0.521,2.633,1.218,3.333
		c1.363,1.362,3.181-2.399,3.804-3.642c0.091-0.201,1.123-0.318,1.1-0.224c-0.428,2.325-3.034,5.474-5.239,5.786
		C85.033,98.869,83.969,96.628,83.548,94.042z M86.94,92.385c0.567-0.487,1.072-1.05,1.493-1.685
		c0.488-0.74,0.931-1.581,0.996-2.498c0.035-0.75-0.275-1.334-0.498-2.027C86.666,85.915,86.666,90.352,86.94,92.385z"/>
	<path fill="#001E32" d="M100.908,82.916c-0.02-0.086-0.479-2.146-0.67-1.99c-0.889,0.761-1.118,2.254-1.417,3.333
		c-0.368,1.276-0.668,2.56-0.94,3.859c-0.25,1.204-0.477,2.402-0.727,3.607c0.006,0.225,0.011,0.448,0.016,0.672
		c0.017,1.078,0.222,2.203,0.125,3.283c-0.012,0.047-0.05,0.078-0.104,0.136c-0.018,0.027-0.013,0.048-0.024,0.096
		c-0.083,0.536-1.883,0.849-2.235,0.476c-0.005-0.021-0.037-0.059-0.062-0.076c-0.079-0.05-0.152-0.077-0.193-0.158
		c-0.17-0.256-0.322-0.537-0.476-0.817c-0.767-1.518-0.94-3.507-1.124-5.132c-0.235-2.064-0.565-4.649,0.405-6.555
		c0.235-0.457,2.047-1.019,2.303-0.378c0.731,1.863,0.343,4.359,0.554,6.408c0,0,0.004,0.021,0.009,0.042
		c0.278-1.479,0.619-2.976,0.966-4.449c0.471-1.929,0.851-4.762,3.092-5.418c2.111-0.629,2.328,1.754,2.697,3.406
		c0.168,0.75,0.309,1.485,0.456,2.24c0.43,1.525,0.602,3.199,0.991,4.643c0.473,1.81,1.068,4.379,2.525,5.652
		c0.249,0.215-1.025,0.455-1.164,0.441c-0.271-0.007-0.51-0.067-0.732-0.152C102.029,92.373,101.632,87.573,100.908,82.916z"/>
	<path fill="#001E32" d="M40.608,130.783c0.204,1.013,0.509,2.882,1.269,3.658c1.362,1.363,3.213-2.249,3.836-3.492
		c0.09-0.2,1.123-0.317,1.1-0.223c-0.427,2.326-3.067,5.324-5.273,5.637c-2.922,0.428-3.963-1.817-4.405-4.398
		c-0.43-2.63-0.286-6.221,2.192-7.832c1.415-0.924,3.946-1.489,4.908,0.301c0.005,0.021-0.479,0.175-0.536,0.119
		C39.991,122.273,40.224,128.864,40.608,130.783z"/>
	<path fill="#001E32" d="M45.832,129.458c-0.348-2.062-0.168-4.579,0.804-6.485c0.331-0.637,0.876-1.321,1.44-1.717
		c0.157-0.104,1.785-0.782,2.472-0.732c0.376-0.13,0.806-0.226,1.275-0.239c3.993-0.172,5.372,4.79,4.976,8.461
		c0.611-0.092,1.187-0.333,1.539-0.771c0.369-0.466,2.357-0.64,1.925-0.159c-0.846,0.954-2.161,1.518-3.58,1.722
		c-0.108,0.52-0.254,0.98-0.408,1.397c-0.697,1.62-2.212,2.903-3.864,3.475c-0.21,0.069-0.81,0.204-1.43,0.252
		C48.485,135.285,46.222,131.714,45.832,129.458z M51.801,133.802c0.065-0.015,0.13-0.029,0.22-0.027
		c1.025-0.453,1.958-1.518,2.342-2.324c0.275-0.58,0.451-1.205,0.558-1.837c-1.864-0.079-3.716-0.701-4.83-1.759
		c-0.322-0.334-0.627-0.692-0.853-1.094C49.345,128.854,49.855,132.547,51.801,133.802z M50.968,126.038
		c0.586,1.107,1.578,1.923,2.752,2.335c0.369,0.145,0.825,0.268,1.314,0.338c0.004-0.182,0.035-0.346,0.04-0.525
		c0.05-1.994-0.501-4.055-1.735-5.65c-0.225-0.399-0.525-0.737-0.898-0.993c-0.668,0.128-1.322,0.229-1.992,0.355
		c-0.258,0.261-0.18,1.211-0.168,1.569C50.297,124.34,50.55,125.275,50.968,126.038z"/>
	<path fill="#001E32" d="M66.614,118.13c-0.019-0.086-0.479-2.146-0.67-1.989c-0.888,0.761-1.117,2.254-1.417,3.333
		c-0.368,1.276-0.667,2.561-0.939,3.859c-0.25,1.205-0.477,2.403-0.727,3.606c0.006,0.226,0.011,0.45,0.016,0.673
		c0.016,1.079,0.221,2.203,0.125,3.284c-0.012,0.046-0.051,0.078-0.105,0.135c-0.016,0.026-0.012,0.048-0.022,0.096
		c-0.083,0.536-1.884,0.849-2.236,0.477c-0.005-0.021-0.036-0.06-0.062-0.075c-0.078-0.051-0.152-0.08-0.192-0.16
		c-0.17-0.255-0.323-0.536-0.477-0.818c-0.767-1.516-0.939-3.506-1.123-5.131c-0.236-2.064-0.565-4.648,0.404-6.555
		c0.236-0.457,2.048-1.02,2.304-0.379c0.731,1.865,0.343,4.36,0.553,6.408c0,0,0.005,0.021,0.01,0.043
		c0.277-1.48,0.619-2.976,0.966-4.449c0.469-1.93,0.851-4.763,3.09-5.42c2.112-0.629,2.33,1.754,2.699,3.406
		c0.168,0.75,0.309,1.484,0.455,2.24c0.431,1.525,0.602,3.2,0.992,4.644c0.471,1.809,1.068,4.378,2.524,5.653
		c0.25,0.214-1.025,0.454-1.164,0.439c-0.271-0.007-0.51-0.066-0.731-0.152C67.736,127.587,67.339,122.789,66.614,118.13z"/>
	<path fill="#001E32" d="M75.154,118.543c0.124-0.657,0.623-1.243,0.379-1.932c-0.049-0.124-0.121-0.243-0.243-0.284
		c-0.095-0.021-0.176,0.019-0.283,0.042c-2.048,0.817-1.573,3.752-0.897,5.358c0.643,1.568,1.819,2.701,3.105,3.721
		c0.038-0.031,0.098-0.066,0.157-0.104c1.087-0.782,2.211-1.394,3.465-1.831c0.103-0.046,0.958-0.146,0.741-0.008
		c-1.213,0.722-2.575,1.476-3.814,2.383c0.053,0.033,0.104,0.067,0.162,0.122c1.68,1.268,3.965,3.529,1.785,5.569
		c-1.081,1.007-3.127,1.126-4.451,0.544c-2.573-1.137-1.534-3.645,0.062-5.172c-0.47-0.391-0.924-0.808-1.345-1.276
		c-0.254-0.235-0.475-0.413-0.526-0.446c-0.688-0.656-1.277-1.381-1.693-2.233c-0.87-1.878-0.387-4.554,0.802-6.193
		c0.962-1.341,4.296-2.444,4.792-0.124c0.197,0.881-0.19,1.665-0.989,2.023c-0.188,0.064-1.006,0.336-1.159,0.056
		c-0.03-0.038-0.04-0.081-0.076-0.142L75.154,118.543z M75.607,130.65c0.481,0.951,2.398,2.168,2.719-0.021
		c0.088-0.515-0.382-1.311-0.733-1.773c-0.524-0.333-1.009-0.788-1.488-1.221C75.516,128.531,74.997,129.434,75.607,130.65z"/>
	<path fill="#001E32" d="M89.754,129.451c-0.586,1.01-2.305,1.078-3.325,0.945c-2.434-0.313-3.576-2.197-4.408-4.309
		c-1.309-3.334-1.956-7.041-2.582-10.55c-0.021-0.198-0.069-0.413-0.117-0.626c-0.439,0.255-0.898,0.516-1.354,0.797
		c-0.217,0.139-2.048,0.412-1.562-0.033c0.782-0.739,1.74-1.29,2.747-1.719c-0.498-2.636-1.055-5.936,0.188-8.036
		c0.211-0.362,1.549-0.729,1.821-0.316c1.021,1.552,0.753,3.976,1.021,5.786c0.077,0.545,0.148,1.069,0.248,1.609
		c1.056-0.213,2.258-0.277,2.782,0.259c0.12,0.131-0.31,0.226-0.369,0.263c-0.763,0.215-1.494,0.266-2.265,0.348
		c0.257,1.451,0.557,2.894,0.83,4.319c0.419,1.979,1.952,13.077,5.708,11.338C89.177,129.49,89.784,129.377,89.754,129.451z"/>
	<path fill="#001E32" d="M92.603,115.684c0.078-0.265,0.537-4.151-0.473-4.038c-0.482,0.062-0.908,3.198-0.995,3.713
		c-0.344,1.991-0.702,3.918-0.363,5.938c0.206,1.125,0.691,2.188,0.833,3.327c0.14,1.027-1.677,1.366-2.378,1.251
		c-1.397-0.205-1.845-1.703-2.092-2.912c-0.649-3.008-1.729-6.73-0.757-9.74c0.178-0.513,2.057-0.976,2.302-0.377
		c0.424,0.986,0.696,2.006,0.927,3.035c0.012-0.047,0.02-0.116,0.026-0.186c0.203-1.307,0.341-3.613,1.536-4.42
		c2.744-1.828,3.8,2.192,3.451,4.162C94.533,115.953,92.49,116.183,92.603,115.684z"/>
	<path fill="#001E32" d="M102.534,118.287c0.151-3.051-1.185-6.108,0.159-9.066c0.119-0.273,1.727-0.543,1.929-0.34
		c1.896,2.032,1.435,4.703,2.078,7.284c0.498,2.027,0.979,5.997,3.114,6.984c0.1,0.045-0.101,0.157-0.122,0.162
		c-2.436,1.197-4.058-0.22-5.172-2.382c-0.229-0.422-0.441-0.869-0.653-1.317c-0.077,2.788-3.064,4.738-5.446,2.747
		c-1.3-1.084-1.696-2.955-2.051-4.542c-0.447-1.905-0.659-3.862-0.626-5.828c0.019-0.32,0.033-0.661,0.189-0.967
		c0.141-0.278,0.472-0.511,0.807-0.427c0.45,0.102,0.578,0.68,0.637,1.141c0.282,2.572,0.596,5.183,1.349,7.65
		c0.287,0.881,0.617,1.754,1.224,2.452c0.336,0.397,0.888,0.747,1.379,0.524c0.205-0.09,0.343-0.279,0.48-0.467
		C102.546,120.762,102.48,119.56,102.534,118.287z"/>
	<path fill="#001E32" d="M111.864,114.876c0.203,1.014,0.509,2.883,1.268,3.658c1.362,1.363,3.213-2.249,3.836-3.492
		c0.091-0.201,1.123-0.317,1.101-0.223c-0.428,2.325-3.068,5.324-5.274,5.637c-2.921,0.428-3.964-1.818-4.405-4.398
		c-0.43-2.63-0.286-6.221,2.192-7.832c1.415-0.924,3.946-1.489,4.909,0.301c0.005,0.021-0.479,0.174-0.536,0.119
		C111.246,106.367,111.479,112.957,111.864,114.876z"/>
	<path fill="#001E32" d="M127.624,120.998c-0.585,1.009-2.304,1.077-3.324,0.945c-2.435-0.313-3.576-2.197-4.409-4.31
		c-1.308-3.333-1.955-7.04-2.582-10.549c-0.021-0.198-0.069-0.413-0.116-0.627c-0.438,0.255-0.899,0.516-1.354,0.797
		c-0.217,0.138-2.047,0.412-1.561-0.034c0.78-0.738,1.738-1.289,2.746-1.717c-0.499-2.637-1.056-5.936,0.188-8.037
		c0.212-0.361,1.549-0.729,1.82-0.315c1.022,1.551,0.754,3.975,1.021,5.784c0.078,0.547,0.15,1.071,0.248,1.611
		c1.056-0.213,2.258-0.278,2.783,0.258c0.119,0.131-0.311,0.227-0.369,0.264c-0.764,0.213-1.495,0.265-2.265,0.347
		c0.256,1.451,0.556,2.894,0.83,4.319c0.419,1.979,1.952,13.076,5.708,11.338C127.047,121.037,127.652,120.923,127.624,120.998z"/>
	<path fill="#001E32" d="M125.625,95.814c0.202,0.404,0.206,0.922,0.28,1.355s0.191,0.858,0.223,1.301
		c0.121,1.146-3.111,1.799-3.287,0.712c-0.101-0.653-0.051-1.339-0.019-2c0.062-0.734,0.233-1.178,0.865-1.567
		C124.242,95.267,125.279,95.17,125.625,95.814z M124.935,111.778c-0.618-2.361-1.289-5.568-0.463-7.914
		c0.146-0.461,1.885-0.938,2.193-0.468c1.312,1.938,1.095,4.598,1.594,6.829c0.264,1.18,0.629,2.314,1.146,3.416
		c0.39,0.836,0.787,1.31,0.381,2.212c-0.152,0.326-1.001,0.358-1.305,0.312C126.286,115.914,125.435,113.716,124.935,111.778z"/>
	<path fill="#001E32" d="M130.003,110.669c-0.349-2.062-0.167-4.58,0.803-6.485c0.331-0.638,0.877-1.321,1.441-1.718
		c0.157-0.104,1.785-0.782,2.471-0.732c0.377-0.129,0.806-0.226,1.275-0.24c3.994-0.171,5.373,4.791,4.977,8.462
		c0.609-0.092,1.187-0.333,1.539-0.771c0.369-0.465,2.357-0.64,1.924-0.159c-0.846,0.954-2.16,1.519-3.579,1.722
		c-0.109,0.521-0.254,0.981-0.409,1.397c-0.695,1.62-2.211,2.903-3.863,3.475c-0.209,0.07-0.811,0.203-1.43,0.252
		C132.656,116.495,130.394,112.924,130.003,110.669z M135.973,115.012c0.064-0.015,0.129-0.028,0.22-0.026
		c1.023-0.454,1.958-1.519,2.341-2.325c0.276-0.579,0.452-1.204,0.559-1.837c-1.864-0.078-3.716-0.701-4.831-1.758
		c-0.322-0.334-0.627-0.693-0.852-1.094C133.516,110.064,134.027,113.757,135.973,115.012z M135.14,107.248
		c0.585,1.107,1.578,1.923,2.751,2.336c0.37,0.143,0.825,0.266,1.314,0.338c0.004-0.182,0.035-0.346,0.04-0.527
		c0.05-1.992-0.501-4.055-1.734-5.648c-0.226-0.4-0.525-0.738-0.898-0.993c-0.67,0.127-1.323,0.228-1.993,0.354
		c-0.257,0.26-0.179,1.211-0.167,1.569C134.468,105.55,134.722,106.486,135.14,107.248z"/>
	<path fill="#001E32" d="M150.785,99.34c-0.019-0.085-0.479-2.146-0.67-1.989c-0.888,0.761-1.117,2.254-1.416,3.334
		c-0.368,1.275-0.668,2.559-0.941,3.858c-0.248,1.205-0.477,2.403-0.725,3.607c0.006,0.226,0.01,0.449,0.015,0.673
		c0.016,1.078,0.222,2.202,0.125,3.283c-0.011,0.047-0.05,0.078-0.104,0.135c-0.017,0.027-0.012,0.049-0.023,0.096
		c-0.083,0.537-1.883,0.85-2.236,0.477c-0.004-0.021-0.035-0.059-0.062-0.076c-0.078-0.05-0.152-0.078-0.193-0.159
		c-0.168-0.255-0.321-0.536-0.475-0.817c-0.767-1.518-0.941-3.506-1.123-5.131c-0.237-2.064-0.566-4.649,0.404-6.556
		c0.236-0.458,2.048-1.02,2.303-0.379c0.732,1.864,0.343,4.36,0.554,6.409c0,0,0.005,0.021,0.009,0.042
		c0.277-1.481,0.619-2.976,0.965-4.449c0.471-1.929,0.852-4.763,3.092-5.42c2.112-0.63,2.329,1.755,2.698,3.407
		c0.167,0.75,0.31,1.483,0.456,2.239c0.43,1.526,0.602,3.2,0.991,4.644c0.472,1.809,1.068,4.379,2.524,5.652
		c0.25,0.215-1.024,0.455-1.162,0.44c-0.272-0.006-0.512-0.067-0.732-0.151C151.906,108.798,151.51,103.999,150.785,99.34z"/>
</g>
</svg>
