<?xml version="1.0" encoding="utf-8"?>
<!-- Generator: Adobe Illustrator 16.0.0, SVG Export Plug-In . SVG Version: 6.00 Build 0)  -->
<!DOCTYPE svg PUBLIC "-//W3C//DTD SVG 1.1//EN" "http://www.w3.org/Graphics/SVG/1.1/DTD/svg11.dtd">
<svg version="1.1" id="Calque_1" xmlns="http://www.w3.org/2000/svg" xmlns:xlink="http://www.w3.org/1999/xlink" x="0px" y="0px"
	 width="1246.438px" height="854.958px" viewBox="0 0 1246.438 854.958" enable-background="new 0 0 1246.438 854.958"
	 xml:space="preserve">
<g>
	<path fill-rule="evenodd" clip-rule="evenodd" fill="#009496" d="M842.797,518.683c-2.02-1.487-3.438,0.305-4.959,1.019
		c-73.315,34.423-147.054,67.884-222.403,97.668c-42.542,16.816-85.406,32.809-130.16,42.796
		c-33.796,7.541-68.015,12.835-102.432,16.785c-27.505,3.157-55.089,5.026-82.773,4.572c-41.842-0.686-82.865-6.226-122.558-20.363
		c-45.447-16.187-81.918-44.285-111.711-81.765c-27.643-34.774-45.503-73.93-51.648-117.913
		c-5.008-35.847-0.925-71.069,11.027-105.316c13.413-38.434,34.733-72.245,61.273-102.739
		c44.962-51.664,96.062-96.681,156.177-129.525c51.382-28.074,105.419-51.018,163.79-61.374c24.267-4.305,48.615-6.253,72.926-0.629
		c20.588,4.763,34.289,16.966,40.787,37.575c8.01,25.408,15.384,50.927,20.148,77.173c0.683,3.763-0.071,4.383-3.603,4.496
		c-55.746,1.784-109.562,12.867-161.389,33.591c-51.282,20.507-97.793,48.969-140.537,83.776
		c-30.971,25.221-59.451,53.031-85.109,83.603c-15.529,18.502-29.775,38.048-39.58,60.375c-9.194,20.937-11.442,42.266-2.976,64.048
		c8.506,21.886,25.474,34.795,46.381,43.383c22.313,9.166,45.863,12.506,69.707,13.781c40.9,2.188,81.622-0.762,122.083-6.431
		c88.1-12.345,172.417-38.04,255.252-70.25c60.819-23.648,118.591-53.172,176.578-82.54c5.638-2.855,11.259-5.745,16.888-8.618
		c0.945-2.211,3.09-2.896,4.977-3.907c31.197-16.731,62.467-33.328,93.608-50.165c11.835-6.397,23.744-12.664,35.621-18.987
		c2.489,1.299,4.028-0.828,5.755-1.776c89.688-49.266,179.345-98.589,269.015-147.887c1.578-0.867,3.283-1.504,4.929-2.248
		c0,45,0,90,0,135c-10.042,4.444-19.015,10.764-28.385,16.362c-65.7,39.261-131.312,78.668-196.948,118.036
		c-0.28,0.168-0.503,0.432-0.753,0.651c-2.534,3.869-6.972,5.005-10.66,7.039c-32.881,18.138-65.839,36.134-98.645,54.407
		C862.628,507.879,852.738,513.332,842.797,518.683z"/>
	<path fill-rule="evenodd" clip-rule="evenodd" fill="#006A4E" d="M7.88,745.889c369.772-0.005,739.545-0.008,1109.317-0.051
		c2.886,0,4.813-0.212,4.783,3.939c-0.226,30.659-0.159,61.32-0.185,91.981c-1.493,1.135-3.225,0.589-4.835,0.589
		c-368.061,0.027-736.122,0.026-1104.183,0.006c-1.633,0-3.337,0.418-4.898-0.465C7.88,809.889,7.88,777.889,7.88,745.889z"/>
	<path fill-rule="evenodd" clip-rule="evenodd" fill="#EC1B2F" d="M1207.88,118.889c-36.464,19.943-72.92,39.902-109.395,59.825
		c-33.705,18.409-67.444,36.754-101.138,55.183c-8.706,4.762-17.898,7.121-27.816,6.128c-10.562-1.058-19.357-5.251-25.901-14.026
		c-12.229-16.398-19.395-35.125-25.649-54.308c-1.391-4.265-2.628-8.579-4.011-12.847c-0.589-1.819-0.566-3.068,1.695-3.627
		c40.257-9.954,74.97-32.227,111.41-50.557c58.949-29.651,117.522-60.049,176.27-90.102c1.423-0.728,2.683-2.053,4.535-1.67
		C1207.88,48.222,1207.88,83.556,1207.88,118.889z"/>
	<path fill-rule="evenodd" clip-rule="evenodd" fill="#BED9D2" d="M7.88,841.889c369.142,0,738.283,0,1107.424-0.006
		c2.164,0,4.328-0.081,6.492-0.124c0.028,0.377,0.056,0.753,0.084,1.13c-369.833,0-739.667,0.002-1109.5-0.062
		C10.917,842.828,8.989,843.981,7.88,841.889z"/>
	<path fill-rule="evenodd" clip-rule="evenodd" fill="#006A4E" d="M928.182,322.8c-1.908,3.766-5.973,4.625-9.194,6.359
		c-36.316,19.549-72.744,38.894-109.144,58.288c-5.284,2.815-10.579,5.609-15.868,8.413
		c-15.834-40.201-31.657-80.406-47.506-120.601c-8.29-21.023-16.624-42.03-24.973-63.132c-2.202,0.687-2.277,2.775-2.986,4.278
		c-30.282,64.2-61.738,127.854-90.818,192.61c-11.414,25.416-29.151,43.495-54.312,55.169
		c-30.055,13.945-61.648,22.919-93.699,30.552c-21.69,5.165-43.578,9.411-65.634,12.731c-1.792,0.27-3.608,0.38-5.465,0.569
		c-0.087-2.096,1.094-3.378,1.85-4.799c76.312-143.449,152.588-286.917,230.292-429.62c2.101-3.858,4.288-5.287,8.774-5.271
		c53.163,0.186,106.328,0.143,159.492,0.062c3.149-0.005,5.018,0.584,6.47,3.815c37.291,82.928,74.713,165.796,112.104,248.679
		C927.836,321.506,927.979,322.167,928.182,322.8z"/>
	<path fill-rule="evenodd" clip-rule="evenodd" fill="#006A4E" d="M842.797,518.683c0.209-2.269,2.173-2.741,3.728-3.599
		c42.418-23.377,84.837-46.75,127.269-70.102c2.616-1.44,5.332-2.7,8.001-4.044c32.843,72.868,65.686,145.736,98.525,218.605
		c1.298,2.879,2.566,5.771,3.861,8.651c2.36,5.252,2.364,5.262-3.157,5.264c-13.995,0.007-27.989,0.002-41.984,0.002
		c-37.82,0-75.641,0.022-113.46-0.032c-3.987-0.006-8.04-0.094-11.947-0.789c-7.352-1.31-12.492-5.882-16.223-12.197
		c-6.734-11.403-10.599-23.989-14.896-36.379c-11.768-33.917-25.035-67.262-38.109-100.682
		C843.801,521.842,843.329,520.25,842.797,518.683z"/>
</g>
</svg>
