<?xml version="1.0" encoding="utf-8"?>
<!-- Generator: Adobe Illustrator 16.0.0, SVG Export Plug-In . SVG Version: 6.00 Build 0)  -->
<!DOCTYPE svg PUBLIC "-//W3C//DTD SVG 1.1//EN" "http://www.w3.org/Graphics/SVG/1.1/DTD/svg11.dtd">
<svg version="1.1" id="Calque_1" xmlns="http://www.w3.org/2000/svg" xmlns:xlink="http://www.w3.org/1999/xlink" x="0px" y="0px"
	 width="50.969px" height="50.969px" viewBox="6.516 8.016 50.969 50.969" enable-background="new 6.516 8.016 50.969 50.969"
	 xml:space="preserve">
<g>
	<path fill="#1877F2" d="M57.484,33.5C57.484,19.425,46.075,8.016,32,8.016S6.516,19.425,6.516,33.5
		c0,12.727,9.328,23.273,21.521,25.177V40.863h-6.515V33.5h6.515l0.002-5.616c0-6.386,3.784-9.928,9.606-9.928
		c2.787,0,5.683,0.536,5.683,0.536v6.229h-3.192c-3.164,0-4.177,1.982-4.177,3.998l0.007,4.78h7.077l-1.131,7.362h-5.946v17.814
		C48.154,56.773,57.484,46.227,57.484,33.5"/>
	<path fill="#FFFFFF" d="M41.902,40.861l1.132-7.361h-7.079l-0.006-4.781c0-2.015,1.012-3.996,4.178-3.996h3.191v-6.229
		c0,0-2.896-0.538-5.684-0.538c-5.82,0-9.605,3.543-9.605,9.931L28.027,33.5h-6.514v7.361h6.514v17.814
		c1.289,0.203,2.615,0.309,3.964,0.309c1.348,0,2.672-0.104,3.964-0.309V40.861H41.902z"/>
</g>
</svg>
