<?xml version="1.0" encoding="utf-8"?>
<!-- Generator: Adobe Illustrator 16.0.0, SVG Export Plug-In . SVG Version: 6.00 Build 0)  -->
<!DOCTYPE svg PUBLIC "-//W3C//DTD SVG 1.1//EN" "http://www.w3.org/Graphics/SVG/1.1/DTD/svg11.dtd">
<svg version="1.1" id="Calque_1" xmlns="http://www.w3.org/2000/svg" xmlns:xlink="http://www.w3.org/1999/xlink" x="0px" y="0px"
	 width="50.969px" height="50.969px" viewBox="0 0 50.969 50.969" enable-background="new 0 0 50.969 50.969" xml:space="preserve">
<g>
	<path fill="#FFFFFF" d="M25.485,0.155C11.41,0.155,0,11.564,0,25.639c0,12.722,9.323,23.267,21.512,25.175V33.002h-6.506V33h-0.008
		v-7.361h0.008h6.506l0.002-5.613c0-6.388,3.785-9.931,9.605-9.931c0.003,0,0.005,0,0.008,0c0,0,0.001,0,0.002,0
		c2.787,0,5.684,0.536,5.684,0.536v6.229h-0.01v0.002h-3.191c-0.394,0-0.754,0.031-1.084,0.089
		c-2.309,0.409-3.084,2.145-3.084,3.907l0.008,4.78h7.076L35.397,33h-0.01h-5.936v17.814c12.188-1.902,21.518-12.449,21.518-25.175
		C50.969,11.564,39.561,0.155,25.485,0.155z"/>
</g>
</svg>
