<?xml version="1.0" encoding="utf-8"?>
<!-- Generator: Adobe Illustrator 16.0.0, SVG Export Plug-In . SVG Version: 6.00 Build 0)  -->
<!DOCTYPE svg PUBLIC "-//W3C//DTD SVG 1.1//EN" "http://www.w3.org/Graphics/SVG/1.1/DTD/svg11.dtd">
<svg version="1.1" id="Calque_1" xmlns="http://www.w3.org/2000/svg" xmlns:xlink="http://www.w3.org/1999/xlink" x="0px" y="0px"
	 width="43.896px" height="43.896px" viewBox="10.052 11.552 43.896 43.896" enable-background="new 10.052 11.552 43.896 43.896"
	 xml:space="preserve">
<g>
	<g>
		<g>
			<path fill="#FFFFFF" d="M32.001,15.507c5.861,0,6.555,0.021,8.868,0.128c2.141,0.097,3.303,0.455,4.075,0.755
				c1.024,0.398,1.757,0.875,2.523,1.643c0.768,0.768,1.243,1.499,1.643,2.523c0.301,0.772,0.656,1.936,0.755,4.075
				c0.104,2.313,0.128,3.009,0.128,8.868c0,5.861-0.021,6.555-0.128,8.867c-0.099,2.143-0.454,3.305-0.755,4.076
				c-0.398,1.024-0.875,1.756-1.643,2.524s-1.499,1.242-2.523,1.642c-0.772,0.301-1.936,0.658-4.075,0.756
				c-2.313,0.104-3.007,0.127-8.868,0.127s-6.555-0.023-8.869-0.127c-2.139-0.098-3.302-0.455-4.074-0.756
				c-1.024-0.398-1.757-0.873-2.524-1.642c-0.767-0.77-1.243-1.5-1.642-2.524c-0.3-0.771-0.658-1.935-0.756-4.076
				c-0.105-2.312-0.128-3.006-0.128-8.867c0-5.859,0.022-6.555,0.128-8.868c0.098-2.14,0.456-3.302,0.756-4.075
				c0.398-1.025,0.875-1.757,1.642-2.523c0.769-0.768,1.5-1.244,2.524-1.643c0.772-0.301,1.936-0.658,4.074-0.755
				C25.446,15.528,26.142,15.507,32.001,15.507 M32.001,11.552c-5.96,0-6.708,0.025-9.049,0.133
				c-2.336,0.106-3.932,0.478-5.328,1.02c-1.441,0.561-2.667,1.312-3.887,2.531c-1.221,1.221-1.971,2.445-2.532,3.889
				c-0.542,1.396-0.914,2.991-1.021,5.327c-0.106,2.341-0.133,3.088-0.133,9.049s0.025,6.708,0.133,9.048
				c0.105,2.336,0.479,3.932,1.021,5.326c0.562,1.445,1.312,2.668,2.532,3.887c1.22,1.223,2.443,1.973,3.887,2.535
				c1.396,0.541,2.992,0.912,5.328,1.02c2.341,0.105,3.089,0.132,9.049,0.132c5.961,0,6.708-0.025,9.049-0.132
				c2.336-0.106,3.932-0.479,5.327-1.02c1.444-0.562,2.667-1.312,3.888-2.535c1.221-1.219,1.971-2.441,2.531-3.887
				c0.543-1.395,0.914-2.99,1.02-5.326c0.106-2.34,0.134-3.088,0.134-9.048s-0.026-6.708-0.134-9.049
				c-0.104-2.336-0.477-3.933-1.02-5.327c-0.561-1.443-1.311-2.667-2.531-3.889c-1.221-1.219-2.443-1.971-3.888-2.531
				c-1.396-0.542-2.991-0.913-5.327-1.02C38.709,11.577,37.962,11.552,32.001,11.552z"/>
		</g>
	</g>
	<path fill="#FFFFFF" d="M32.001,22.229c-6.225,0-11.27,5.045-11.27,11.271s5.045,11.269,11.27,11.269S43.272,39.724,43.272,33.5
		S38.226,22.229,32.001,22.229 M32.001,40.813c-4.041,0-7.314-3.274-7.314-7.314s3.274-7.316,7.314-7.316s7.316,3.276,7.316,7.316
		S36.041,40.813,32.001,40.813z"/>
	<path fill="#FFFFFF" d="M46.351,21.784c0,1.455-1.179,2.634-2.634,2.634s-2.634-1.179-2.634-2.634c0-1.454,1.18-2.633,2.634-2.633
		C45.172,19.151,46.351,20.33,46.351,21.784"/>
</g>
</svg>
