<?xml version="1.0" encoding="utf-8"?>
<!-- Generator: Adobe Illustrator 16.0.0, SVG Export Plug-In . SVG Version: 6.00 Build 0)  -->
<!DOCTYPE svg PUBLIC "-//W3C//DTD SVG 1.1//EN" "http://www.w3.org/Graphics/SVG/1.1/DTD/svg11.dtd">
<svg version="1.1" id="Calque_1" xmlns="http://www.w3.org/2000/svg" xmlns:xlink="http://www.w3.org/1999/xlink" x="0px" y="0px"
	 width="64px" height="67px" viewBox="212.5 201.5 64 67" enable-background="new 212.5 201.5 64 67" xml:space="preserve">
<g>
	<g>
		<g>
			<path fill="#FFFFFF" d="M244.5,217.008c5.861,0,6.554,0.022,8.868,0.128c2.141,0.097,3.303,0.455,4.076,0.755
				c1.024,0.398,1.756,0.874,2.523,1.642c0.768,0.768,1.243,1.499,1.642,2.523c0.301,0.773,0.657,1.936,0.755,4.076
				c0.105,2.313,0.128,3.008,0.128,8.868c0,5.861-0.022,6.554-0.128,8.867c-0.098,2.143-0.454,3.305-0.755,4.076
				c-0.398,1.025-0.874,1.756-1.642,2.525c-0.768,0.768-1.499,1.242-2.523,1.641c-0.773,0.301-1.936,0.658-4.076,0.756
				c-2.313,0.104-3.007,0.127-8.868,0.127c-5.861,0-6.554-0.023-8.869-0.127c-2.139-0.098-3.302-0.455-4.075-0.756
				c-1.024-0.398-1.756-0.873-2.524-1.641c-0.767-0.77-1.243-1.5-1.641-2.525c-0.3-0.771-0.658-1.934-0.756-4.076
				c-0.106-2.312-0.128-3.006-0.128-8.867c0-5.86,0.022-6.555,0.128-8.868c0.098-2.14,0.456-3.302,0.756-4.076
				c0.398-1.025,0.874-1.756,1.641-2.523c0.769-0.768,1.5-1.244,2.524-1.642c0.773-0.301,1.936-0.659,4.075-0.755
				C237.946,217.03,238.64,217.008,244.5,217.008 M244.5,213.053c-5.96,0-6.708,0.025-9.049,0.132
				c-2.336,0.107-3.931,0.478-5.328,1.02c-1.442,0.561-2.667,1.312-3.887,2.532c-1.22,1.22-1.97,2.444-2.532,3.888
				c-0.542,1.396-0.914,2.991-1.021,5.327c-0.106,2.341-0.132,3.088-0.132,9.049s0.025,6.708,0.132,9.048
				c0.106,2.336,0.479,3.932,1.021,5.326c0.562,1.445,1.312,2.668,2.532,3.887c1.22,1.223,2.444,1.973,3.887,2.535
				c1.396,0.541,2.992,0.912,5.328,1.02c2.341,0.105,3.089,0.131,9.049,0.131c5.961,0,6.708-0.025,9.049-0.131
				c2.336-0.107,3.932-0.479,5.327-1.02c1.444-0.562,2.667-1.312,3.887-2.535c1.222-1.219,1.972-2.441,2.532-3.887
				c0.543-1.395,0.914-2.99,1.02-5.326c0.106-2.34,0.133-3.088,0.133-9.048s-0.026-6.708-0.133-9.049
				c-0.105-2.336-0.477-3.932-1.02-5.327c-0.561-1.444-1.311-2.667-2.532-3.888c-1.22-1.22-2.442-1.971-3.887-2.532
				c-1.396-0.542-2.991-0.913-5.327-1.02C251.208,213.078,250.461,213.053,244.5,213.053z"/>
		</g>
	</g>
	<path fill="#FFFFFF" d="M244.5,223.73c-6.225,0-11.27,5.046-11.27,11.271s5.045,11.269,11.27,11.269
		c6.224,0,11.271-5.045,11.271-11.269S250.724,223.73,244.5,223.73 M244.5,242.314c-4.041,0-7.315-3.274-7.315-7.314
		c0-4.04,3.275-7.316,7.315-7.316c4.04,0,7.316,3.276,7.316,7.316C251.816,239.04,248.54,242.314,244.5,242.314z"/>
	<path fill="#FFFFFF" d="M258.85,223.285c0,1.455-1.179,2.634-2.634,2.634s-2.634-1.179-2.634-2.634
		c0-1.454,1.179-2.633,2.634-2.633S258.85,221.831,258.85,223.285"/>
</g>
</svg>
