<?xml version="1.0" encoding="utf-8"?>
<!-- Generator: Adobe Illustrator 16.0.0, SVG Export Plug-In . SVG Version: 6.00 Build 0)  -->
<!DOCTYPE svg PUBLIC "-//W3C//DTD SVG 1.1//EN" "http://www.w3.org/Graphics/SVG/1.1/DTD/svg11.dtd">
<svg version="1.1" id="Calque_1" xmlns="http://www.w3.org/2000/svg" xmlns:xlink="http://www.w3.org/1999/xlink" x="0px" y="0px"
	 width="64px" height="67px" viewBox="212.5 201.5 64 67" enable-background="new 212.5 201.5 64 67" xml:space="preserve">
<g>
	<path fill="#1877F2" d="M269.985,235c0-14.075-11.41-25.485-25.485-25.485s-25.485,11.41-25.485,25.485
		c0,12.726,9.329,23.273,21.521,25.177v-17.814h-6.514V235h6.514l0.002-5.616c0-6.386,3.784-9.928,9.606-9.928
		c2.788,0,5.683,0.536,5.683,0.536v6.229h-3.192c-3.165,0-4.177,1.982-4.177,3.998l0.007,4.78h7.077l-1.131,7.362h-5.946v17.815
		C260.655,258.273,269.985,247.727,269.985,235"/>
	<path fill="#FFFFFF" d="M254.402,242.362l1.132-7.362h-7.079l-0.006-4.781c0-2.015,1.012-3.997,4.178-3.997h3.191v-6.229
		c0,0-2.895-0.538-5.683-0.538c-5.821,0-9.605,3.543-9.605,9.931L240.528,235h-6.515v7.362h6.515v17.814
		c1.289,0.203,2.614,0.308,3.963,0.308c1.348,0,2.672-0.104,3.964-0.308v-17.814H254.402z"/>
</g>
</svg>
