<?xml version="1.0" encoding="utf-8"?>
<!-- Generator: Adobe Illustrator 16.0.0, SVG Export Plug-In . SVG Version: 6.00 Build 0)  -->
<!DOCTYPE svg PUBLIC "-//W3C//DTD SVG 1.1//EN" "http://www.w3.org/Graphics/SVG/1.1/DTD/svg11.dtd">
<svg version="1.1" id="Calque_1" xmlns="http://www.w3.org/2000/svg" xmlns:xlink="http://www.w3.org/1999/xlink" x="0px" y="0px"
	 width="451.047px" height="200.728px" viewBox="0 0 451.047 200.728" enable-background="new 0 0 451.047 200.728"
	 xml:space="preserve">
<g>
	<path fill="#428680" d="M33.999,137.229L33.999,137.229L33.999,137.229L33.999,137.229z M40.143,142.817L40.143,142.817
		L40.143,142.817L40.143,142.817L40.143,142.817z M49.198,142.3h-0.002v-0.004L49.198,142.3z M56.181,145.317
		c-0.007,0.002-0.007,0.002-0.013,0.006c-0.006-0.004-0.006-0.008-0.01-0.01C56.168,145.315,56.174,145.317,56.181,145.317z
		 M66.012,141.651c-0.006,0-0.009,0-0.012,0c0.003,0,0.006,0,0.008,0C66.012,141.651,66.012,141.651,66.012,141.651z
		 M72.338,142.815c0,0,0,0-0.004,0l0.004-0.002V142.815z M24.027,125.153c-0.034,0-0.066-0.004-0.104-0.008
		c0.033-0.004,0.066-0.01,0.098-0.018C24.024,125.142,24.024,125.144,24.027,125.153z M14.813,122.862
		c-0.003,0-0.01,0.01-0.016,0.014c-0.005-0.008-0.01-0.014-0.021-0.018C14.792,122.858,14.803,122.862,14.813,122.862z
		 M48.208,90.531L48.208,90.531L48.208,90.531c-0.004,0-0.006,0-0.006,0H48.208z M50.46,90.156
		c-0.001,0.002-0.001,0.002-0.003,0.002l0,0L50.46,90.156z M75.157,94.74c-0.012,0.006-0.028,0.01-0.037,0.014
		c0.004-0.004,0.004-0.008,0.009-0.01S75.145,94.742,75.157,94.74z M103.958,112.864c0-0.004,0.002-0.004,0.002-0.004
		s0.004,0,0.004,0.004H103.958z M87.143,88.268c-0.018-0.004-0.035-0.012-0.059-0.012c0.02-0.002,0.03-0.006,0.043-0.006
		C87.134,88.254,87.137,88.262,87.143,88.268z M114.389,149.022c0.016,0.008,0.035,0.018,0.061,0.025
		c0.133,0.02,0.266,0.012,0.398,0.012c-0.043,0.027-0.128,0.008-0.194,0.021c-0.528,0.104-0.077,0.221-0.029,0.334
		c-0.237,0-0.353-0.137-0.617-0.094c-0.328-0.076-0.58-0.057-0.765,0.059c-0.076-0.072-0.164-0.141-0.453-0.119
		c-0.016,0.004-0.035,0.014-0.055,0.021c0,0,0,0,0-0.008h-0.004c0.023-0.01,0.047-0.014,0.07-0.021
		c-0.002-0.014-0.008-0.031-0.008-0.043c-0.002-0.064-0.524-0.053-0.295-0.154c0.029-0.002,0.055-0.002,0.084-0.002
		C113.185,149.044,113.788,149.032,114.389,149.022z M117.046,146.7v0.006c-0.006,0-0.006,0-0.01-0.004
		C117.041,146.7,117.046,146.7,117.046,146.7z M120.909,147.981c0,0,0,0,0-0.002l0,0
		C120.909,147.981,120.909,147.981,120.909,147.981z M424.047,98.396L424.047,98.396L424.047,98.396L424.047,98.396z
		 M392.066,94.766L392.066,94.766L392.066,94.766L392.066,94.766z M257.848,152.044l0.006-0.004l0,0L257.848,152.044z
		 M413.229,124.606l-0.404-0.086l0,0c-0.152-0.078-0.365-0.148-0.58-0.111c-0.387,0.066-0.5,0-0.701-0.135l-1.559-0.561
		c0.102-0.012,0.178-0.051,0.264-0.08c1.021-0.086,2.037-0.172,3.088-0.137l3.133-0.396c0.521-0.051,1.113,0.012,1.668,0.018
		c0.943,0.014,1.891,0.039,2.648-0.283c0.146-0.062,0.311-0.045,0.477-0.049l-2.775-0.678c-0.619,0.055-1.232,0.072-1.855,0.02
		c-0.516-0.039-0.975,0.014-1.467,0.113c0,0-1.83,0.518-2.133,0.49c-0.303-0.025-0.303-0.02-0.303-0.02
		c-0.088-0.012-0.178-0.025-0.266-0.053c-0.434-0.094-0.812-0.041-1.166,0.086c-0.053,0.016-0.096,0.027-0.152,0.041
		c-0.242,0.008-0.486,0.021-0.732,0.033l0.111-0.357c0.68-0.189,1.398-0.158,2.129-0.121l1.363-0.502
		c0.117-0.016,0.23-0.039,0.336-0.068c0.023,0,0.043,0.004,0.064,0.006c0.648,0.109,1.287-0.092,1.93-0.027h0.004
		c0.836,0.195,2.5-0.236,3.27-0.4l0.242-0.021l0.471,0.363c1.75-0.018,3.473-0.166,5.217-0.191l0,0l0,0
		c0.701,0.109,1.373,0.154,2.039-0.066c0.164-0.053,0.367,0.02,0.545,0.051c0.125-0.191,0.654-0.09,0.857-0.234
		c0.113-0.02,0.223-0.047,0.342-0.074c0.453-0.002,0.908-0.006,1.367-0.008c0.502,0.109,0.848-0.086,1.348-0.115
		c-0.219-0.17,0.062-0.381,0.617-0.338c0.24,0.021,0.479,0.061,0.732,0.053c0.078-0.002,0.16-0.016,0.244-0.027
		c-0.586-0.412,1.07-0.248,0.797-0.586c0.076-0.127-0.006-0.23-0.344-0.188c-0.293,0.041-0.525,0.006-0.775-0.031l0,0
		c-0.238-0.096-0.156-0.156,0.127-0.158c0.447-0.01,0.906-0.029,1.35-0.01c1.621,0.074,3.25,0.039,4.855,0.002
		c0.812-0.027,1.693-0.16,2.645-0.234c-0.391-0.246-0.934-0.109-1.303-0.221c-0.311-0.084-0.439-0.143-0.059-0.244l0,0
		c0.459-0.15,0.924-0.303,1.385-0.449c0.312-0.057,0.406-0.254,0.814-0.254c0.055-0.002,0.109,0.006,0.166,0.006l0,0
		c0.623-0.002,1.188-0.057,1.639-0.273c0.121-0.059,0.279-0.098,0.25-0.182c-0.096-0.279,0.207-0.254,0.656-0.193
		c0.496,0.064,0.504,0.051,0.559-0.275c0.598,0.316,1.064,0.049,1.605-0.027c0.219-0.027,0.314,0.037,1.492-0.258
		c-0.01-0.016-0.035-0.025-0.047-0.039l0,0c0.012,0.014,0.029,0.023,0.047,0.039c0.686,0.24,1.326-0.002,1.916-0.092
		c0.588-0.09,0.477-0.297-0.242-0.545c-0.281-0.143-0.227-1.324-0.307-1.488c-0.205-0.385-1.062-0.561-1.805-0.32
		c-0.295,0.098-0.502,0.24-0.9,0.09c-0.016-0.006-0.07-0.01-0.078-0.002c-0.514,0.377-1.018,0.037-1.525,0.004
		c-0.486,0.148-0.658-0.148-1.045-0.135c-0.059-0.021-0.113-0.049-0.166-0.074c-0.439-0.18-1.027-0.16-1.559-0.213
		c-0.275-0.08-0.477-0.201-0.818-0.238c-0.035-0.16,0.045-0.291,0.439-0.355c0.158-0.025,0.229-0.076,0.135-0.146
		c-0.109-0.07-0.256-0.055-0.334,0.01c-0.145,0.105-0.305,0.074-0.5,0.041c-0.43-0.076-0.82-0.248-1.277,0.055
		c-0.189,0.119-0.807-0.031-1.146-0.125c-0.695-0.193-2.936-0.244-2.98-0.107c-1.352-0.207-2.791-0.139-4.184-0.209
		c-0.227-0.014-0.371,0.051-0.551,0.064c-0.299,0.016-0.609,0.102-0.787-0.135c-0.146-0.191-0.729-0.189-1.154-0.24l0,0
		c-0.373-0.082-0.74-0.162-1.131-0.242c0.129-0.062,0.217-0.139,0.354-0.16c0.564-0.092,0.809-0.223,0.516-0.484
		c-0.088-0.078,0.168-0.082,0.258-0.123c0.736,0.016,1.1-0.34,1.805-0.367c0.1-0.006,0.23-0.133,0.146-0.145
		c-0.664-0.115-0.635-0.496-1.268-0.607c-0.23-0.379-0.725-1.619-1.707-1.588c-0.354-0.133-0.652-0.299-1.189-0.291
		c-0.176-0.051-0.35-0.1-0.521-0.15c-0.107-0.094-0.545-0.039-0.504-0.207c0.299-0.092,0.961-0.094,0.523-0.377
		c0.668-0.062,1.334-0.125,1.994-0.186c0.236,0.025,0.473,0.057,0.707,0.084c0.596,0.117,1.191,0.088,1.736-0.057
		c0.43-0.105,0.859-0.178,1.346-0.191c0.734-0.131,1.555-0.1,2.23-0.396c0.139-0.062,0.348-0.15,0.605-0.221
		c0.139-0.025,0.275-0.049,0.418-0.074c0.182-0.023,0.381-0.029,0.592-0.006c0.369,0.035,0.588-0.148,0.902-0.219
		c0.057-0.008,0.113-0.012,0.17-0.025c0.062-0.004,0.129-0.004,0.197,0.006c0.688,0.186,0.697,0.186,0.758-0.125
		c0.025-0.131,0.279-0.123,0.428-0.135c1.119-0.092,2.205-0.213,3.297-0.35c0.314-0.039,0.791-0.113,1.039,0.115
		c0.084,0.09,0.227,0.035,0.281-0.033c0.115-0.135,0.322-0.137,0.537-0.064c0.504,0.162,0.754-0.008,1.074-0.137
		c-0.135-0.113-0.613-0.047-0.568-0.229c0.096-0.416-0.615-0.369-1.18-0.369c-0.326,0.002-0.48-0.039-0.35-0.17
		c0.102-0.109,0.242-0.199-0.035-0.324c-0.314,0.18-0.688,0.33-1.166,0.412c-0.268-0.408-0.883,0.105-2.322,0.088
		c0,0-0.443-0.061-0.664-0.086c-0.309-0.268-1.098-1.221-1.826-0.947l0,0c-0.148-0.004-0.279,0.012-0.375,0.064
		c-0.668,0.004-0.432,0.225-0.479,0.385l0,0c-0.4,0.027-0.797,0.059-1.195,0.084c-0.223-0.127-0.426-0.023-0.637,0.018
		c-0.525-0.021-0.537,0.197-0.752,0.314c-0.17-0.014-0.152-0.08-0.156-0.113c0.004-0.193,0.539-0.434-0.209-0.543
		c-0.455-0.072-0.91-0.168-1.443-0.115c-0.299,0.031-0.619,0.018-0.922,0.023c-0.115,0.09-0.834,0.061-0.297,0.275
		c-0.111,0.156,0.549,0.203,0.273,0.375l0,0c-0.518,0.1-0.25-0.193-0.652-0.248c-0.564-0.074-0.797,0.664-1.404,0.688
		c-0.111,0-0.215-0.973-0.326-0.963c-0.264,0.002-0.537-0.012-0.807-0.004c-0.295,0.012-0.301-0.055-0.242-0.145
		c0.121-0.098,0.084-0.193,0.02-0.287c-0.188-0.135-0.568-0.133-0.85-0.197c-0.391-0.09-0.561,0.037-0.486,0.215
		c-0.205,0.156-0.689-0.023-0.887,0.143c-0.111,0.002-0.227,0.002-0.332,0c-0.125-0.266-0.66-0.379-1.098-0.498
		c-0.348-0.092-1.113-0.424-1.377-0.391c-0.334,0.035-0.703,0.279-0.703,0.279c-0.672,0.57-1.887,0.355-2.02,0.012
		c0.162-0.002,0.367,0.031,0.449-0.045c0.053-0.057-0.098-0.111-0.232-0.129c-0.182-0.023-0.375-0.037-0.562-0.055
		c-0.623-0.27-2.773,0.348-3.252,0.336c-0.104-0.004,0.137-0.053,0.143-0.082c0.072-0.178-0.635,0.559-1.096,0.561l-0.387-0.066
		c-0.484-0.084-0.717-0.494-1.217-0.627c-0.088-0.029-0.201-0.082-0.266-0.072l-0.914-0.049c-0.223,0.104-0.416,0.078-0.592,0.006
		c-0.57-0.23-0.816-0.91-1.449-0.797c-0.271-0.139-0.555-0.01-0.826,0c-0.49-0.002-0.506,0.135-0.504,0.324
		c0.252-0.037,0.463-0.072,0.674-0.104l0.012-0.004c0.004,0.023,0.012,0.049,0.012,0.076l0,0l0,0
		c-0.311,0.094-1.637,0.486-1.887,0.412c-0.221-0.07-0.441-0.078-0.674-0.105c0.096-0.248,0.592-0.461,0.305-0.73
		c-0.326-0.002-0.654-0.004-0.979,0c-0.896,0.012-1.48-0.719-2.348-0.602c-0.238,0.033-0.186-0.123-0.236-0.199
		c-0.033-0.057-0.158-0.107-0.031-0.162c0.129-0.061,0.244-0.002,0.365,0.014c0,0,0.518,0.018,0.838-0.07
		c0.154-0.035,0.32-0.094,0.217-0.168c-0.225-0.154-0.598-0.16-0.969-0.137c-0.479,0.166-0.844-0.016-1.201-0.094
		c-0.221-0.049,0.176-0.123,0.15-0.21c0.014-0.018,0.021-0.035,0.025-0.055c0.76-0.008,1.48-0.051,2.225-0.176
		c0.951-0.154,2.104-0.01,3.254,0.047c-0.445-0.125,1.979-0.531,3.775-0.51l0.553,0.24c0.35-0.041,0.725-0.043,1.025-0.152
		l0.438-0.098c0,0,0.668,0.268,0.803,0.357c0.133,0.088,2.76,0.336,2.736,0.148l0,0c0.57-0.111,1.482-0.215,1.729,0.059
		c-0.15,0.061-0.354,0.102-0.402,0.203c-0.029,0.07,0.129,0.068,0.264,0.037c0.178-0.043,0.363-0.098,0.543-0.148
		c0.68,0.029,1.865-0.166,1.865-0.166c1.053,0.111,2.123,0.338,3.166,0.311c1.688-0.043,13.164,0.238,16.162,0.708
		c1.1,0.17,2.254-0.708,3.482-0.771c0.123-0.137-0.07-0.154-0.211-0.189c-1.064-0.258-2.223-0.395-3.416-0.479
		c-0.271-0.02-0.578,0.027-0.812-0.068c-0.006-0.033,0.018-0.08-0.029-0.107c-0.285-0.162-1.961-0.4-3.018-0.473
		c-0.209-0.018-0.42-0.031-0.641-0.014c-0.035,0.008-0.07,0.008-0.098,0.012c-0.256,0.01-0.521,0.029-0.727-0.059
		c-0.641-0.287-1.496-0.311-2.328-0.363l0,0c-1.23-0.552-2.783-0.373-4.271-0.343l0,0l0,0c0.041-0.074,0.23-0.209-0.072-0.201
		c-0.803,0.02-1.539-0.109-2.309-0.139c-0.059-0.002-0.129,0.041-0.193,0.062c-0.266-0.15-0.508-0.277-1.043-0.184
		c-0.395,0.076-0.578-0.211-1.016-0.18c-0.145-0.133-0.262-0.258-0.73-0.18c-0.301,0.055-0.654,0.037-0.982,0.053l0,0
		c-0.084-0.1-0.055-0.158,0.244-0.16c0.268-0.002,0.572,0.039,0.785-0.08c0.572-0.061,1.184-1.027,1.73-1.154
		c0.984-0.121,1.975-0.023,2.963-0.031c0.479-0.004,0.949-0.02,1.414-0.146c-0.357-0.182-0.969-0.164-1.318-0.363
		c0.406-0.119,0.871-0.098,1.277-0.09c1.504,0.018,3.014-0.021,4.506,0.086c0.645,0.041,1.301,0.051,1.947-0.025
		c0.219-0.021,0.455-0.023,0.539-0.145c0.322-0.457,1.252-0.527,2.047-0.492c1.254,0.064,2.129-0.297,3.275-0.412
		c-0.242-0.189-0.633-0.18-0.959-0.221c-0.211-0.236-0.092-0.457,0.186-0.668c0.055-0.105,0.023-0.123-0.342-0.166
		c-0.539-0.111-0.998-0.006-1.518,0.07c-0.658,0.094-1.395,0.084-2.096,0.121c-0.828-0.178-1.756-0.178-2.635-0.242
		c-3.477-0.254-6.973-0.451-10.527-0.348c-0.633-0.104-1.234,0.215-1.873,0.033c0-0.127-0.002-0.254-0.008-0.383l0,0
		c0.182-0.002,0.299-0.209,0.514-0.047c0.318,0.256,0.402-0.295,0.791-0.037c0.086,0.061,0.684,0.027,0.383-0.236
		c-0.113-0.107,0.344-0.211,0.58-0.211c1.326,0.016,2.607-0.264,3.91-0.174c0.596,0.041,1.246-0.164,1.807,0.082
		c0.131,0.057,0.359-0.098,0.512-0.162c0.229-0.1-0.133-0.092-0.184-0.145c-0.062-0.064-0.076-0.141-0.105-0.209
		c-0.078-0.174,0.004-0.359-0.732-0.246c-0.541,0.088-0.854-0.162-0.994-0.391c-0.242,0.006-0.402-0.057-0.602-0.1
		c-0.805-0.154-1.445-0.51-2.48-0.404c-0.1-0.156-0.461-0.139-0.709-0.201c0.191-0.166,0.045-0.244-0.328-0.238
		c-0.518,0.008-0.977-0.012-1.412-0.174c-0.314-0.109-26.898-0.549-27.283-0.49l-10.369-0.385c-0.457,0.016-0.367-5.584-0.08-5.305
		c-0.477,0.031-0.25-0.18-0.51-0.219c-0.199,0.156,0.111,0.408-0.551,0.451c-0.014-0.246-0.658-0.285-1.029-0.439
		c0.053-0.074,0.326-0.145,0.025-0.223c0.043-0.016,0.086-0.039,0.137-0.045c0.24-0.049,0.664-0.07,0.506-0.23
		c-0.166-0.168-0.729-0.127-0.881-0.051c-0.4,0.203-0.588,0.148-0.865-0.031c-0.09-0.062-0.477-0.086-0.406,0.041
		c0.113,0.211-0.361,0.361-0.213,0.559c0,0.076,0.002,0.156,0.004,0.232c-0.037,0.172,0.059,0.379-0.627,0.359
		c-0.295-0.004-0.525,0.115-0.586,0.236c-0.094,0.182,0.494,0.129,0.566,0.266c-0.223,0.086-0.355-0.029-0.529-0.035
		c-0.203-0.012-0.402-0.004-0.529,0.084c-0.1,0.072-1.439,0.238-2.09,0.268c-0.314,0.018-0.232-0.109-0.307-0.18
		c-0.09-0.189,0.344-0.203,0.514-0.301c0.217-0.268,0.475-0.529-0.131-0.773c-0.502-0.193-0.424-0.338,0.219-0.408
		c0.297-0.031,0.621-0.016,0.93-0.021c0.016,0.061,0.045,0.121,0.041,0.178c-0.006,0.146,0.174,0.211,0.477,0.18
		c0.354-0.043,0.219-0.135,0.1-0.225c-0.037-0.033,0.049-0.092,0.084-0.137c0.316-0.092,1.238-0.045,0.379-0.391
		c-0.32-0.129,0.273-0.254,0.453-0.371c0.395,0.027,0.746-0.287,1.176-0.039c0.049,0.029,0.172-0.041,0.215-0.092
		c0.045-0.055,0.027-0.1-0.115-0.111c-0.768-0.066-1.537-0.182-2.295,0.029c-0.652,0.227-1.012-0.158-1.57-0.127
		c-0.111-0.027-0.215-0.057-0.324-0.08c-0.465-0.203-1.004-0.115-1.527-0.061c-0.375,0.059-0.801,0.082-1.08,0.232
		c-0.812-0.131-3.197,4.723-3.291,5.145c-0.209,0.086-0.799,0.359-0.703,0.645c-0.738-0.061,0.186,1.27-0.582,1.34
		c-0.369,0.029-0.42-0.129-0.516-0.244c-0.297-0.324-0.918-0.455-1.824-0.385c-0.414,0.092-2.707-1.145-2.172-0.955
		c0.262,0.064-0.648-0.217-0.648-0.217l-4.369,0.004l-137.5,1.166l-64,0.5l-4.25-3.531l-26.825-0.154
		c-2.686,3.441-4.191,3.592-5.567,3.305c-0.646-0.133-0.921-0.088-1.438,0.117c-0.146,0.055-0.328,0.049-0.441-0.002
		c-0.291-0.125-0.686-0.096-1.043-0.086c-1.137,0.027-2.262,0.094-3.407,0.115l-13.573,0.045c-0.268-0.016-0.542,0.014-0.81,0.014
		c-0.412-0.078-0.815,0.02-1.221,0.014c-1.806-0.102-6.526-2.385-6.842-2.355c-0.314-0.039-1.017,0.244-0.905-0.17
		c0.056-0.207-0.605-0.09-0.953-0.111c-0.328-0.02-0.479,0.061-0.626,0.146l0,0c-1.028,0.174-2.153,0.16-3.224,0.246l0,0
		c-0.215-0.107-0.848-0.043-0.715-0.303c0.061-0.115-0.351-0.143-0.678-0.051c-0.472,0.133-0.615,0.311-0.438,0.496
		c0.242,0.244-0.088,0.361-0.596,0.467h-0.002c-0.33-0.102-1.086-0.146-0.096-0.352c0.49-0.1,0.173-0.281-0.372-0.338l-0.009,0.035
		c-0.008-0.002-0.014-0.002-0.023-0.004c0.016-0.004,0.027-0.018,0.032-0.031c-0.64-0.385-1.139-0.408-1.993-0.07
		c-0.324,0.127-0.592,0.176-0.864,0.006c-0.14-0.082-0.239-0.189-0.575-0.164c-0.404,0.035-0.199,0.197-0.373,0.285
		c-0.199,0.098,0.246,0.215-0.119,0.328c-0.436-0.137-0.9-0.248-1.029-0.492c-0.097-0.189-0.154-0.168-0.573-0.01
		c-0.149,0.057-0.491,0.051-0.761,0.074c-0.012-0.131,0.435-0.227,0.092-0.33c-0.398-0.125-0.457,0.078-0.689,0.107
		c-0.869,0.121-1.795,0.127-2.699,0.168c-0.034,0-0.086-0.002-0.094-0.01c-0.621-0.502-1.263,6.98-1.951,7.076l0,0
		c-0.388-0.074-0.703-0.012-1.018,0.072c-0.84,0.211-1.393,0.127-1.473-0.25c-0.062-0.283-0.638-0.113-0.999-0.15l0,0
		c-0.979,0.287-2.2,0.199-3.308,0.301h0.001c-0.228,0.049-0.45,0.109-0.687,0.15c-0.119,0.023-0.361,0.094-0.396-0.004
		c-0.139-0.357-0.865-0.141-1.33-0.18c-0.264,0.045-0.167,0.137-0.215,0.209c-0.688-0.457-2.848,0.891-2.848,0.891L62.603,93
		c-1.372,0.031-2.808-3.592-4.179-3.693c-0.709-0.061-1.746-0.086-2.534,0.107c-0.476,0.119-0.997,0.088-1.488,0.074
		c-2.534-0.072-5.069-0.109-7.61-0.127c-2.566-0.016-5.143,0.045-7.691-0.086c-0.037-0.004-3.096-0.156-4.661-0.197
		c-0.376-0.01-0.896,0.102-1.188,0.01c-0.117-0.037-4.602,0.082-5.084,0.088c-1.43,0.02-8.504,0.289-10.254,0.502
		c-0.026,0.002-8.428-0.105-8.503-0.1c-1.719,0.148-3.951,0.441-4.524,0.293c0,0-1.293-0.176-0.525,0.807l-0.356-0.395
		c-0.155,0.053,0.07,0.508-0.108,0.537c-0.317,0.049-0.74,0.102-0.657,0.234c0.096,0.145,0.925,1.297,1.229,1.326
		c0.021,0.02,0.031,0.039,0.04,0.059l0,0l0,0c-0.03,0.141-0.288,0.098-0.518,0.094c-0.317-0.016-0.543,0.035-0.497,0.168
		c0.053,0.141,0.36,0.146,0.619,0.107c0.755-0.105,1.386-0.064,2.123,0.182c-0.605-0.016-0.938-0.123-1.352-0.098
		c-0.232,0.018-0.507,0.002-0.561,0.117c-0.042,0.105-0.163,0.262,0.163,0.301c0.692,0.082,1.227,0.361,2.097,0.238
		c0.366-0.215,0.822-0.27,1.533-0.217c0.65,0.041,3.432-0.125,3.855,0.18c0.457-0.07,0.191-0.342,0.451-0.301
		c0.591,0.098-0.965-0.1-0.459-0.043c0.164,0.018,0.424,0.111,0.396,0.146c-0.255,0.35-4.745,0.209-4.375,0.129
		c0.181-0.039,0.361-0.109,0.538-0.047c0.711,0.244,3.683,0.129,4.497,0.229c0.989,0.127,1.875-0.16,2.851-0.164
		c0.057,0.002,0.121,0.002,0.181,0.004l-0.004,0.006c-0.011,0.383-0.811,0.639-1.228,0.959c-0.107,0.08-0.451,0.119-0.438,0.238
		c-0.351-0.01-0.645,0.055-0.954,0.1c-0.45-0.018-0.936-0.033-1.048,0.188c-0.095,0.197,0.311,0.24,0.73,0.285
		c0.316,0.035,0.762,0.082,0.761,0.213c-0.011,0.301,0.493,0.199,0.888,0.166c0.299-0.021,0.684-0.098,0.733,0.062
		c0.033,0.098-0.212,0.271-0.603,0.254c-1.008-0.035-0.896,0.213-0.895,0.43c-0.004,0.525,0.229,1.014,2.085,1.162
		c-1.214,0.15-1.659,0.422-1.413,0.828c-0.102,0.207,0.248,0.254,0.697,0.273c0.836,0.043,1.619-0.301,1.521,0.123
		c-0.035,0.145,0.354,0.225,0.661,0.301c0.296,0.172,0.659,0.298,0.113,0.556c-0.462,0.225,0.833,0.775,1.749,0.766
		c1.566-0.012,7.499-0.109,9.055-0.186c0.977-0.045,1.633,0.471,2.207,0.701c0.182,0.07,0.316,0.141,0.584,0.184
		c0.721,0.117-0.205,0.404-0.057,0.478c-1.406,0.186-2.482,0.186-3.887,0.188c-0.924,0.002-6.18,0.133-7.085,0.225
		c-0.792,0.076-1.704-0.016-2.574-0.053c-0.399-0.014-1.123-0.279-1.527-0.266c-0.445,0.02-0.681,0.057-0.378,0.262
		c0.186,0.129,0.243,0.369,0.035,0.477c-0.636,0.328-0.32,0.477,0.532,0.596c0.178,0.025,0.526,0.055,0.366,0.178
		c-0.118,0.096-0.228,0.182-0.668,0.168c-0.663-0.016-0.682,0.104-0.622,0.352c0.153,0.592,1.388,1.055,1.226,1.674
		c-0.07,0.262,0.535,0.475,0.51,0.746c-1.02-0.221-1.136-0.186-1.247,0.244c-0.052,0.219,0.351,0.217,0.698,0.223
		c0.883,0.018,0.971,0.191,0.555,0.41c-0.449,0.238-0.232,0.328,0.391,0.434c0.41,0.07,0.724,0.213,1.076,0.332
		c1.347,0.447,3.012,0.723,4.551,1.066c0.256,0.059,0.552,0.094,0.793,0.158c1.405,0.375,1.4,0.383,3.111,0.373
		c0.428-0.002,0.885,0.002,1.162,0.09c1.084,0.354,2.503,0.463,3.723,0.717c0,0.316,0.604,0.465,1.17,0.623
		c0.053,0.039,0.16,0.07,0.314,0.096c0.224,0.068,0.489,0.09,0.771,0.09c0.061,0.174-1.899,0.355-2.307,0.609
		c-0.202,0.123-0.254,0.289-0.047,0.391c0.411,0.205,0.862,0.365,0.114,0.611c-0.184,0.055,0.186,0.17,0.383,0.158
		c1.868-0.08,0.809,0.842,2.687,0.709c0.165-0.012,0.335-0.01,0.505-0.018l1.623,0.217c0.754-0.074,0.474-0.311,0.467-0.494
		c0.535-0.059,0.683,0.111,0.947,0.211c0.408,0.156,0.83,0.252,1.354,0.047c-0.251-0.156-0.864-0.105-1.068-0.303
		c0.336-0.043,0.661-0.09,0.988-0.139c0.376-0.094,0.84-0.096,1.168-0.293c0.231-0.137,1.158-0.127,1.69,0.057
		c0,0.049,0,0.1-0.003,0.148c-0.473,0.008-0.694,0.146-0.922,0.262c-0.147,0.074-0.067,0.27,0.107,0.234
		c0.833-0.195,1.711,0.17,2.481-0.074l0,0c0.127,0.004,0.251,0.004,0.371,0.01c0.66,0.012,1.303-0.184,2.014,0.027
		c0.301,0.09,0.758-0.111,1.11-0.203c0.297-0.08,0.798-0.283,0.798-0.283l0.776,0.713c-0.261,0.092-0.478,0.549-0.652,0.686
		c-0.173,0.137-0.739,0.729-0.739,0.729l-3.131,0.09c-0.629,0.057-1.333-0.01-2.002-0.014c-1.131-0.014-2.265-0.035-3.175,0.287
		c-0.175,0.064-0.374,0.045-0.566,0.047c-0.752,0.023-1.499,0.037-2.243,0.055c0,0-0.422,0.246-0.686,0.314l-0.325,0.172
		c-0.132,0.07-0.341,0.133-0.341,0.133c-2.097,0.021-1.244,0.08-3.334,0.111l0,0l0,0c-0.838-0.111-1.283-0.078-2.08,0.143
		c-0.2,0.057-0.944-0.805-1.157-0.834c-0.149,0.189-0.661,0.773-0.9,0.91c-0.133,0.023-0.272,0.051-0.411,0.076
		c-0.546,0.004-1.09,0.006-1.637,0.014c-0.604-0.109-1.021,0.084-1.621,0.113c0.264,0.174,0.603,0.209,1.021,0.186
		c0.061,0.006,0.126,0.004,0.182,0.008c-0.568,0.195-1.275,0.189-1.943,0.146c-0.285-0.02-0.574-0.055-0.875-0.051
		c-0.096,0-0.195,0.016-0.29,0.027c0.699,0.41-1.288,0.252-0.958,0.584c-0.096,0.131,0.009,0.236,0.411,0.188
		c0.352-0.039-0.312,0.221-0.847,0.201c-1.939-0.066-3.896-0.035-5.819,0.008c-0.973,0.025-2.03,0.164-3.163,0.244
		c0.46,0.238,1.113,0.105,1.556,0.211c0.366,0.09,0.528,0.143,0.072,0.248h-0.008c-0.55,0.15-1.104,0.301-1.66,0.455
		c-0.378,0.055-0.485,0.25-0.978,0.252c-0.064-0.004-0.133-0.006-0.199-0.008l0,0c-0.743,0.006-1.426,0.059-1.966,0.273
		c-0.138,0.059-0.33,0.098-0.294,0.182c0.109,0.277-0.254,0.258-0.789,0.197c-0.598-0.066-0.61-0.051-0.671,0.279
		c-0.716-0.318-1.274-0.049-1.929,0.023c-0.26,0.029-0.377-0.031-1.786,0.266c0.013,0.016,0.04,0.023,0.062,0.033
		c-0.002,0-0.002,0-0.002,0c-0.02-0.01-0.041-0.023-0.06-0.033c-0.823-0.25-1.595,0-2.297,0.09c-0.706,0.092-0.572,0.303,0.29,0.547
		c0.334,0.139,0.271,0.324,0.368,0.48c0.245,0.393,1.271,0.564,2.165,0.322c0.352-0.096,0.604-0.24,1.072-0.086
		c0.018,0.002,0.087,0.002,0.094,0c0.624-0.379,1.225-0.039,1.832-0.01l0,0c0.58-0.146,0.794,0.148,1.255,0.135
		c0.067,0.025,0.13,0.047,0.199,0.07c0.521,0.184,1.234,0.158,1.864,0.213c0.334,0.08,0.574,0.205,0.986,0.24
		c0.039,0.16-0.059,0.289-0.533,0.352c-0.18,0.027-0.266,0.082-0.151,0.148c0.121,0.07,0.303,0.055,0.397-0.006
		c0.167-0.109,0.36-0.078,0.592-0.041c0.523,0.074,0.984,0.244,1.541-0.059c0.215-0.119,0.962,0.027,1.367,0.121
		c0.84,0.199,1.743,0.219,2.686,0.191c0.27-0.008,0.836,0.045,0.887-0.088c1.623,0.203,3.346,0.133,5.023,0.205
		c0.271,0.01,0.443-0.053,0.662-0.066c0.352-0.018,0.727-0.105,0.938,0.129c0.176,0.197,0.877,0.193,1.386,0.246
		c0.447,0.078,0.886,0.156,1.352,0.238c-0.149,0.059-0.255,0.137-0.424,0.162c-0.673,0.088-0.965,0.223-0.616,0.48
		c0.099,0.08-0.205,0.082-0.313,0.127c-0.884-0.02-1.315,0.34-2.155,0.365c-0.123,0.006-0.285,0.137-0.179,0.15
		c0.79,0.111,0.755,0.488,1.513,0.602c0.281,0.381,0.873,0.619,2.05,0.588c0.426,0.131,0.785,0.299,1.425,0.293
		c0.213,0.045,0.416,0.098,0.625,0.146c0.135,0.092,0.658,0.035,0.607,0.201c-0.357,0.096-1.15,0.098-0.633,0.383
		c-0.796,0.062-1.59,0.125-2.385,0.193c-0.281-0.035-0.566-0.061-0.848-0.094c-0.719-0.119-1.437-0.082-2.089,0.059
		c-0.513,0.111-1.032,0.182-1.612,0.199c-0.88,0.129-1.865,0.102-2.671,0.4c-0.174,0.062-0.421,0.15-0.731,0.217
		c-0.162,0.029-0.332,0.055-0.497,0.076c-0.22,0.023-0.46,0.029-0.714,0.01c-0.439-0.033-0.701,0.148-1.075,0.219
		c-0.067,0.008-0.138,0.014-0.208,0.025c-0.074,0-0.156,0.002-0.241-0.006c-0.818-0.186-0.833-0.186-0.904,0.127
		c-0.028,0.131-0.331,0.127-0.515,0.137c-1.334,0.092-2.646,0.215-3.953,0.352c-0.375,0.043-0.95,0.117-1.24-0.115
		c-0.105-0.084-0.275-0.025-0.344,0.037c-0.141,0.135-0.38,0.137-0.641,0.066c-0.602-0.164-0.908,0.008-1.292,0.135
		c0.165,0.117,0.739,0.047,0.685,0.23c-0.123,0.416,0.728,0.369,1.414,0.363c0.387,0.006,0.572,0.045,0.42,0.174
		c-0.123,0.107-0.299,0.197,0.039,0.326c0.381-0.186,0.824-0.334,1.393-0.418c0.32,0.406,1.592,0.676,3.32,0.693l0,0
		c0.263,0.021,0.531,0.055,0.797,0.076c0.369,0.268,0.784,0.48,1.664,0.209l0,0c0.176-0.002,0.322-0.016,0.442-0.066
		c0.801-0.01,0.521-0.23,0.575-0.385l0,0c0.477-0.031,0.955-0.061,1.433-0.09c0.267,0.127,0.514,0.021,0.763-0.018
		c0.635,0.023,0.644-0.201,0.903-0.318c0.204,0.018,0.182,0.084,0.183,0.119c-0.002,0.188-0.639,0.434,0.254,0.537
		c0.547,0.07,1.094,0.17,1.732,0.111c0.354-0.031,0.739-0.018,1.107-0.023c0.133-0.09,0.992-0.055,0.351-0.273
		c0.133-0.158-0.655-0.199-0.329-0.377l0,0c0.631-0.1,0.301,0.193,0.79,0.25c0.669,0.072,1.391,0.18,2.019,0.359
		c0.704,0.188,1.359-0.15,2.09-0.174c0.131-0.006,0.257-0.025,0.389-0.041c0.319,0,0.647,0.014,0.967,0
		c0.354-0.006,0.365,0.061,0.291,0.152c-0.145,0.098-0.098,0.188-0.02,0.283c0.224,0.139,0.678,0.131,1.017,0.201
		c0.469,0.084,0.669-0.041,0.583-0.219c0.246-0.16,1.953-0.623,2.197-0.789c0.129,0,0.263-0.002,0.398-0.004
		c0.145,0.268,0.789,0.383,1.315,0.498l0.573,0.053c0.119,0.107,0.377,0.316,0.13,0.574l0,0l0,0
		c-0.433,0.193-1.202-0.02-1.628,0.186c-0.568,0.037-0.568,0.037-0.412,0.389c-0.192-0.006-0.441-0.035-0.532,0.041
		c-0.067,0.055,0.109,0.107,0.271,0.127c0.223,0.025,0.448,0.037,0.672,0.057c0.752,0.264,1.637,0.1,2.404,0.037
		c0.732-0.053,0.934,0.211,1.51,0.223c0.119,0-0.173,0.055-0.182,0.08c-0.083,0.178-0.799,0.236-0.645,0.453l0,0
		c-0.082,0.434,1.174,0.27,1.674,0.463c0.203,0.076,0.896-0.096,1.143-0.309c0.283,0.154,0.529,0.295,0.792,0.439
		c-0.47,0.078,0.499,0.066,0.622-0.064c0,0,2.199-0.32,2.859-0.23c1.408,0.193,1.627,0.186,2.512-0.203l0.365-0.084
		c0.461,0.133,1.305,0.045,1.795,0.268c0.102,0.045,0.238-0.045,0.326-0.104c0.285-0.18,1.117,0.164,1.638,0.053
		c0.442-0.094,0.298-0.561,0.93-0.564c0.414-0.01,0.913-0.029,1.194,0.033c0.771,0.041,3.857,0.496,4.002,0.117
		c0.387,0.061,0.073-0.32,0.646-0.137c-0.189,0.164,2.149,0.385,3.162,0.357c0.506-0.012,0.903,0.15,0.725,0.391
		c-0.104,0.137,0.254,0.182,0.475,0.254l1.395,0.043l0.518-0.129l0.396-0.041c0.323-0.184,0.752-0.1,1.046-0.027
		c0.267,0.068-0.601,0.719-0.325,0.748c-0.114,0.246-0.708,0.461-0.36,0.732c0.393,0,0.779-0.004,1.172-0.006
		c1.006-0.008,2.103-0.195,3.127-0.307c0.288-0.035,0.22,0.121,0.279,0.193c0.044,0.055,0.191,0.111,0.044,0.166
		c-0.159,0.059-0.19,0.26-0.338,0.242h-0.347c-0.214-0.15-0.3,0.158-0.688,0.244c-0.188,0.035,0.35,0.07,0.799,0.045
		c0.575-0.162,1.012,0.018,1.439,0.094c0.265,0.045-0.209,0.125-0.18,0.211c-0.015,0.016-0.023,0.037-0.029,0.057
		c-0.911,0.006-1.778,0.051-2.672,0.174c-1.135,0.16-2.369,0.234-3.749,0.18c0.535,0.123,1.104,0.338,0.835,0.5
		c-2.162-0.068-3.703-0.238-5.851-0.252c-1.28-0.084-6.4-0.182-7.689-0.248c-0.343-0.018-0.722,0.043-1.086,0.07
		c-0.124,0-0.245-0.006-0.364-0.006l-4.141,0.17c-1.775,0.371-3.652,0.197-5.447,0.074c-1.232-0.08-2.488-0.07-3.709-0.166
		c-1.266-0.109-2.545-0.34-3.799-0.307c-2.094,0.051-3.984-0.227-5.984-0.299l-6.634,0.279l0,0c1.468,0.555,3.336,0.369,5.118,0.334
		l0,0l0,0c-0.052,0.08-0.275,0.213,0.084,0.207c0.962-0.023,1.843,0.1,2.769,0.133c0.071,0.006,0.159-0.039,0.231-0.062
		c0.314,0.146,0.605,0.279,1.25,0.182c0.477-0.072,0.694,0.211,1.213,0.176c0.179,0.137,0.395,0.117,0.956,0.039
		c0.356-0.053,0.809-0.02,1.203-0.031l0.391,0.062c0.098,0.102-0.428,0.219-0.786,0.223c-0.32,0.002-0.684-0.043-0.941,0.076
		c-0.685,0.062-1.42,0.027-2.068,0.16c-1.184,0.119-2.377,0.021-3.561,0.031c-0.576,0.004-1.131,0.023-1.693,0.146
		c0.43,0.189,1.161,0.168,1.58,0.365c-0.484,0.115-1.046,0.1-1.529,0.092c-1.805-0.016-3.614,0.023-5.406-0.078
		c-0.771-0.045-1.557-0.053-2.334,0.025c-0.262,0.021-0.545,0.027-0.646,0.148c-0.381,0.457-1.498,0.525-2.454,0.49
		c-1.502-0.059-2.554,0.307-3.925,0.422c0.286,0.189,0.756,0.174,1.142,0.221c0.265,0.23,0.112,0.453-0.216,0.664
		c-0.068,0.107-0.029,0.125,0.406,0.164c0.646,0.113,1.195,0.012,1.818-0.064c0.792-0.104,1.676-0.092,2.518-0.127
		c0.991,0.174,2.102,0.172,3.156,0.234c4.167,0.248,8.357,0.447,12.618,0.334c0.758,0.105,1.487-0.219,2.251-0.037
		c0,0.127,0,0.254,0.002,0.385c-0.215,0.002-0.354,0.211-0.609,0.043c-0.387-0.252-0.49,0.299-0.945,0.045
		c-0.106-0.061-0.825-0.033-0.473,0.234c0.148,0.105-0.398,0.211-0.685,0.209c-1.591-0.01-3.124,0.271-4.688,0.184
		c-0.718-0.039-1.497,0.166-2.172-0.082c-0.152-0.059-0.424,0.1-0.608,0.16c-0.278,0.102,0.159,0.096,0.216,0.146
		c0.072,0.064,0.094,0.139,0.135,0.207c0.084,0.174-0.011,0.363,0.866,0.248c0.653-0.09,1.026,0.156,1.196,0.389
		c0.285-0.008,0.479,0.057,0.717,0.098c0.969,0.154,1.738,0.506,2.978,0.4c0.122,0.156,0.557,0.146,0.847,0.203
		c-0.222,0.164-0.049,0.244,0.399,0.236c0.622-0.004,1.173,0.01,1.69,0.172c0.377,0.111,0.832,0.016,1.169-0.107l0,0
		c0.523-0.023,1.034-0.006,1.56,0.084c-0.17-0.256-0.562-0.398-1.146-0.477c-0.004-0.027-0.006-0.045-0.012-0.064
		c0.621,0.031,1.28-0.078,1.875,0.049c0.826,0.004,1.182-0.162,1.189-0.449l0.054,0.006c0.524-0.066,0.488,0.176,0.834,0.205
		c0.51,0.1,0.506,0.094,0.239,0.164c-0.141,0.035-0.566-0.027-0.368,0.141c0.118,0.096,0.119,0.197,0.511,0.24
		c0.85,0.084,1.73,0.1,2.596,0.15c0.209,0.012,0.422-0.01,0.509-0.096c0.126-0.117-0.051-0.189-0.302-0.238
		c-0.615-0.123-0.672-0.27-0.173-0.449c0.043-0.018,0.067-0.033,0.067-0.053c0.223-0.16,0.447-0.309,1.07-0.135
		c-0.049,0.115-0.296,0.188-0.545,0.254c-0.334,0.084-0.262,0.176,0.027,0.229c0.955,0.176,1.93,0.332,2.891,0.5
		c0.186-0.031,0.36-0.062,0.544-0.092c0.408-0.113,0.872-0.18,1.362-0.117c0.824,0.096,1.646,0.061,2.52,0.016
		c-0.08,0.199-0.551,0.107-0.796,0.164c-0.261,0.053-0.595,0.066-0.521,0.221c0.057,0.119,0.222,0.252,0.536,0.217
		c0.551-0.072,1.521,0.557,1.666-0.143c0.067,0.006,0.132,0.008,0.194,0.012c0.037,0.012,0.082,0.021,0.12,0.023
		c0.658,0.119,1.315,0.008,1.978-0.037c0.402-0.166,0.964-0.047,1.42-0.111c0.504,0.125,0.57-0.188,0.998-0.143
		c0.112,0.133,0.111,0.256-0.226,0.354l0,0c-0.362,0.055-0.671,0.123-0.653,0.295c0.02,0.18-0.021,0.363,0.706,0.219
		c0.18,0.18-0.696,0.258-0.161,0.445c0.231,0.084-0.18,0.146-0.367,0.172c-0.363,0.055-0.68,0.1-0.375,0.26
		c0.292,0.152,0.641,0.131,0.928,0c0.275-0.125,0.584-0.164,0.973-0.09c-0.115,0.234-0.451,0.492,0.661,0.543
		c0.22,0.012,0.255,0.229-0.034,0.229c-1.301,0.01-0.673,0.287-0.604,0.492c-0.34,0.041-0.734-0.119-0.703-0.203
		c0.033-0.086-0.188-0.074-0.336-0.096c-0.796-0.15-1.605-0.188-2.458-0.057c-0.197,0.006-0.401,0.01-0.599,0.014
		c-0.166-0.004-0.281,0.033-0.286,0.082c-0.027,0.191,0.005,0.387-0.689,0.434c0.055,0.025,0.106,0.055,0.157,0.082
		c-1.608,0.885,4.293,1.5,5.135,1.457c-0.312,0.24-0.39,0.359,0.609,0.402c0.818,0.031,2.768,0.424,2.973,0.385
		c0.548,0.27,1.676,0.402,2.162-0.02c0.08-0.07,0.391-0.076,0.553-0.02c0.957,0.328,1.949,0.162,2.938,0.018
		c0.262,0.113,0.752-0.727,1.002-0.709c0.764-0.141,1.556,0.762,1.275,0.33c-0.169-0.262,0.429-0.371,1.083-0.369
		c0.584,0,1.052,0.16,1.708,0.15c0.412-0.008,0.258,0.225,0.188,0.35c-0.072,0.123-0.135,0.24,0.27,0.266
		c0.463,0.025,0.955,0.053,1.394-0.041c0.155-0.037,0.047-0.07-0.08-0.105c-0.49-0.131,0.046-0.289-0.043-0.441
		c-0.025-0.045,0.166-0.072,0.309-0.07c0.202,0.012,0.158,0.082,0.136,0.123c-0.194,0.307,0.547,0.385,0.98,0.543
		c0.256,0.088,0.583,0.096,0.807-0.006c0.302-0.139-0.018-0.191-0.325-0.234c-0.325-0.043-0.598-0.178-0.368-0.24
		c0.326-0.092,0.27-0.361,0.955-0.287c0.52,0.061,0.914,0.025,1.295-0.152c0.301-0.145,0.689-0.104,0.986,0.061
		c0.418,0.232,1.059,0.314,1.823,0.297c0.546-0.014,1.04-0.021,0.7-0.295c0.573-0.033,0.297,0.174,0.608,0.217
		c0.243-0.158-0.134-0.408,0.66-0.455c0.022,0.252,0.793,0.283,1.238,0.439c-0.066,0.072-0.395,0.146-0.033,0.221
		c-0.054,0.016-0.101,0.037-0.16,0.047c-0.298,0.049-0.802,0.068-0.61,0.229c0.2,0.17,0.875,0.127,1.059,0.053
		c0.481-0.203,0.701-0.15,1.033,0.031c0.113,0.059,6.938,0.172,7.567,0.121c0.452-0.064,13.475,0.162,13.475,0.162
		c2.75-0.125,7.118-0.131,7.562,0.193l0,0c-0.502,0.256-0.818,0.59-1.887,0.646c0.251,0.229,0.681,0.219,1.281,0.193
		c0.734-0.039,0.418-0.186,0.533-0.326c0.258-0.326,0.482,0.072,0.807,0.031c0.027-0.094,0.049-0.191,0.077-0.281
		c0.093-0.043,0.185-0.08,0.272-0.121c0.06,0.002,0.112-0.002,0.168-0.014c0.192-0.027,0.355-0.049,0.48,0.047
		c0.43,0.33,1.094,0.49,2.131,0.348c0.071-0.008,0.186,0.021,0.275,0.037c0.348,0.07,0.48-0.096,0.744-0.119
		c0.311,0.26-0.551,0.127-0.575,0.266c-0.342,0.197-0.882,0.43,0.452,0.328c0.219-0.014,0.479,0.062,0.734,0.092
		c0.192,0.021,0.361-0.029,0.395-0.08c0.039-0.062-0.143-0.102-0.297-0.131c0-0.059,0.01-0.115,0.17-0.154l0,0l0,0
		c0.76-0.072,1.185,0.186,1.818,0.24l0,0c0.465,0.098,0.973,0.035,1.465,0.043c-0.275-0.314-0.726-0.494-1.696-0.309l0,0
		c-0.499,0.049-0.222-0.18-0.521-0.199c0.012-0.082,0.187-0.119,0.34-0.164c0.445-0.047,0.549-0.188,0.307-0.277
		c-0.246-0.096-0.663-0.16-1.092-0.082c-0.145,0.029-0.286,0.062-0.429,0.096l-0.011-0.002c-0.451-0.15-0.503-0.418-1.344-0.467
		c-0.49-0.025-0.789-0.006-1.121,0.1l0,0c-0.166-0.256,0.588-0.412,0.541-0.66c-0.01-0.076,0.064-0.148-0.133-0.193
		c-0.312-0.074-0.369,0.066-0.561,0.094l0,0c-0.342-0.145,0.148-0.25,0.148-0.383c0.125-0.199-0.25-0.201-0.628-0.242
		c-0.137-0.014-0.863,0.027-0.384-0.193c0.348,0.008,0.694,0.08,1.054,0.012l0,0c0.214,0,0.364-0.219,0.493-0.084
		c0.205,0.234,1.937,0.104,1.018,0.588c0.27-0.08,1.295,0.221,0.734-0.217l0.007-0.002c0.459,0.018,0.856,0.307,1.394,0.039
		c0.208-0.119,0.32-0.293,0.883-0.16c0.264,0.061,0.577,0.059,0.824-0.039c0.257-0.037,0.514-0.059,0.764-0.002
		c0.392,0.086,0.742,0.205,1.239,0.193c0.017,0.031,0.034,0.055,0.046,0.084c-0.006,0.047-0.02,0.09-0.031,0.135l0,0
		c0.229,0.266,0.992,0.178,1.454,0.291c0.487-0.053,0.714,0.109,1.114,0.16l0.104-0.025c0.906,0.064,1.513-0.277,2.396-0.246
		c0.218,0.018,0.523-0.004,0.518-0.066c-0.053-0.391,0.518-0.211,0.965-0.154c-0.132,0.066-0.378,0.119-0.197,0.221
		c-0.055,0.07-0.064,0.234-0.338,0.164c-0.901-0.229-0.205,0.156-0.479,0.154c-0.076,0.045-0.156,0.086-0.232,0.131
		c-0.188-0.004-0.326,0.025-0.401,0.088c-0.564,0.027-1.063,0.076-0.616,0.336c0.324,0.188-0.455,0.18-0.383,0.318
		c-0.061,0.012-0.119,0.027-0.176,0.045c-1.366-0.166-1.274,0.281-1.656,0.527l0,0c-0.375-0.014-0.608-0.047-0.541-0.219
		c0.113-0.307-0.319-0.422-1.117-0.375l0,0c-0.682-0.211-1.558,0.002-2.285-0.129c-0.139-0.025-0.331,0.035-0.365,0.107
		c-0.042,0.088,0.092,0.145,0.312,0.16c0.491,0.029,0.971,0.143,1.485,0.029l0,0c0.043,0.244,0.11,0.5-0.958,0.385
		c-0.206-0.021-0.46-0.004-0.384,0.104c0.11,0.145,0.229,0.367,0.779,0.291c0.507-0.072,0.371,0.02,0.383,0.104
		c-0.302,0.033-0.666,0.178-0.469,0.203c0.37,0.057,0.767,0.252,1.285,0.094c0.88-0.309,0.88-0.318-0.237-0.594
		c1.157,0.012,1.933,0.109,2.443,0.484c0.266-0.377,1.208-0.115,1.704-0.287l0,0c-0.261-0.162-0.168-0.369-0.485-0.529
		c-0.146-0.076,0.148-0.113,0.299-0.16c0.537,0.074,1.072,0.123,1.609,0.006c0.393,0.008,0.445,0.098,0.405,0.217
		c-0.162,0.059-0.526,0.055-0.465,0.164c0.055,0.105,0.368,0.08,0.596,0.082c0.196,0.002,0.405-0.031,0.554,0.041
		c0.019,0.037,0.08,0.061,0.183,0.062c0.216,0.018,0.517-0.021,0.354-0.094c-0.271-0.111-0.248-0.311-0.773-0.346
		c0.523-0.182,1.143-0.303,1.768-0.428l0,0c0.021,0.041,0.043,0.08,0.066,0.115c0.314,0.057,0.226,0.309,0.827,0.227
		c0.062-0.006,0.122-0.006,0.179,0.006c-0.157,0.209,0.041,0.33,0.631,0.367c0.129,0.037,0.289,0.064,0.381,0.111
		c0.135,0.072,0.209,0.172,0.492,0.148c0.375-0.031,0.292-0.18,0.404-0.275c0.154-0.127-0.208-0.125-0.414-0.135
		c-0.232-0.016-0.358-0.055-0.41-0.135c0.725-0.051,1.43-0.158,2.189-0.105c0.83,0.061,1.258,0.252,1.441,0.533
		c0.175,0.264,0.596,0.479,0.951,0.707c0.026,0.016,0.189,0.004,0.287,0.004c0.139,0.002,0.275,0.006,0.412,0.006
		c0.962,0.316,1.783-0.035,2.666-0.088c0.037-0.014,0.086-0.021,0.14-0.021l0.686-0.795c0.263-0.129,0.096,0.742,0.46,0.75
		c0.166,0.043,5.035,0.178,5.584,0.201c0.814,0.035,1.609,0.115,2.441,0.092c0,0,7.36-0.057,8.235-0.057s2.25,0.125,3.25,0
		s6.534,0.363,7.5,0c0.074-0.002,1.676,0.127,1.75,0.125c0.152,0.02-0.896-1.35-0.749-1.328c0.205,0.109,0.545,0.016,0.791,0.061
		l0,0c0.511-0.004,1.035-0.008,1.581-0.01c0.237,0.006,0.476,0.014,0.71,0.014c-0.508,0.295-1.457,0.377-1.879,0.664
		c-0.012,0.008-0.022,0.014-0.031,0.021c-0.119,0.098,0.051,0.133,0.502,0.127c0.221,0.211,0.636,0.301,1.176,0.178
		c0.307-0.07,0.586-0.033,0.736-0.006c0.609,0.125,0.752,0.014,0.762-0.24c0.288,0.186,0.172,0.406,0.791,0.426
		c0.765,0.02,1.02-0.211,1.392-0.379c0.036,0.018,0.052,0.041,0.052,0.057c0.442,0.178,0.884,0.088,0.994-0.074
		c0.269-0.396,0.99-0.404,1.832-0.369c-0.043,0.08-0.092,0.152-0.145,0.229l0,0c-0.002,0.145,0.111,0.312,0.54,0.273
		c0.449-0.039,0.431-0.221,0.244-0.367c0.21-0.096,0.294-0.178,0.317-0.258c0.588,0.066,1.176,0.104,1.771-0.057
		c0.13-0.035,0.284-0.023,0.365,0.039c0.092,0.066,0.168,0.113,0.238,0.146c-0.006,0.014-0.016,0.021-0.016,0.035
		c-0.129,0.104-0.419,0.172-0.417,0.299c-0.437,0.156-0.56,0.326-0.056,0.479c0.584,0.178,1.373,0.262,1.923,0.053
		c0.587-0.219,0.96-0.15,1.478-0.029c0.553,0.133,1.133,0.018,1.637-0.049c0.229-0.037,0.303-0.227,0.451-0.342
		c-0.426-0.025-0.763-0.207-1.246-0.105c-0.197,0.043-0.366,0.084-0.535,0.02c-0.179-0.066,0.062-0.135,0.097-0.201
		c0.005-0.02,0.025-0.037,0.046-0.061c0.143,0.113,0.494,0.037,0.646-0.01c0.914-0.279,1.975-0.359,3.003-0.396
		c0.022,0,0.038-0.002,0.06-0.002c0.168-0.01,0.334-0.02,0.496-0.021c0.282-0.01,0.526-0.031,0.752-0.061
		c0.084,0.111,0.295,0.25,0.363,0.355c0.092,0.135,0.583,0.08,0.867,0.01c0.272-0.076,0.41-0.07,0.486,0.051
		c0.111,0.018,0.223,0.027,0.335,0.035c0.015,0.004,0.027,0.004,0.041,0.006c-0.101,0.076-0.189,0.156-0.261,0.24
		c-0.135,0.148,0.231,0.16,0.488,0.168c0.455-0.004,0.892-0.133,1.107-0.289c0.37,0.018,0.748,0.023,1.143-0.02
		c0.055-0.01,0.113-0.014,0.174-0.01c0.986,0.055,1.378-0.043,1.471-0.438c0.024,0,0.04,0,0.063,0
		c0.926,0.564,1.418,0.041,2.077-0.104c0.028-0.006,0.058-0.01,0.087-0.016c-0.007-0.008,0.008-0.01,0.01-0.02
		c0.355,0.09,8.541,0.305,8.541,0.305c0.941,0.051,1.883,0.096,2.819,0.061c-0.069,0.02-0.119,0.045-0.11,0.094
		c0.023,0.113,0.332,0.092,0.574,0.092c0.096-0.002,0.262-0.01,0.288,0.01c0.881,0.572,2.406,0.256,3.634,0.324
		c0.627,0.035,1.26,0.037,1.893,0.061c-0.115,0.025-0.231,0.068-0.329,0.145c-0.239,0.029-0.446,0.1-0.382,0.203
		c0.056,0.086,0.32,0.08,0.52,0.074c0.24-0.016,0.481-0.035,0.723-0.055c0.189-0.049,0.339-0.09,0.6-0.027
		c0.242,0.059,0.412-0.045,0.455-0.146c0.023-0.062-0.002-0.115-0.083-0.145c0.188,0.004,0.374,0.016,0.561,0.018
		c0.534,0.004,1.165-0.016,1.597-0.205c0.424-0.182,0.951-0.023,1.411-0.047c1.257-0.078,2.509-0.035,3.751-0.061
		c0.902-0.025,3.221,0.221,3.637,0.092c0.26-0.086,5.197,0.043,5.217,0.039c0.025-0.006,0.051-0.01,0.078-0.016
		c1.039-0.182,2.096,0,3.141-0.035c0.375-0.018,0.734,0.002,1.092,0.031c1.309,0.107,14.15,0.684,15.457,0.621
		c0.391,0.104,4.225,0.074,4.568,0.244c0.305,0.15,0.482,0.721,0.75,0.645c0.875-0.262,0.121,0.182,0.955,0.199
		c0.141,0.006,0.281,0.012,0.422,0.012c0.787-0.018,0.961,0.451,1.775,0.566c0.76,0.111,1.527-0.121,2.316-0.105
		c0.459-0.078,0.932-0.172,1.361-0.26c0.814-0.174-0.053-0.27-0.342-0.436c0.371-0.027,0.678-0.051,0.992-0.064
		c0.322-0.018,0.658,0.014,0.779-0.195c0.084-0.146,0.482-0.096,0.742-0.107c0.477-0.016,0.957-0.014,1.436-0.023
		c0.326-0.018,0.652,0.082,0.977-0.014c0.188-0.008,0.35,0.082,0.543,0.023l0.076,0.002h0.072c0.016,0.016,0.033,0.035,0.043,0.047
		c-0.594,0.332-0.594,0.332,0.271,0.404l0,0c0.186,0.096,0.338,0.232-0.133,0.186c-0.459-0.041-0.92,0.025-1.357-0.041
		c-0.602,0.045-1.154,0.311-1.816,0.074c-0.092-0.029-0.285,0.002-0.346,0.074c-0.07,0.076,0.039,0.123,0.176,0.141
		c0.178,0.031,0.369,0.053,0.547,0.068c0.076,0.127-0.176,0.119-0.293,0.148c-0.359,0.096-0.654,0.199-0.254,0.373
		c0.25,0.111,0.348,0.354,0.971,0.133c0.635-0.223,1.496-0.076,2.23-0.061c0.674,0.018,1.359-0.146,2.062,0.041
		c0.258,0.068,2.664,0.127,3.547,0.082c0.906-0.047,5.215,0.232,6.424,0.16c1.076-0.064,5.805,0.018,7.078,0.15
		c0.574,0.061,4.045-0.016,4.709-0.008c0.455,0.006,7.33,0.258,7.438,0.109c0,0,9.395-0.141,10.061-0.059
		c0.666,0.084,8.332-0.166,8.916-0.166s3.584,0,3.584,0c0.676,0.018,2.396,0.246,3.084,0.25c0,0,3.75-0.334,4.666-0.25
		c0.918,0.082,10.25,0,10.75,0s5.918,0,6.5,0.082c0.584,0.084,2.584-0.584,9.25-0.166c6.668,0.416,13.75-1.166,16.084-1.166
		c0.936,0,17.955,0.221,18.467,0.111l0,0c0.293,0.09,4.266,0.156,5.092,0.039l0,0c0.168-0.061,2.475-0.041,2.74,0.023
		c0.266,0.061,0.484,0.039,0.672,0.061s0.857,0.199,0.857,0.199c0.281,0.064,0.916-0.125,1.1-0.006
		c0.15,0.092,0.314,0.234,0.566,0.168c0.295-0.08,2.459,0.08,3.035-0.059c0.357-0.092,1.811,0.385,2.053-0.133
		c0.602-0.09,1.205-0.17,1.83-0.121c0.514,0.094,1.031,0.166,1.557,0.014c0.385-0.107,0.461,0.086,0.598,0.211
		c0.293,0.273,0.551,0.484,1.031,0.066c0.236-0.205,0.746-0.172,1.131-0.229c0.248-0.033,0.502-0.055,0.715-0.143
		c0.418-0.166,0.412-0.404-0.029-0.467c-1.029-0.127-2.07-0.34-3.152-0.09h0.006c-0.326-0.016-2.195-0.551-2.863-0.619
		c-0.459-0.057-1.021-0.111-1.176,0.338c-0.068,0.211-0.215,0.287-0.494,0.018c-0.514-0.506-2.51-0.193-2.588-0.301
		c-0.109-0.141-0.271-0.086-0.42-0.006c-0.041,0.021-0.1,0.059-0.113,0.055c-0.924-0.334-2.062,0.094-2.961-0.258
		c0,0-0.385-0.16-0.67-0.061l0,0c-1.094,0.035-2.131-0.117-3.168-0.285c-0.182-0.021-0.492-0.199-0.527,0.158
		c-0.018,0.174-0.652,0.115-0.926,0.07c-0.625-0.104-1.225-0.105-1.854-0.061c-0.209,0.008-0.5,0.078-0.645-0.057
		c-0.16-0.299,0.043-0.318,0.363-0.379l0,0c0.281,0.143,0.453,0.076,0.691-0.08c0.617-0.398-0.518-0.344-0.393-0.629
		c2.408,0.121,4.828,0.129,7.25,0.168l0.221,0.006c1.025-0.033,2.023-0.004,3.051,0.133c0.527,0.066,1.305,0.104,1.893-0.133
		c0.361-0.141,0.754-0.105,1.117-0.09c1.898,0.09,3.797,0.145,5.703,0.17c1.92,0.02,3.848-0.053,5.758,0.117
		c0.025,0,0.07-0.041,0.102-0.061c1.146,0.26,2.348,0.072,3.516,0.129c0.281,0.016,0.545,0.053,0.764,0.162
		c0.09,0.047,0.254,0.113,0.318,0.092c0.77-0.252,1.672-0.078,2.447-0.293c0.342,0.062,0.68,0.107,1.041,0.104
		c1.074-0.02,1.074-0.012,0.875-0.596c-0.273-0.092-0.264,0.266-0.402,0.139c-0.447-0.418-1.008-0.027-1.486-0.107l-0.047,0.025l0,0
		c0.012-0.008,0.031-0.014,0.047-0.025c0.006-0.312-0.443-0.307-0.785-0.412c1.217,0.105,2.383,0.016,3.523-0.229
		c0.062-0.027,0.127-0.057,0.193-0.082l0,0c0.602-0.055,1.229-0.016,1.783-0.219c1.365,0.08,2.668-0.035,3.979-0.293
		c0.451-0.09,0.912-0.113,1.266-0.32c0.094-0.057,0.262-0.078,0.352-0.018c0.686,0.471,0.688-0.16,0.986-0.254
		c0.191-0.059,0.299-0.252,0.631-0.217c0.098,0.006,0.252,0.031,0.227-0.047c-0.178-0.52,0.529-0.307,0.873-0.359
		c0.342-0.055,0.791,0.051,0.775-0.328c-0.008-0.182,0.271-0.125,0.361-0.039c0.326,0.301,1.076,0.158,1.387,0.479
		c0.033,0.027,0.27,0.035,0.277,0.023l0.123-0.807l-0.559-1.109c-0.127-0.023-0.32-0.137-0.301-0.178
		c0.197-0.42-0.188-0.252-0.465-0.158c-0.137,0.051-0.273,0.129-0.402,0.061c-0.533-0.305-1.262-0.154-1.867-0.283
		c-0.742-0.152-2.383,0.309-2.383,0.309l0.529-0.449l0.109-0.125c0.088-0.082,0.371-0.113,0.365-0.234
		c0.289,0.008,0.535-0.053,0.791-0.1c0.375,0.016,0.779,0.039,0.871-0.184c0.082-0.201-0.256-0.242-0.605-0.289
		c-0.264-0.035-0.637-0.084-0.637-0.213c0.01-0.303-0.41-0.205-0.742-0.172c-0.252,0.025-0.562,0.102-0.613-0.057
		c-0.025-0.098,0.182-0.271,0.502-0.258c0.844,0.035,0.748-0.209,0.75-0.428c0-0.527-0.197-1.01-1.742-1.164
		c1.018-0.146,1.389-0.42,1.18-0.828c0.086-0.203-0.213-0.252-0.58-0.275c-0.693-0.039-1.352-0.09-1.275-0.514
		c0.031-0.145-0.293-0.227-0.547-0.301c-0.248-0.174-0.549-0.299-0.096-0.557c0.387-0.227-0.699-0.779-1.463-0.771
		c-1.307,0.012-2.625,0.016-3.924,0.086c-0.811,0.047-1.357-0.072-1.838-0.309c-0.152-0.072-0.266-0.139-0.482-0.184
		c-0.605-0.113,0.211-0.1,0.094-0.176c1.168-0.178,2.344-0.012,3.518-0.01c0.771-0.006,1.498-0.066,2.252-0.156
		c0.656-0.078,6.59-0.146,7.316-0.113c0.332,0.016,0.68,0.004,1.018-0.016c0.369-0.014,0.566-0.053,0.312-0.254
		c-0.154-0.133-0.203-0.373-0.029-0.479c0.531-0.328,0.268-0.479-0.445-0.6c-0.145-0.025-0.436-0.055-0.305-0.176
		c0.102-0.094,0.191-0.184,0.557-0.17c0.555,0.02,0.572-0.102,0.52-0.346c-0.125-0.59-1.16-2.059-1.021-2.674
		c0.057-0.264-0.449-0.479-0.426-0.752c0.846,0.223,0.949,0.191,1.035-0.238c0.043-0.221-0.291-0.219-0.58-0.227
		c-0.736-0.018-0.807-0.189-0.465-0.408c0.373-0.238,0.193-0.33-0.324-0.439c-0.344-0.068-0.611-0.215-0.898-0.328
		c-1.121-0.453-2.508-0.73-3.795-1.074c-0.219-0.057-0.461-0.094-0.664-0.16c-1.168-0.377-1.168-0.381-2.596-0.373
		c-0.355,0.002-0.738-0.004-0.965-0.092c-0.908-0.354-2.094-0.471-3.111-0.721c0.004-0.316-0.498-0.465-0.971-0.627
		c-0.047-0.041-0.135-0.068-0.264-0.096c-0.186-0.068-0.408-0.086-0.646-0.092c-0.045-0.174,0.863-0.121,0.48-0.373
		c0.012-0.027,0.031-1.045,0.053-1.061c0.467-0.059,1.057,0.08,1.395-0.17c0.17-0.129,0.209-0.291,0.035-0.395
		c-0.346-0.201-0.721-0.365-0.096-0.607c0.156-0.062-0.148-0.166-0.314-0.162c-1.561,0.08-8.238-0.285-9.807-0.152
		c-0.137,0.008-0.281,0.01-0.42,0.012l0.131-0.264c-0.316,0.094-0.699,0.1-0.975,0.295c-0.189,0.139-0.959,0.125-1.41-0.055
		c0.004-0.051,0.008-0.104,0.006-0.152c0.389-0.01,0.576-0.148,0.77-0.264c0.125-0.076,0.055-0.27-0.092-0.227
		c-0.691,0.188-1.428-0.172-2.074,0.064c-0.098-0.004-0.199-0.006-0.303-0.008l0,0c-0.555-0.016-1.09,0.182-1.676-0.029
		c-0.252-0.092-0.637,0.111-0.932,0.199C413.645,124.401,413.445,124.513,413.229,124.606L413.229,124.606"/>
	<path fill="#FFFFFF" d="M364.412,13.648c-0.168,0.014-0.344,0.027-0.697,0.057c-0.957,3.293-1.734,6.801-2.865,10.107
		c-1.135,3.303-0.449,1.951-1.574,5.486c-0.953,3.521-1.906,7.045-3.031,10.58c-1.135,3.303-1.041,6.512-2.342,10.062
		c-1.307,3.318-1.562,6.785-2.346,10.061c-0.771,3.508-1.555,7.016-2.334,10.523c-0.775,3.506-1.555,6.781-2.16,10.275
		c-0.775,3.51-1.377,6.998-2.154,10.508c-0.604,3.494-1.195,7.213-1.799,10.706c-0.602,3.494-1.379,7-1.631,10.463
		c-0.436,3.25-1.389,6.545-1.305,9.521c0.34-0.256,0.684-0.516,0.672-0.973c0.893-5.58,1.959-11.18,2.676-16.748
		c3.396-22.546,9.238-45.062,15.441-67.376c2.387-8.689,2.779-12.473,5.16-21.164C364.279,15.037,364.262,14.352,364.412,13.648
		 M354.559,36.111c0.295-2.092,1.109-4.225,1.57-6.557c0.162-0.473,0.316-1.174,0.301-1.631c-0.688,0.514-1.023,1-1.35,1.715
		c-0.32,1.174-0.453,2.562-1.121,3.764c-1.982,4.295-3.268,8.531-3.66,13.156c-0.156,0.699-0.312,1.404-0.639,2.115
		c-0.484,1.648-1.143,3.078-1.623,4.727c-0.939,3.979-1.701,7.943-2.289,11.895c-1.697,8.176-3.92,16.391-4.918,24.508
		c-1.639,10.003-3.285,20.011-4.936,29.788c0.348-0.029,0.525-0.041,0.695-0.059c1.08-5.369,1.979-10.721,2.881-16.076
		c1.342-8.142,2.514-16.272,4.217-24.22c2.16-10.275,4.854-20.367,7.553-30.459c0.457-2.332,1.447-4.48,1.914-6.584
		C353.625,40.316,354.096,38.215,354.559,36.111 M318.896,120.048l-0.17,0.24l-0.002-0.227l0.344-0.258L318.896,120.048z
		 M327.916,97.963c-2.949,7.354-5.895,14.712-8.848,21.841c-0.197-0.676-0.217-1.361,0.121-1.848
		c2.615-6.641,5.576-13.537,8.367-20.194C327.561,97.992,327.74,97.977,327.916,97.963 M347.053,25.008
		c0.82-2.131,1.631-4.494,2.268-6.613c0,0-0.178-0.215-0.357-0.199c-0.834,1.445-2.016,2.916-3.199,4.619
		c-0.164,0.475-9.387,21.424-10.191,23.785c-5.59,13.084-11.189,25.934-16.426,38.984c-2.957,7.129-6.256,14.513-9.211,21.638
		c-0.652,1.66-1.482,3.336-1.08,5.141c1.332-2.635,2.475-5.48,3.797-8.344c5.092-12.118,10.361-24.259,15.799-36.407
		c2.309-5.236,4.615-10.475,7.096-15.727C339.49,42.84,343.104,34.051,347.053,25.008 M289.312,96.824c0,0,0.238-0.029,0.48-0.059
		c-1.129,4.498-10.898,44.03-12.057,48.306c0,0-1.002,2.422-1.244,2.447c1.16-4.271,11.215-45.83,12.369-50.099 M274.373,161.21
		c-0.156,0-0.447,0.123-0.428-0.113c0.607-7.361,3.254-16.371,5.398-23.658c-1.6,7.734-3.174,15.693-4.973,23.674 M281.18,76.258
		c2.531-9.619,5.244-19.025,8.123-28.672c1.596-5.639,3.707-11.551,5.477-17.203c0.809-2.359,1.262-4.924,1.717-7.258
		c-0.172,0.016-0.619-0.109-0.697,0.057c-3.02,6.629-4.889,13.023-7.334,19.652c-1.115,3.764-7.621,25.848-7.621,25.848
		c-1.127,3.736-8.064,32.823-9.789,40.077c-4.078,16.863-5.537,25.277-8.137,42.232c-0.133,0.871,0.531,0.746,0.438,0.764
		c0.424-0.086,1.254-1.047,1.42-1.521c0.918-4.666,0.072-0.896,0.986-5.791c1.09-4.682,0.648-2.799,1.57-7.467
		c0.463-2.104,2.463-10.893,2.596-12.51c0.09-2.764,5.559-26.396,6.355-29.214C278.033,88.91,279.43,82.6,281.18,76.258
		 M367.918,6.4c-3.801,14.314-6.775,26.883-10.922,41.223c-6.842,24.66-11.586,48.926-14.92,73.534
		c-1.15,8.818-1.779,17.594-2.758,26.398c-0.092,2.99,0.293,12.699,0.904,15.385c0.436,1.936,0.691,5.859-1.102,6.383
		c-1.674,0.488-1.879-0.729-3.355-1.135c-2.395-0.656-3.494,1.148-4.57,0.869c-2.646-0.684-5.047-1.531-4.854-7.059
		c0.172-6.213-0.314-19.34,0.205-25.811c1.33-14.801,3.354-29.891,6.08-45.032c0.15-0.934,0.125-1.85,0.248-3.697
		c-0.834,1.445-1.344,2.174-1.844,2.906c-0.18,0.012-0.186-0.217-0.186-0.217c0.648-1.889,1.484-3.332,2.133-5.223
		c0.324-0.945,0.469-1.873,0.615-3.037c-7.096,15.73-13.479,31.63-19.867,47.532c0.176-0.016,0.352-0.031,0.535,0.186
		c0.984-2.375,1.967-4.754,3.125-7.145c0.141-0.301,1.99-5.152,2.18-5.461c0.258-0.418-0.352,2.127-0.062,1.707
		c-1.793,4.74-4.529,11.299-6.676,16.066c-1.158,2.389-2.85,4.592-4.711,7.037c-0.508,0.502-1.369,1.029-1.729,0.828
		c-2.471-0.486-4.693,1.527-6.932,2.857c-2.07,1.316-3.635,1.674-4.906,0.166c-0.361-0.43-0.553-0.871-1.074-0.832
		c-2.281-0.043-2.865-2.062-3.109-4.566c-0.391-1.35-0.262-2.967-0.311-4.568c0.014-11.939,0.197-23.895,0.215-35.835
		c-0.031-0.917-0.234-1.82-0.607-2.707c-0.645,1.889-1.297,3.777-2.1,6.368c0.377-5.312,3.043-10.116,2.373-15.116
		c-0.482,1.416-0.799,2.592-1.119,3.764c-4.752,17.835-9.502,35.667-13.023,53.636c-1.064,5.826-0.592,2.781-0.781,4.273
		c-0.271,2.16-1.455,10.342-3.436,11.078c-1.227,0.455-2.238,0.936-4.125,0.219c-1.117-0.426-1.871,1.73-2.699,3.404
		c-1.918,0.385-1.641-2.16-2.723-3.223c-0.332,0.484-0.852,0.984-1.354,1.713c-1.457-1.943-1.723-5.139-1.643-8.357
		c-0.039-7.574,0.264-3.412,1.787-11.344c3.104-14.26,6.031-28.498,9.303-42.771c3.119-13.794,6.412-27.38,10.053-41.222
		c3.623-14.301,8.129-28.672,13.865-42.682c0.984-2.373,2.145-4.764,3.484-6.941c0.838-1.443,1.838-3.131,3.086-2.543
		c0.713,0.4,0.75,1.777,1.672,3.307c0.336-0.486,0.834-1.445,1.51-2.418c2.375-2.719,2.725-2.746,4.199-0.338
		c3.275-1.873,4.168-1.258,5.143,2.107c0.514-0.5,1.031-0.77,2.061-1.543c-0.625,2.576-2.717,21.576-2.717,21.576
		c-1.178,14.1-2.354,28.201-3.363,42.059c-0.129,1.615-0.654,8.307-0.65,7.859c-0.059,7.822-0.969,15.232-1.111,22.591
		c0.178-0.016,0.178-0.016,0.348-0.029c1.646-3.804,3.473-7.396,4.945-11.19c6.926-15.254,13.324-30.697,20.074-46.168
		c3.961-8.814,6.793-13.029,11.102-21.873c2.48-5.252,6.496-12.998,8.982-18.023c0.838-1.445,1.479-3.562,3.557-4.422
		c-0.455,2.564-0.744,4.654-1.209,6.988c0.18-0.014,0.363,0.199,0.537,0.186c1.504-2.648,2.838-5.051,4.686-7.955
		c1.213-0.328,1.086,1.291,1.637,2.164c0.857-0.76,1.883-1.531,2.74-2.287c0.375,0.887,0.578,1.789,0.779,2.689
		c0.879,0.16,1.932,0.074,2.299,0.734C368.201,4.08,368.066,5.469,367.918,6.4"/>
	<path fill="#FFFFFF" d="M392.033,103.839c2.83-2.459,3.969-6.063,5.549-9.188c-0.219-0.24-0.426-0.225-0.633-0.213
		C395.379,97.566,393.605,100.712,392.033,103.839 M368.012,89.914c-2.844,2.441-4.006,6.043-5.604,9.162
		c0.217,0.238,0.426,0.225,0.633,0.215C364.629,96.168,366.422,93.035,368.012,89.914 M365.057,131.101
		c4.186-5.82,8.373-11.648,12.137-17.691c3.178-4.998,6.34-10.5,9.301-15.737c0.787-1.312,1.574-2.879,1.123-4.357
		c-1.633,0.867-1.799,2.387-2.59,3.703c-2.162,4.173-4.115,8.331-6.504,12.022c-4.354,7.092-8.936,13.693-13.504,20.551
		c-0.598,1.053-1.404,1.861-1.156,3.355C364.262,132.165,364.865,131.622,365.057,131.101 M364.605,125.581
		c1.668-2.455,2.967-4.416,4.066-6.369c4.812-7.119,9.615-14.471,13.254-22.45c1.277-2.43,2.168-5.066,2.873-7.693
		c0.314-2.6-0.662-3.232-2.742-1.686c-0.379,0.258-0.752,0.52-1.127,1.014c-3,2.779-5.412,6.225-7.232,10.098
		c-4.217,7.78-6.883,15.927-8.783,24.022C364.549,123.245,364.766,124.167,364.605,125.581 M364.115,121.396
		c2.609-10.246,6.201-19.861,12.305-29.175C371.33,96.314,364.65,112.696,364.115,121.396 M367.5,83.367
		c-0.209-0.244-0.219-0.492-0.426-0.479c-4.258,3.061-7.025,7.777-10.494,17.328C360.35,94.172,363.922,88.641,367.5,83.367
		 M402.58,124.767c0.086,1.381-0.434,3.188-0.82,4.469c-0.771,2.066-1.383,3.752-2.48,5.715c-0.695,1.248-1.322,2.469-2.119,3.531
		c-5.592,7.428-9.859,12.494-16.744,18.002c-1.615,1.369-3.236,2.736-4.879,3.098c-4.721,1.332-9.426,3.162-13.77,3.209
		c-8.268-0.186-10.998-6.775-13.91-15.131c-1.795-5.164-2.158-11.182-1.701-17.252c1.482-13.949,4.414-27.803,11.504-41.122
		c4.141-7.586,8.006-12.594,14.727-16.576c3.865-2.279,7.562-3.287,11.301-2.533c5.395,0.637,10.004,2.842,14.232,6.326
		c0.633,0.711,1.691,1.396,2.338,2.357c2.555,2.846,2.662,6.867,0.52,11.795c-2.928,6.496-6.27,13.015-10.447,19.087
		c-1.6,2.123-2.807,4.453-4.359,6.846c-1.109,1.688-0.65,1.008-1.6,2.373c-1.32,1.908-2.369,3.936-3.777,5.543
		c-3.594,4.775-7.598,9.582-11.607,14.383c-0.807,0.812-1.811,1.887-2.83,2.461c-0.605,0.291-1.443,0.35-2.26,0.404
		c-0.188,0.77-0.371,1.789-0.34,2.793c0.068,2.516,0.533,4.498,2.008,5.4c1.264,0.92,3.182-0.094,4.596-1.203
		c7.104-5.012,11.492-10.207,17.285-17.9c1.195-1.594,2.178-3.674,3.164-5.254c0.998-1.324,1.797-2.387,2.811-3.211
		c-0.535,3.057-1.91,5.92-2.447,8.979c1.195-1.594,1.98-3.158,3.172-5.002c1.209-1.338,1.359-3.361,3.189-4.498
		c0.865,1.455-0.945,3.338-0.477,5.322c0.979-1.83,1.973-3.41,2.768-4.719c1.684,1.145,1.684,1.145,0.574,5.998
		c0.586-1.297,1.373-2.609,2.168-3.922C402.32,124.612,402.656,124.437,402.58,124.767"/>
	<g>
		<path fill="#214865" d="M257.506,120.616c-0.998,3.08-1.996,5.922-3.166,8.768c-1.504,3.555-2.85,4.27-6.736,3.814
			c-1.688,0.48-3.375,0.727-5.061,1.205c-2.025,0.721-3.713,0.727-5.074-1.395c-0.168-0.236-0.338-0.471-0.51-0.707
			c-2.887-3.299-3.576-6.605-1.068-12.059c1.336-3.082,3.352-5.93,5.195-8.539c1.176-1.426,2.521-2.852,3.711-1.201
			c0.168,0.236,0.676,0.234,0.844,0.232c5.566-1.682,8.625,2.09,11.51,6.098C257.662,117.542,257.672,119.433,257.506,120.616z
			 M258.535,123.925c-0.836,1.895-1.629,3.367-2.346,5.006c-0.277,0.631-0.502-0.264-0.672-0.264
			c0.836-1.66,1.385-3.371,2.055-4.795C257.572,123.872,258.199,123.925,258.535,123.925z"/>
	</g>
	<path fill="#FFFFFF" d="M138.122,4.254c-0.334-0.523-1.346-0.537-2.188-0.723c-0.169-0.693-0.34-1.387-0.676-2.08
		c-0.846,0.504-1.85,1.006-2.695,1.51c-0.504-0.697-0.34-1.904-1.514-1.748c-1.854,2.043-1.494,2.615-3.232,4.443
		c-0.102,0.107-0.508-0.311-0.512-0.178c0.033-1.518-0.168-1.391,0.338-3.281c-2.02,0.488-2.691,2.031-3.535,3.053
		c-1.146,1.629-2.156,3.309-3.153,5.01c-0.076,0.115-0.153,0.227-0.228,0.348c-1.289,2.094-2.523,3.873-3.035,4.756
		c-4.299,7.391-41.775,73.475-42.364,74.377c-2.532,3.877-4.826,4.057-7.046,2.555c-0.135-4.941,0.482-6.998,0.867-11.891
		c0.162-2.074,0.879-7.193,1.512-10.305c0.608-3.002,8.336-42.48,8.684-44.346c0.236-2.531,0.191-2.717,0.133-3.512
		c0.006-1.291-0.556-3.482-1.631-2.992c-0.561,1.365-0.883,1.555-1.076,1.375c-0.068-0.168-0.06-0.336-0.047-0.506
		c0.053-0.844,0.102-1.688-0.379-1.846c-0.494,0.014-0.88,0.865-1.25,1.547c-0.131,0.34-0.284,0.678-0.441,1.018
		c-0.355,0.156-0.667-0.188-0.548-0.656c0.032-0.172,0.066-0.338,0.092-0.506c0.11-0.508,0.164-1.354-0.074-1.516
		c-0.153-0.166-0.656,0.016-0.929,0.359c-0.082,0.135-0.174,0.279-0.262,0.424c-0.58-0.527-1.574-0.467-2.047-0.475
		c-9.014-0.172-13.003,16.301-14.631,21.988c-3.904,13.684-6.611,26.475-6.515,42.938c1.042,17.304,3.083,21.435,7.409,28.335
		c2.432,3.883,5.654,5.562,5.758,5.674c8.44,3.365,17.109-2.453,22.045-7.994l-0.025,0.115c-0.367,1.607-0.875,3.357-1.549,6.043
		c-1.572,4.521-2.305,9.83-3.588,13.561c0,0-8.319,29.498-8.742,30.979c-0.795,2.377-3.629,11.387-6.342,17.326
		c-1.271,2.939-2.611,5.75-2.809,6.252c0.01,0.07-0.246,0.625,0,0c-0.01-0.059-0.232,0.264-1.206,2.135l-3.734,7.221l-2.302,4.033
		l-0.59,1.117c-0.41,2.957,1.648,2.654,3.857,2.354c1.015-0.002,2.03-0.004,3.065-1.785c0.315-0.301,0.804-0.895,0.923-0.596
		c1.056,1.18,2.559,0.652,3.439-1.133c1.384-2.373,2.061,0.287,3.379-1.494c1.705,2.07,2.869-2.24,3.915-2.539
		c0.226-0.889,1.478-0.299,2.708-2.676c0.846,0.297,1.613-1.781,2.541-2.377c0.729-3.264,1.018-3.264,1.373-2.373
		c3.379-6.438,3.682-7.838,4.934-11.83c1.445-3.703,3.182-8.441,5.108-13.887c1.339-3.707,2.63-7.439,3.892-11.184
		c13.082-38.129,31.01-95.022,31.01-95.022s11.708-37.426,12.836-43.879l1.08-3.271C138.293,5.809,138.459,4.775,138.122,4.254z
		 M66.758,91.062c-0.047,0.508-0.095,1.736-0.73,1.594c-0.176-0.301-0.18-0.994-0.184-1.514c-0.09-3.369,0.421-6.789,0.634-10.252
		c0.353-3.062,0.757-6.268,1.155-9.207c0.84-4.725,1.582-9.432,2.566-14.062c0.394-1.904,0.883-3.832,1.415-5.639
		c0.195-0.559,0.739-0.869,1.073-1.334c-0.152,1.197-0.395,2.42-0.551,3.623C71.311,57.959,68.704,70.018,66.758,91.062z
		 M85.821,80.156c-0.359,0.871-0.459,1.041-1.125,2.084c-0.375,0.166-1.947,0.355-1.673-0.332c0.078-0.195,1.265-2.256,1.356-2.451
		c2.936-5.682,27.365-49.396,31.853-56.621c0.081-0.139,3.129-4.941,5.19-8.049l0.965-0.158
		C121.583,16.051,87.696,75.615,85.821,80.156z M110.63,68.344l-4.119,12.711c-0.514,0.998-1.021,1.924-1.538,3.004
		c-0.124-0.293-0.124-0.293-0.094-0.592c0.622-2.076,1.533-4.154,2.324-6.527C108.088,74.936,109.817,70.516,110.63,68.344z
		 M73.581,181.831c-0.527,1.318-1.17,2.514-1.695,3.84c-0.757-0.316-0.004-3.486,0.586-4.75c3.023-6.643,5.787-14.551,8.188-20.914
		c1.983-5.4,3.744-10.568,5.723-15.973c1.982-5.4,3.742-10.566,5.498-15.73c1.82-5.105,8.133-21.844,9.301-25.348
		c1.893-5.679,5.116-15.138,7.002-20.979c1.086-3.061,0.547-1.693,1.641-4.756c-0.188,1.205,1.196-2.076,0.793-0.633
		c-1.379,4.625-4.68,14.922-4.768,15.176c-3.79,11.595-9.203,27.136-13.201,38.952c-2.651,7.502-5.561,15.67-8.369,23.48
		C80.985,162.892,76.875,173.13,73.581,181.831z M80.733,178.093c-0.514,1-1.84,3.463-2.357,4.545
		c-0.125-0.295-0.125-0.295-0.095-0.594c0.622-2.076,2.354-5.693,3.146-8.066c0.885-2.002,2.611-6.422,3.426-8.594L80.733,178.093z
		 M99.224,123.724c0,0-11.256,30.791-12.825,34.631c-1.438,3.828-3.354,6.59-4.795,10.422c-0.168,0.512-0.439,0.77-0.857,1.281
		c0.943-3.83,2.015-7.654,3.436-11.23c0.627-1.533,3.766-10.725,4.749-13.533c0.715-2.553,5.114-13.445,5.368-14.975
		c0.481-1.277,26.719-76.845,27.609-79.157c0.836-2.166,0.932-1.16,0.953-0.613L99.224,123.724z"/>
	<path fill="#FFFFFF" d="M168.417,89.113l-0.705-3.125l-0.068,1.406l-0.076-0.252c-0.158,3.182-0.656,6.389-1.209,9.637
		c-0.656,4.148-1.312,8.229-2.1,12.249c-1.192,5.553-2.666,10.922-4.74,16.283c-0.26,0.615-0.534,1.262-0.842,1.965l-1.375,1.951
		c0.598-1.479,1.111-2.773,1.336-3.307c3.554-9.111,5.088-18.674,6.688-28.589c0.997-5.766,1.822-11.398,0.877-17
		c-0.229-1.35-0.643-3.293-1.37-4.273c-1.091-1.838-2.463-3.336-4.083-4.256c-7.331-4.371-15.443-2.805-23.546,4.184
		c-1.827,1.611-3.735,1.041-5.562,2.656l-0.337,0.117c-1.205-1.553-2.365-0.168-3.354,1.16c-2.024,2.422-3.956,5.309-5.72,8.135
		c-5.736,9.869-9.754,21.112-12.253,32.821c-1.162,5.818-2.157,11.586-1.89,17.408c0.094,0.461,0.109,4.23,0.291,5.154
		c0.788,3.92,1.246,7.871,2.775,11.039c1.764,4.32,4.711,6.508,7.779,8.406c2.596,1.326,5.374,0.855,8.272,0.102
		c1.844-0.637,4.054-1.68,5.682-2.947c1.079-0.836,8.804-5.805,13.178-10.791c2.356-2.395,8.544-9.674,15.235-25.699l-0.037,0.051
		c0.09-0.184,0.102-0.219,0.105-0.232c2.592-6.58,5.372-19.393,5.531-20.469C167.186,101.991,168.07,95.037,168.417,89.113z
		 M120.301,100.796c-1.882,5.826-3.641,11.367-5.357,17.13c-0.861,3.748-1.678,7.727-2.661,11.762
		c-0.245,0.58-0.528,0.926-0.777,1.5c0.561-11.529,4.218-21.91,9.186-32.005C120.453,99.755,120.542,100.222,120.301,100.796z
		 M116.461,129.97c-0.166,0.059-0.215-0.174-0.375-0.115c0.842-4.727,1.305-9.568,3.291-13.955
		C118.32,120.458,117.473,125.188,116.461,129.97z M120.31,130.368c0.384-7.031,2.03-14.01,4.779-20.873
		C123.438,116.472,121.957,123.394,120.31,130.368z M159.174,95.264c0.66,1.504,0.1,3.172-0.01,4.441
		c-0.584,5.13-1.883,10.263-3.342,13.722C156.893,107.144,157.89,101.376,159.174,95.264z M147.389,105.483
		c-1.068,5.951-2.453,11.805-4.615,17.516c-2.742,7.359-6.16,14.33-11.086,19.756c-0.732,0.871-1.357,1.502-2.264,2.229
		c-1.435,1.119-1.574,1.164-2.669-0.527c-2.04-3.434-2.687-8.17-2.53-13.4c-0.018-9.088,6.1-23.613,5.525-21.967
		c0.551-1.02,0.919-2.18,1.43-3.391c1.395-3.582,2.994-6.825,5.363-9.296c0.115,0.582,0.091,1.209,0.244,1.986
		c0.929-1.359,1.801-2.281,2.492-3.344c1.823-2.904,3.801-5.037,6.039-6.637c1.571-1.164,2.213-0.971,2.684,1.352
		C148.969,94.594,148.531,99.916,147.389,105.483z M143.321,134.255c2.17-6.172,4.354-11.361,5.993-16.607
		c1.472-5.193,2.392-10.438,3.937-16.146c0,0,0.334-0.115,0.674-0.234c-0.942,11.417-4.596,21.796-9.066,31.722
		C144.616,133.562,144.112,133.737,143.321,134.255z M156.152,132.017c0.012-0.025,0.022-0.049,0.032-0.074l-0.017,0.055
		L156.152,132.017z"/>
	<path fill="#FFFFFF" d="M223.755,164.288c-0.845,3.094-2.304,3.58-4.059,2.238c-0.678-0.674-2.31-1.186-3.489-0.91
		c-1.582,0.264-2.828-0.607-3.928-2.334c-1.768-2.877-2.053-5.494-2.089-9.492c0.01-6.568-0.13-4.906-0.134-11.189
		c-0.137-1.422,0.098-3.145,0.131-4.859c-1.17,0.316-1.666,1.672-2.203,2.529c-2.891,4.617-5.393,7.877-8.376,12.236
		c-1.718,2.9-3.896,5.242-6.099,7.303c-2.748,2.643-5.289,3.283-8.166,2.5c-2.052-0.518-4.274-0.742-6.299-0.973
		c-2.621-0.217-4.412-2.168-6.229-4.406c-3.717-5.328-4.747-11.867-4.69-19.578c0.286-15.715,7.573-40.46,13.587-54.897
		c0.949-2.596,2.155-4.629,3.561-6.664c0.689-1.162,1.661-2.305,2.302-1.633c-0.36,4.58-3.396,8.371-3.9,13.523
		c1.55-2.609,3.126-4.936,4.505-7.258c0.688-1.16,1.149-2.602,1.838-3.76c0.635-1.732,1.803-2.047,2.967-0.365
		c-1.584,4.324-3.113,9.223-4.87,13.836c0.2-0.004,0.399-0.01,0.429,0.275c1.983-4.336,3.938-8.957,5.922-13.295
		c2.561,1.646,2.898,3.064,1.604,6.242c-0.463,1.439-0.951,2.594-1.441,3.748c-0.288,1.152-0.777,2.307-0.668,3.445
		c0.461-1.439,1.123-2.885,1.784-4.33c0.661-1.443,1.494-3.182,1.955-4.621c0.202-0.006,0.401-0.012,0.628,0.27
		c-0.146,0.574-0.062,1.428-0.207,2.004c-3.079,7.508-8.685,24.778-10.71,32.829c0.028,0.285-0.118,0.861,0.108,1.141
		c0.318-0.865,0.463-1.439,0.58-2.299c0.316-0.867,0.633-1.73,0.951-2.598c1.012-4.025,5.977-17.567,7.361-21.89
		c0.633-1.729,1.467-3.465,2.7-5.211c-4.498,13.541-11.624,36.427-13.244,50.749c1.37-0.32,3.017-2.568,3.731-3.443
		c6.316-11.307,12.434-22.605,18.35-33.899c4.909-9.27,8.408-18.014,12.921-27.273c1.032-1.74,2.294-3.201,3.753-4.666
		c0.372-0.299,1.223-0.391,1.596-0.043c0.254,0.234,0.96,0.41,0.22,2.275c-0.464,1.168-0.778,2.307-1.185,4.318
		c1.886-1.193,2.271-3.021,3.382-4.375c1.365-1.666,2.799-0.869,2.678,0.785c-0.045,0.59-0.119,0.861-0.262,1.434
		c2.086-1.195,2.484-1.207,3.902,1.041c0.68,0.838,1.561,1.67,1.871,2.807c0.365,1.703,0.158,3.707-0.648,5.727
		c-1.764,6.615-8.902,24.386-11.128,35.745c-2.657,13.566-1.424,16.85-2.014,30.549c-0.413,3.135,0.451,12.141,0.952,13.861
		C223.986,161.437,224.103,163.437,223.755,164.288z M217.073,88.643c0,0-0.024-0.002-0.174,0.291
		c-9.303,18.208-18.273,36.755-29.031,53.892c0,0-0.172,0.289-0.145,0.572C192.639,140.413,215.899,97.244,217.073,88.643z
		 M210.382,130.698c-4.106,7.25-7.694,13.627-11.482,20.01C203.424,145.733,209.567,134.718,210.382,130.698z M208.044,131.487
		c1.515-2.613,2.688-4.627,3.424-6.607c-0.062-0.598-0.571-1.094-0.519-0.512C209.327,125.868,208.224,127.81,208.044,131.487z"/>
	<polygon fill="#B4D9C5" points="403.771,151.593 403.779,151.604 403.777,151.608 	"/>
	<g>
		<path fill="#FFFFFF" d="M111.255,173.8c1.786,0.945,3.152,2.309,4.1,4.09s1.421,3.898,1.421,6.355
			c0,2.434-0.474,4.535-1.421,6.305s-2.313,3.121-4.1,4.057c-1.787,0.936-3.928,1.402-6.425,1.402h-6.683V172.38h6.683
			C107.328,172.38,109.468,172.853,111.255,173.8z M112.013,191.462c1.647-1.723,2.471-4.129,2.471-7.217
			c0-3.111-0.823-5.539-2.471-7.285c-1.646-1.746-4.041-2.621-7.183-2.621h-4.423v19.709h4.423
			C107.972,194.048,110.367,193.187,112.013,191.462z"/>
		<path fill="#FFFFFF" d="M136.986,187.692h-14.625c0.064,1.398,0.388,2.592,0.969,3.584s1.345,1.74,2.293,2.248
			c0.946,0.508,1.979,0.762,3.099,0.762c1.464,0,2.696-0.373,3.696-1.117c1.002-0.742,1.663-1.746,1.986-3.008h2.389
			c-0.431,1.803-1.352,3.273-2.76,4.412c-1.41,1.137-3.181,1.707-5.312,1.707c-1.657,0-3.143-0.389-4.456-1.166
			c-1.312-0.779-2.34-1.883-3.082-3.314c-0.743-1.43-1.114-3.104-1.114-5.02s0.366-3.594,1.098-5.037
			c0.731-1.441,1.754-2.547,3.067-3.312c1.312-0.766,2.809-1.15,4.487-1.15s3.147,0.385,4.407,1.15
			c1.259,0.766,2.228,1.797,2.905,3.094c0.679,1.295,1.017,2.732,1.017,4.309C137.05,186.646,137.029,187.265,136.986,187.692z
			 M133.968,182.251c-0.549-0.969-1.298-1.701-2.244-2.197c-0.947-0.496-1.98-0.744-3.1-0.744c-1.68,0-3.111,0.562-4.294,1.689
			c-1.185,1.127-1.841,2.717-1.97,4.768h12.398C134.78,184.392,134.517,183.22,133.968,182.251z M131.531,172.108l-6.619,4.023
			v-1.826l6.619-4.326V172.108z"/>
		<path fill="#FFFFFF" d="M143.605,170.993v25.016h-2.26v-25.016H143.605z"/>
		<path fill="#FFFFFF" d="M148.867,173.562c-0.322-0.338-0.484-0.754-0.484-1.25s0.162-0.906,0.484-1.234
			c0.323-0.326,0.711-0.49,1.162-0.49c0.453,0,0.84,0.164,1.162,0.49c0.323,0.328,0.484,0.738,0.484,1.234s-0.161,0.912-0.484,1.25
			c-0.322,0.338-0.709,0.508-1.162,0.508C149.578,174.069,149.19,173.899,148.867,173.562z M151.16,177.552v18.457h-2.26v-18.457
			H151.16z"/>
		<path fill="#FFFFFF" d="M156.518,181.761c0.731-1.432,1.743-2.535,3.034-3.314c1.292-0.777,2.766-1.166,4.424-1.166
			c2.174,0,3.965,0.564,5.375,1.691s2.319,2.658,2.729,4.598h-2.422c-0.301-1.33-0.952-2.373-1.953-3.127
			c-1-0.756-2.244-1.133-3.729-1.133c-1.184,0-2.25,0.281-3.196,0.846c-0.947,0.562-1.695,1.402-2.244,2.518
			s-0.823,2.484-0.823,4.107s0.274,2.998,0.823,4.125s1.297,1.973,2.244,2.535c0.946,0.562,2.013,0.846,3.196,0.846
			c1.484,0,2.729-0.379,3.729-1.133c1.001-0.756,1.652-1.809,1.953-3.162h2.422c-0.409,1.895-1.324,3.414-2.744,4.564
			c-1.421,1.148-3.207,1.725-5.359,1.725c-1.658,0-3.132-0.389-4.424-1.166c-1.291-0.779-2.303-1.883-3.034-3.314
			c-0.731-1.43-1.098-3.104-1.098-5.02S155.787,183.192,156.518,181.761z"/>
		<path fill="#FFFFFF" d="M192.291,187.692h-14.626c0.065,1.398,0.388,2.592,0.969,3.584s1.345,1.74,2.292,2.248
			s1.98,0.762,3.1,0.762c1.463,0,2.695-0.373,3.697-1.117c1-0.742,1.662-1.746,1.984-3.008h2.39
			c-0.431,1.803-1.351,3.273-2.761,4.412c-1.41,1.137-3.18,1.707-5.311,1.707c-1.658,0-3.143-0.389-4.455-1.166
			c-1.313-0.779-2.341-1.883-3.084-3.314c-0.742-1.43-1.113-3.104-1.113-5.02s0.365-3.594,1.098-5.037
			c0.731-1.441,1.754-2.547,3.066-3.312c1.313-0.766,2.81-1.15,4.488-1.15s3.148,0.385,4.407,1.15s2.228,1.797,2.905,3.094
			c0.678,1.295,1.018,2.732,1.018,4.309C192.355,186.646,192.333,187.265,192.291,187.692z M189.271,182.251
			c-0.549-0.969-1.297-1.701-2.244-2.197s-1.98-0.744-3.099-0.744c-1.679,0-3.11,0.562-4.294,1.689s-1.84,2.717-1.97,4.768h12.397
			C190.083,184.392,189.82,183.22,189.271,182.251z"/>
		<path fill="#FFFFFF" d="M197.762,194.81c-1.28-0.98-1.997-2.316-2.147-4.006h2.324c0.108,1.037,0.576,1.875,1.405,2.518
			c0.828,0.643,1.942,0.965,3.341,0.965c1.228,0,2.19-0.305,2.891-0.914c0.699-0.607,1.049-1.363,1.049-2.264
			c0-0.631-0.193-1.15-0.581-1.557c-0.388-0.404-0.878-0.727-1.47-0.963s-1.393-0.49-2.404-0.76
			c-1.313-0.361-2.379-0.723-3.197-1.082c-0.817-0.361-1.512-0.896-2.082-1.605c-0.57-0.711-0.855-1.662-0.855-2.857
			c0-0.9,0.258-1.734,0.775-2.502c0.516-0.766,1.248-1.375,2.195-1.826c0.947-0.449,2.022-0.676,3.229-0.676
			c1.894,0,3.422,0.502,4.584,1.506c1.162,1.002,1.787,2.383,1.873,4.141h-2.26c-0.064-1.082-0.469-1.955-1.211-2.621
			c-0.742-0.664-1.76-0.996-3.051-0.996c-1.142,0-2.066,0.281-2.777,0.846c-0.71,0.562-1.064,1.262-1.064,2.096
			c0,0.721,0.209,1.312,0.629,1.773c0.42,0.463,0.941,0.824,1.566,1.082c0.623,0.26,1.463,0.547,2.518,0.863
			c1.27,0.359,2.281,0.709,3.035,1.047c0.753,0.338,1.398,0.834,1.938,1.488c0.537,0.654,0.817,1.521,0.839,2.604
			c0,0.99-0.259,1.875-0.774,2.652c-0.518,0.777-1.238,1.393-2.164,1.844c-0.926,0.449-1.99,0.676-3.195,0.676
			C200.695,196.28,199.042,195.79,197.762,194.81z"/>
		<path fill="#FFFFFF" d="M226.048,181.761c0.733-1.432,1.739-2.535,3.02-3.314c1.279-0.777,2.729-1.166,4.342-1.166
			c1.551,0,2.949,0.395,4.197,1.184s2.164,1.814,2.744,3.076v-10.547h2.26v25.016h-2.26v-4.123c-0.539,1.283-1.42,2.338-2.646,3.16
			c-1.229,0.822-2.67,1.234-4.326,1.234c-1.615,0-3.062-0.395-4.344-1.184s-2.281-1.904-3.002-3.348
			c-0.722-1.441-1.082-3.109-1.082-5.002C224.951,184.853,225.317,183.192,226.048,181.761z M239.48,182.858
			c-0.582-1.127-1.373-1.994-2.373-2.604c-1.002-0.607-2.105-0.912-3.311-0.912c-1.248,0-2.367,0.293-3.357,0.879
			s-1.77,1.438-2.34,2.553s-0.855,2.439-0.855,3.973c0,1.51,0.285,2.834,0.855,3.971c0.57,1.139,1.35,2.008,2.34,2.604
			c0.99,0.598,2.109,0.896,3.357,0.896c1.205,0,2.309-0.305,3.311-0.912c1-0.609,1.791-1.477,2.373-2.604
			c0.58-1.127,0.871-2.434,0.871-3.922S240.061,183.985,239.48,182.858z"/>
		<path fill="#FFFFFF" d="M263.209,177.552v18.457h-2.26v-3.244c-0.518,1.148-1.314,2.027-2.389,2.637
			c-1.078,0.607-2.283,0.912-3.617,0.912c-2.109,0-3.83-0.682-5.166-2.045c-1.334-1.363-2-3.342-2-5.934v-10.783h2.227v10.514
			c0,2.006,0.479,3.537,1.438,4.598c0.957,1.059,2.264,1.588,3.922,1.588c1.701,0,3.057-0.562,4.068-1.689s1.518-2.783,1.518-4.971
			v-10.039H263.209z"/>
		<path fill="#FFFFFF" d="M307.283,179.259c1.301,1.363,1.953,3.342,1.953,5.934v10.816h-2.229v-10.547
			c0-2.006-0.463-3.537-1.389-4.598c-0.926-1.059-2.184-1.588-3.777-1.588c-1.656,0-2.98,0.574-3.971,1.723
			c-0.99,1.15-1.484,2.818-1.484,5.004v10.006h-2.229v-10.547c0-2.006-0.463-3.537-1.389-4.598
			c-0.926-1.059-2.195-1.588-3.809-1.588c-1.658,0-2.982,0.574-3.971,1.723c-0.99,1.15-1.486,2.818-1.486,5.004v10.006h-2.26
			v-18.457h2.26v3.178c0.561-1.15,1.357-2.023,2.391-2.621c1.031-0.596,2.184-0.895,3.453-0.895c1.529,0,2.869,0.383,4.02,1.148
			c1.152,0.768,1.986,1.893,2.502,3.381c0.475-1.465,1.287-2.586,2.438-3.363c1.152-0.777,2.459-1.166,3.924-1.166
			C304.297,177.214,305.98,177.896,307.283,179.259z"/>
		<path fill="#FFFFFF" d="M317.646,195.114c-1.324-0.779-2.367-1.883-3.131-3.314c-0.766-1.43-1.146-3.104-1.146-5.02
			s0.387-3.588,1.162-5.02s1.828-2.535,3.164-3.314c1.334-0.777,2.83-1.166,4.486-1.166c1.658,0,3.16,0.389,4.504,1.166
			c1.346,0.779,2.4,1.883,3.164,3.314s1.146,3.104,1.146,5.02c0,1.893-0.387,3.561-1.162,5.004c-0.775,1.441-1.84,2.551-3.195,3.33
			c-1.357,0.777-2.863,1.166-4.521,1.166C320.461,196.28,318.971,195.892,317.646,195.114z M325.346,193.39
			c0.99-0.553,1.793-1.387,2.406-2.502s0.92-2.484,0.92-4.107s-0.301-2.992-0.904-4.107s-1.398-1.949-2.389-2.502
			c-0.99-0.551-2.066-0.828-3.229-0.828s-2.238,0.277-3.229,0.828c-0.99,0.553-1.781,1.387-2.373,2.502s-0.889,2.484-0.889,4.107
			s0.297,2.992,0.889,4.107s1.377,1.949,2.357,2.502c0.979,0.553,2.049,0.828,3.211,0.828S324.355,193.942,325.346,193.39z"/>
		<path fill="#FFFFFF" d="M348.721,179.259c1.334,1.363,2.002,3.342,2.002,5.934v10.816h-2.229v-10.547
			c0-2.006-0.479-3.537-1.436-4.598c-0.959-1.059-2.266-1.588-3.924-1.588c-1.699,0-3.055,0.562-4.066,1.689
			s-1.518,2.783-1.518,4.969v10.074h-2.26v-18.457h2.26v3.143c0.559-1.125,1.365-1.988,2.422-2.586
			c1.053-0.596,2.248-0.895,3.582-0.895C345.664,177.214,347.387,177.896,348.721,179.259z"/>
		<path fill="#FFFFFF" d="M355.953,181.761c0.73-1.432,1.738-2.535,3.018-3.314c1.281-0.777,2.729-1.166,4.344-1.166
			c1.549,0,2.947,0.395,4.197,1.184c1.248,0.789,2.162,1.814,2.744,3.076v-10.547h2.26v25.016h-2.26v-4.123
			c-0.539,1.283-1.422,2.338-2.648,3.16s-2.668,1.234-4.326,1.234c-1.613,0-3.062-0.395-4.342-1.184
			c-1.281-0.789-2.281-1.904-3.004-3.348c-0.721-1.441-1.08-3.109-1.08-5.002C354.855,184.853,355.221,183.192,355.953,181.761z
			 M369.383,182.858c-0.58-1.127-1.371-1.994-2.373-2.604c-1-0.607-2.104-0.912-3.309-0.912c-1.248,0-2.367,0.293-3.357,0.879
			s-1.771,1.438-2.342,2.553s-0.855,2.439-0.855,3.973c0,1.51,0.285,2.834,0.855,3.971c0.57,1.139,1.352,2.008,2.342,2.604
			c0.99,0.598,2.109,0.896,3.357,0.896c1.205,0,2.309-0.305,3.309-0.912c1.002-0.609,1.793-1.477,2.373-2.604
			c0.582-1.127,0.873-2.434,0.873-3.922S369.965,183.985,369.383,182.858z"/>
		<path fill="#FFFFFF" d="M393.727,187.692h-14.625c0.064,1.398,0.387,2.592,0.969,3.584c0.58,0.992,1.344,1.74,2.291,2.248
			s1.98,0.762,3.1,0.762c1.465,0,2.697-0.373,3.697-1.117c1-0.742,1.662-1.746,1.986-3.008h2.389
			c-0.432,1.803-1.352,3.273-2.762,4.412c-1.408,1.137-3.18,1.707-5.311,1.707c-1.656,0-3.143-0.389-4.455-1.166
			c-1.312-0.779-2.34-1.883-3.084-3.314c-0.742-1.43-1.113-3.104-1.113-5.02s0.365-3.594,1.098-5.037
			c0.732-1.441,1.754-2.547,3.068-3.312c1.312-0.766,2.809-1.15,4.486-1.15c1.68,0,3.148,0.385,4.408,1.15
			c1.258,0.766,2.227,1.797,2.904,3.094c0.678,1.295,1.018,2.732,1.018,4.309C393.791,186.646,393.77,187.265,393.727,187.692z
			 M390.707,182.251c-0.549-0.969-1.297-1.701-2.242-2.197c-0.947-0.496-1.98-0.744-3.1-0.744c-1.68,0-3.111,0.562-4.295,1.689
			s-1.84,2.717-1.969,4.768h12.396C391.52,184.392,391.256,183.22,390.707,182.251z"/>
	</g>
</g>
</svg>
