<?xml version="1.0" encoding="utf-8"?>
<!-- Generator: Adobe Illustrator 16.0.0, SVG Export Plug-In . SVG Version: 6.00 Build 0)  -->
<!DOCTYPE svg PUBLIC "-//W3C//DTD SVG 1.1//EN" "http://www.w3.org/Graphics/SVG/1.1/DTD/svg11.dtd">
<svg version="1.1" id="Calque_1" xmlns="http://www.w3.org/2000/svg" xmlns:xlink="http://www.w3.org/1999/xlink" x="0px" y="0px"
	 width="64px" height="67px" viewBox="0 0 64 67" enable-background="new 0 0 64 67" xml:space="preserve">
<g>
	<g id="Dark_Blue">
		<circle fill="#1DA1F2" cx="32.235" cy="33.608" r="25.301"/>
	</g>
	<g id="Logo__x2014__FIXED">
		<path fill="#FFFFFF" d="M27.604,46.955c11.222,0,17.355-9.295,17.355-17.354c0-0.267,0-0.532-0.011-0.785
			c1.189-0.86,2.227-1.937,3.048-3.163c-1.087,0.48-2.264,0.81-3.504,0.962c1.265-0.76,2.227-1.948,2.683-3.378
			c-1.177,0.695-2.481,1.202-3.872,1.48c-1.112-1.189-2.694-1.923-4.453-1.923c-3.363,0-6.098,2.732-6.098,6.097
			c0,0.481,0.052,0.948,0.165,1.392c-5.073-0.253-9.564-2.682-12.575-6.376c-0.519,0.899-0.822,1.948-0.822,3.062
			c0,2.112,1.075,3.984,2.72,5.072c-0.998-0.025-1.936-0.303-2.758-0.759c0,0.026,0,0.05,0,0.077c0,2.96,2.102,5.414,4.896,5.983
			c-0.506,0.14-1.049,0.215-1.607,0.215c-0.392,0-0.771-0.038-1.149-0.115c0.771,2.431,3.022,4.188,5.693,4.237
			c-2.088,1.633-4.721,2.608-7.579,2.608c-0.492,0-0.974-0.027-1.455-0.091C20.95,45.945,24.164,46.955,27.604,46.955"/>
	</g>
</g>
</svg>
