<?xml version="1.0" encoding="utf-8"?>
<!-- Generator: Adobe Illustrator 16.0.0, SVG Export Plug-In . SVG Version: 6.00 Build 0)  -->
<!DOCTYPE svg PUBLIC "-//W3C//DTD SVG 1.1//EN" "http://www.w3.org/Graphics/SVG/1.1/DTD/svg11.dtd">
<svg version="1.1" id="Calque_1" xmlns="http://www.w3.org/2000/svg" xmlns:xlink="http://www.w3.org/1999/xlink" x="0px" y="0px"
	 width="29.716px" height="24.161px" viewBox="10.476 13.503 29.716 24.161" enable-background="new 10.476 13.503 29.716 24.161"
	 xml:space="preserve">
<g>
	<g id="Logo__x2014__FIXED">
		<path fill="#FFFFFF" d="M19.799,37.665c11.223,0,17.356-9.295,17.356-17.354c0-0.268,0-0.532-0.012-0.785
			c1.189-0.859,2.227-1.938,3.049-3.163c-1.088,0.479-2.264,0.81-3.504,0.962c1.264-0.76,2.227-1.948,2.682-3.378
			c-1.176,0.695-2.48,1.202-3.871,1.479c-1.111-1.188-2.693-1.923-4.453-1.923c-3.363,0-6.098,2.732-6.098,6.098
			c0,0.481,0.053,0.948,0.164,1.392c-5.073-0.253-9.563-2.682-12.575-6.376c-0.519,0.899-0.822,1.948-0.822,3.062
			c0,2.113,1.075,3.984,2.72,5.072c-0.998-0.024-1.936-0.303-2.758-0.758c0,0.025,0,0.049,0,0.076c0,2.959,2.102,5.415,4.896,5.982
			c-0.506,0.142-1.049,0.216-1.607,0.216c-0.392,0-0.771-0.037-1.149-0.115c0.771,2.433,3.022,4.188,5.693,4.238
			c-2.088,1.633-4.721,2.606-7.58,2.606c-0.492,0-0.974-0.027-1.455-0.092C13.146,36.655,16.359,37.665,19.799,37.665"/>
	</g>
</g>
</svg>
