<?xml version="1.0" encoding="utf-8"?>
<!-- Generator: Adobe Illustrator 16.0.0, SVG Export Plug-In . SVG Version: 6.00 Build 0)  -->
<!DOCTYPE svg PUBLIC "-//W3C//DTD SVG 1.1//EN" "http://www.w3.org/Graphics/SVG/1.1/DTD/svg11.dtd">
<svg version="1.1" id="Calque_1" xmlns="http://www.w3.org/2000/svg" xmlns:xlink="http://www.w3.org/1999/xlink" x="0px" y="0px"
	 width="739.944px" height="350.802px" viewBox="-100.888 -128.651 739.944 350.802"
	 enable-background="new -100.888 -128.651 739.944 350.802" xml:space="preserve">
<g>
	<path fill="#428680" d="M-61.02,146.019L-61.02,146.019L-61.02,146.019L-61.02,146.019z M-53.652,152.718L-53.652,152.718
		L-53.652,152.718L-53.652,152.718L-53.652,152.718z M-42.796,152.098h-0.002v-0.004L-42.796,152.098z M-34.423,155.717
		c-0.008,0.002-0.008,0.002-0.015,0.006c-0.007-0.004-0.007-0.01-0.012-0.013C-34.438,155.713-34.431,155.717-34.423,155.717z
		 M-22.635,151.32c-0.007,0-0.011,0-0.014,0c0.003,0,0.007,0,0.01,0C-22.635,151.32-22.635,151.32-22.635,151.32z M-15.05,152.716
		c0,0,0,0-0.005,0l0.005-0.002V152.716z M-72.976,131.539c-0.041,0-0.08-0.005-0.125-0.01c0.04-0.004,0.08-0.012,0.118-0.021
		C-72.979,131.525-72.979,131.527-72.976,131.539z M-84.023,128.793c-0.003,0-0.012,0.012-0.019,0.016
		c-0.006-0.009-0.011-0.016-0.024-0.021C-84.048,128.788-84.035,128.793-84.023,128.793z M-43.983,90.027L-43.983,90.027
		L-43.983,90.027c-0.004,0-0.007,0-0.007,0H-43.983z M-41.282,89.577c-0.001,0.002-0.001,0.002-0.003,0.002l0,0L-41.282,89.577z
		 M-11.671,95.072c-0.014,0.008-0.034,0.012-0.045,0.017c0.005-0.005,0.005-0.009,0.011-0.011
		C-11.699,95.075-11.685,95.075-11.671,95.072z M22.861,116.804c0-0.004,0.002-0.004,0.002-0.004s0.005,0,0.005,0.004H22.861z
		 M2.701,87.312c-0.021-0.004-0.042-0.014-0.07-0.014c0.024-0.002,0.036-0.006,0.051-0.006C2.69,87.296,2.693,87.306,2.701,87.312z
		 M35.368,160.158c0.02,0.01,0.043,0.021,0.073,0.03c0.159,0.024,0.318,0.014,0.478,0.014c-0.052,0.033-0.154,0.011-0.233,0.026
		c-0.633,0.124-0.092,0.266-0.035,0.399c-0.285,0-0.423-0.163-0.74-0.11c-0.393-0.092-0.696-0.068-0.917,0.07
		c-0.091-0.088-0.197-0.169-0.544-0.145c-0.019,0.006-0.042,0.017-0.065,0.026c0,0,0,0,0-0.01H33.38
		c0.028-0.011,0.057-0.017,0.085-0.024c-0.003-0.017-0.01-0.038-0.01-0.054c-0.002-0.075-0.628-0.062-0.353-0.185
		c0.035-0.002,0.065-0.002,0.101-0.002C33.924,160.184,34.647,160.17,35.368,160.158z M38.555,157.374v0.007
		c-0.007,0-0.007,0-0.012-0.005C38.548,157.374,38.555,157.374,38.555,157.374z M43.185,158.91c0,0,0,0,0-0.002l0,0
		C43.185,158.91,43.185,158.91,43.185,158.91z M406.646,99.457L406.646,99.457L406.646,99.457L406.646,99.457z M368.301,95.104
		L368.301,95.104L368.301,95.104L368.301,95.104z M207.375,163.781l0.007-0.005l0,0L207.375,163.781z M393.676,130.884l-0.486-0.104
		l0,0c-0.184-0.095-0.438-0.177-0.695-0.133c-0.464,0.079-0.6,0-0.84-0.162l-1.87-0.672c0.122-0.014,0.214-0.061,0.317-0.097
		c1.224-0.104,2.441-0.206,3.702-0.163l3.757-0.476c0.625-0.062,1.333,0.014,1.999,0.021c1.131,0.017,2.267,0.046,3.176-0.34
		c0.174-0.073,0.372-0.054,0.571-0.058l-3.328-0.812c-0.743,0.065-1.478,0.086-2.225,0.023c-0.619-0.046-1.168,0.017-1.76,0.136
		c0,0-2.193,0.62-2.555,0.587c-0.365-0.029-0.365-0.023-0.365-0.023c-0.104-0.014-0.213-0.03-0.318-0.062
		c-0.52-0.112-0.973-0.049-1.396,0.104c-0.065,0.018-0.116,0.033-0.185,0.049c-0.29,0.01-0.583,0.025-0.878,0.039l0.132-0.428
		c0.817-0.229,1.678-0.188,2.555-0.146l1.634-0.602c0.14-0.019,0.276-0.047,0.402-0.081c0.028,0,0.052,0.004,0.077,0.006
		c0.777,0.132,1.544-0.109,2.313-0.032h0.005c1.003,0.233,2.997-0.284,3.92-0.479l0.291-0.028l0.565,0.438
		c2.098-0.021,4.163-0.199,6.254-0.229l0,0l0,0c0.841,0.131,1.646,0.184,2.445-0.08c0.197-0.062,0.439,0.023,0.653,0.061
		c0.15-0.229,0.784-0.107,1.027-0.281c0.136-0.023,0.269-0.056,0.409-0.089c0.543-0.002,1.09-0.007,1.641-0.009
		c0.603,0.131,1.015-0.104,1.614-0.139c-0.262-0.203,0.077-0.457,0.741-0.404c0.287,0.025,0.574,0.072,0.878,0.062
		c0.093-0.002,0.191-0.019,0.293-0.032c-0.702-0.494,1.284-0.297,0.955-0.703c0.09-0.152-0.008-0.276-0.413-0.225
		c-0.351,0.05-0.629,0.007-0.928-0.038l0,0c-0.287-0.114-0.188-0.187,0.152-0.189c0.536-0.011,1.086-0.034,1.617-0.011
		c1.944,0.089,3.897,0.046,5.823,0.002c0.973-0.032,2.028-0.192,3.169-0.281c-0.469-0.295-1.12-0.131-1.561-0.264
		c-0.373-0.102-0.529-0.173-0.071-0.294l0,0c0.551-0.181,1.108-0.362,1.66-0.538c0.374-0.067,0.487-0.304,0.978-0.304
		c0.065-0.004,0.13,0.006,0.199,0.006l0,0c0.746-0.002,1.423-0.067,1.964-0.328c0.145-0.069,0.336-0.116,0.301-0.217
		c-0.115-0.335,0.248-0.306,0.787-0.231c0.594,0.076,0.604,0.061,0.669-0.331c0.717,0.38,1.274,0.059,1.925-0.032
		c0.26-0.033,0.377,0.044,1.787-0.31c-0.011-0.019-0.039-0.03-0.055-0.047l0,0c0.016,0.017,0.035,0.028,0.055,0.047
		c0.824,0.288,1.591-0.002,2.301-0.109c0.702-0.108,0.57-0.357-0.293-0.653c-0.337-0.173-0.271-1.588-0.367-1.785
		c-0.245-0.461-1.274-0.673-2.164-0.385c-0.353,0.118-0.601,0.288-1.078,0.108c-0.021-0.007-0.085-0.013-0.095-0.002
		c-0.616,0.451-1.221,0.044-1.829,0.006c-0.582,0.176-0.789-0.18-1.254-0.163c-0.069-0.025-0.136-0.059-0.199-0.089
		c-0.526-0.215-1.23-0.192-1.867-0.256c-0.33-0.096-0.572-0.24-0.981-0.286c-0.042-0.191,0.053-0.348,0.526-0.426
		c0.191-0.029,0.275-0.091,0.161-0.176c-0.13-0.084-0.306-0.065-0.399,0.012c-0.173,0.127-0.365,0.09-0.599,0.05
		c-0.515-0.091-0.984-0.297-1.531,0.065c-0.228,0.143-0.968-0.038-1.375-0.149c-0.834-0.231-3.52-0.293-3.574-0.13
		c-1.622-0.247-3.347-0.166-5.017-0.249c-0.271-0.017-0.443,0.06-0.661,0.077c-0.357,0.018-0.729,0.121-0.942-0.162
		c-0.176-0.23-0.874-0.229-1.385-0.288l0,0c-0.446-0.098-0.888-0.195-1.355-0.291c0.155-0.074,0.26-0.166,0.425-0.191
		c0.676-0.11,0.968-0.267,0.616-0.581c-0.104-0.093,0.201-0.098,0.311-0.148c0.882,0.019,1.317-0.406,2.163-0.438
		c0.12-0.007,0.276-0.16,0.176-0.173c-0.796-0.141-0.76-0.596-1.52-0.729c-0.276-0.455-0.867-1.94-2.046-1.904
		c-0.424-0.158-0.783-0.358-1.427-0.349c-0.209-0.061-0.42-0.119-0.627-0.181c-0.127-0.112-0.653-0.047-0.604-0.248
		c0.358-0.109,1.154-0.111,0.63-0.452c0.8-0.074,1.598-0.149,2.391-0.222c0.283,0.029,0.564,0.067,0.847,0.101
		c0.713,0.141,1.43,0.104,2.083-0.068c0.516-0.127,1.029-0.213,1.613-0.229c0.879-0.157,1.864-0.119,2.673-0.475
		c0.168-0.075,0.418-0.181,0.727-0.267c0.166-0.028,0.33-0.057,0.5-0.087c0.219-0.028,0.459-0.036,0.71-0.008
		c0.443,0.043,0.705-0.179,1.083-0.262c0.066-0.01,0.136-0.015,0.202-0.031c0.076-0.005,0.155-0.005,0.237,0.007
		c0.824,0.224,0.837,0.224,0.908-0.149c0.031-0.157,0.335-0.147,0.514-0.161c1.343-0.11,2.645-0.256,3.953-0.419
		c0.378-0.048,0.949-0.136,1.246,0.138c0.1,0.107,0.271,0.042,0.337-0.039c0.139-0.162,0.387-0.164,0.645-0.078
		c0.604,0.194,0.901-0.009,1.287-0.163c-0.162-0.137-0.735-0.058-0.682-0.275c0.115-0.498-0.736-0.441-1.415-0.441
		c-0.392,0.002-0.576-0.047-0.418-0.204c0.122-0.131,0.291-0.238-0.042-0.389c-0.377,0.215-0.825,0.396-1.398,0.494
		c-0.321-0.49-1.059,0.126-2.784,0.105c0,0-0.531-0.072-0.798-0.104c-0.367-0.32-1.312-1.464-2.188-1.135l0,0
		c-0.179-0.005-0.335,0.014-0.45,0.076c-0.801,0.005-0.519,0.27-0.573,0.461l0,0c-0.481,0.033-0.957,0.07-1.434,0.102
		c-0.267-0.152-0.509-0.028-0.764,0.021c-0.63-0.026-0.644,0.236-0.901,0.377c-0.204-0.018-0.183-0.096-0.188-0.137
		c0.005-0.23,0.645-0.519-0.251-0.651c-0.545-0.087-1.091-0.201-1.729-0.138c-0.359,0.038-0.743,0.021-1.107,0.028
		c-0.137,0.106-0.999,0.072-0.355,0.33c-0.134,0.188,0.658,0.243,0.329,0.45l0,0c-0.623,0.119-0.301-0.232-0.783-0.298
		c-0.676-0.089-0.956,0.798-1.684,0.824c-0.133,0-0.258-1.166-0.391-1.154c-0.317,0.002-0.645-0.014-0.968-0.004
		c-0.354,0.014-0.36-0.067-0.289-0.175c0.144-0.115,0.1-0.231,0.021-0.343c-0.225-0.161-0.681-0.159-1.019-0.237
		c-0.468-0.107-0.671,0.044-0.583,0.258c-0.244,0.186-0.824-0.028-1.062,0.17c-0.135,0.002-0.272,0.002-0.399,0
		c-0.149-0.317-0.791-0.453-1.315-0.596c-0.416-0.111-1.334-0.509-1.649-0.469c-0.401,0.041-0.844,0.335-0.844,0.335
		c-0.807,0.684-2.264,0.426-2.421,0.015c0.192-0.003,0.438,0.036,0.536-0.056c0.064-0.066-0.116-0.133-0.278-0.153
		c-0.218-0.029-0.448-0.045-0.673-0.065c-0.746-0.323-3.326,0.416-3.9,0.402c-0.125-0.005,0.164-0.064,0.173-0.099
		c0.085-0.213-0.763,0.67-1.315,0.672l-0.463-0.079c-0.58-0.102-0.859-0.593-1.46-0.752c-0.104-0.035-0.239-0.099-0.319-0.086
		l-1.095-0.059c-0.267,0.124-0.499,0.093-0.709,0.007c-0.685-0.277-0.979-1.092-1.738-0.956c-0.325-0.166-0.666-0.012-0.99,0
		c-0.588-0.002-0.605,0.162-0.604,0.389c0.301-0.043,0.553-0.086,0.808-0.124l0.014-0.005c0.004,0.028,0.015,0.059,0.015,0.092l0,0
		l0,0c-0.374,0.113-1.962,0.583-2.262,0.494c-0.266-0.085-0.531-0.094-0.809-0.125c0.113-0.3,0.708-0.555,0.364-0.877
		c-0.392-0.004-0.784-0.006-1.173,0c-1.073,0.014-1.775-0.862-2.813-0.722c-0.287,0.039-0.223-0.148-0.284-0.24
		c-0.039-0.065-0.19-0.128-0.037-0.193c0.153-0.073,0.292-0.002,0.437,0.016c0,0,0.621,0.022,1.006-0.083
		c0.185-0.043,0.385-0.113,0.26-0.202c-0.27-0.186-0.715-0.192-1.161-0.162c-0.574,0.198-1.013-0.021-1.44-0.113
		c-0.266-0.06,0.21-0.147,0.181-0.253c0.015-0.021,0.025-0.043,0.029-0.066c0.911-0.01,1.775-0.06,2.667-0.21
		c1.142-0.186,2.523-0.012,3.901,0.057c-0.531-0.15,2.373-0.638,4.527-0.613l0.663,0.289c0.418-0.049,0.869-0.051,1.229-0.184
		l0.524-0.116c0,0,0.801,0.321,0.962,0.43c0.161,0.104,3.311,0.403,3.281,0.177l0,0c0.684-0.133,1.778-0.257,2.073,0.069
		c-0.181,0.074-0.424,0.122-0.482,0.245c-0.035,0.084,0.154,0.082,0.315,0.044c0.213-0.051,0.436-0.116,0.652-0.178
		c0.814,0.036,2.235-0.198,2.235-0.198c1.262,0.133,2.546,0.403,3.797,0.372c2.022-0.052,15.782,0.285,19.376,0.849
		c1.32,0.205,2.703-0.849,4.178-0.925c0.146-0.163-0.085-0.185-0.253-0.227c-1.278-0.309-2.666-0.473-4.098-0.573
		c-0.325-0.022-0.691,0.031-0.973-0.082c-0.009-0.04,0.021-0.098-0.035-0.129c-0.344-0.194-2.351-0.48-3.619-0.566
		c-0.251-0.021-0.502-0.039-0.769-0.016c-0.042,0.008-0.083,0.008-0.116,0.014c-0.307,0.011-0.626,0.034-0.871-0.071
		c-0.77-0.345-1.795-0.373-2.792-0.435l0,0c-1.474-0.663-3.338-0.448-5.119-0.413l0,0l0,0c0.047-0.089,0.275-0.25-0.089-0.24
		c-0.962,0.023-1.846-0.133-2.767-0.168c-0.072-0.002-0.155,0.05-0.232,0.076c-0.32-0.181-0.608-0.334-1.25-0.222
		c-0.476,0.092-0.693-0.252-1.219-0.214c-0.172-0.16-0.314-0.31-0.877-0.216c-0.359,0.066-0.783,0.044-1.177,0.063l0,0
		c-0.1-0.12-0.065-0.189,0.294-0.192c0.319-0.002,0.685,0.046,0.939-0.096c0.686-0.072,1.421-1.23,2.075-1.385
		c1.181-0.145,2.367-0.027,3.554-0.037c0.573-0.004,1.138-0.024,1.694-0.176c-0.429-0.217-1.163-0.197-1.579-0.436
		c0.486-0.143,1.044-0.116,1.53-0.106c1.803,0.021,3.614-0.026,5.403,0.102c0.771,0.051,1.559,0.062,2.334-0.03
		c0.262-0.024,0.545-0.027,0.646-0.173c0.386-0.548,1.503-0.633,2.455-0.59c1.503,0.077,2.55-0.357,3.927-0.495
		c-0.291-0.227-0.76-0.215-1.15-0.264c-0.253-0.284-0.111-0.549,0.223-0.801c0.065-0.128,0.028-0.147-0.41-0.199
		c-0.646-0.133-1.196-0.008-1.818,0.083c-0.792,0.114-1.673,0.102-2.516,0.146c-0.99-0.212-2.104-0.212-3.156-0.291
		c-4.17-0.304-8.36-0.54-12.622-0.417c-0.76-0.123-1.481,0.258-2.248,0.041c0-0.152-0.002-0.305-0.008-0.46l0,0
		c0.217-0.002,0.357-0.25,0.615-0.055c0.383,0.306,0.483-0.355,0.948-0.045c0.104,0.071,0.82,0.032,0.461-0.283
		c-0.137-0.129,0.411-0.254,0.694-0.254c1.59,0.02,3.126-0.316,4.687-0.209c0.714,0.05,1.494-0.197,2.169,0.099
		c0.155,0.067,0.43-0.117,0.611-0.194c0.274-0.119-0.159-0.11-0.218-0.174c-0.076-0.077-0.093-0.167-0.129-0.249
		c-0.092-0.209,0.006-0.432-0.877-0.296c-0.647,0.104-1.022-0.193-1.192-0.469c-0.29,0.008-0.482-0.068-0.722-0.118
		c-0.966-0.186-1.731-0.612-2.975-0.485c-0.119-0.187-0.551-0.167-0.851-0.241c0.23-0.199,0.057-0.293-0.393-0.286
		c-0.62,0.009-1.169-0.014-1.692-0.207c-0.377-0.133-32.251-0.66-32.711-0.589l-12.434-0.462c-0.548,0.02-0.442-6.694-0.096-6.359
		c-0.572,0.037-0.3-0.216-0.612-0.263c-0.238,0.187,0.134,0.49-0.66,0.54c-0.018-0.294-0.79-0.341-1.232-0.526
		c0.062-0.088,0.39-0.172,0.03-0.266c0.05-0.019,0.103-0.047,0.162-0.055c0.287-0.059,0.797-0.084,0.606-0.277
		c-0.198-0.2-0.872-0.151-1.056-0.06c-0.48,0.243-0.705,0.178-1.038-0.038c-0.106-0.075-0.57-0.103-0.485,0.05
		c0.136,0.252-0.436,0.432-0.256,0.669c-0.001,0.092,0.001,0.188,0.003,0.278c-0.043,0.207,0.07,0.455-0.75,0.432
		c-0.354-0.004-0.63,0.139-0.703,0.283c-0.112,0.219,0.592,0.155,0.68,0.319c-0.268,0.103-0.426-0.036-0.634-0.043
		c-0.245-0.014-0.484-0.004-0.637,0.102c-0.118,0.086-1.725,0.284-2.505,0.32c-0.377,0.021-0.277-0.132-0.366-0.215
		c-0.108-0.228,0.411-0.244,0.615-0.36c0.26-0.323,0.569-0.636-0.157-0.929c-0.602-0.231-0.509-0.404,0.262-0.489
		c0.357-0.037,0.745-0.018,1.116-0.026c0.018,0.072,0.053,0.146,0.05,0.214c-0.009,0.176,0.207,0.252,0.571,0.216
		c0.422-0.052,0.262-0.162,0.119-0.27c-0.047-0.039,0.057-0.11,0.101-0.164c0.379-0.11,1.484-0.055,0.453-0.469
		c-0.382-0.153,0.328-0.304,0.544-0.444c0.472,0.033,0.895-0.345,1.41-0.047c0.059,0.035,0.205-0.049,0.258-0.111
		c0.052-0.064,0.03-0.119-0.14-0.133c-0.92-0.079-1.842-0.217-2.752,0.036c-0.78,0.271-1.211-0.19-1.88-0.152
		c-0.135-0.033-0.259-0.068-0.39-0.096c-0.557-0.244-1.203-0.14-1.83-0.074c-0.451,0.071-0.963,0.1-1.297,0.279
		c-0.974-0.156-3.833,5.662-3.945,6.168c-0.251,0.104-0.957,0.432-0.843,0.772c-0.886-0.071,0.222,1.522-0.698,1.607
		c-0.443,0.036-0.504-0.155-0.619-0.293c-0.355-0.39-1.099-0.546-2.187-0.462c-0.497,0.111-3.245-1.371-2.603-1.145
		c0.312,0.078-0.777-0.26-0.777-0.26l-5.24,0.005l-164.861,1.397l-76.736,0.6l-5.095-4.234l-32.164-0.185
		c-3.22,4.125-5.025,4.307-6.675,3.963c-0.774-0.159-1.104-0.105-1.726,0.14c-0.173,0.066-0.393,0.059-0.529-0.002
		c-0.349-0.149-0.822-0.115-1.25-0.104c-1.363,0.032-2.712,0.112-4.085,0.139l-16.274,0.055c-0.321-0.02-0.65,0.016-0.971,0.016
		c-0.494-0.094-0.978,0.023-1.463,0.016c-2.166-0.121-7.825-2.857-8.204-2.823c-0.377-0.047-1.219,0.292-1.086-0.204
		c0.068-0.249-0.726-0.107-1.142-0.134c-0.394-0.023-0.575,0.073-0.751,0.176l0,0c-1.233,0.208-2.582,0.191-3.865,0.295l0,0
		c-0.257-0.129-1.017-0.05-0.857-0.362c0.072-0.139-0.42-0.17-0.812-0.061c-0.566,0.159-0.738,0.373-0.525,0.594
		c0.291,0.294-0.105,0.435-0.714,0.561H3.01c-0.396-0.122-1.302-0.176-0.115-0.422c0.587-0.121,0.207-0.337-0.447-0.405l-0.01,0.043
		c-0.009-0.003-0.017-0.003-0.029-0.005c0.02-0.004,0.033-0.022,0.039-0.038c-0.767-0.461-1.364-0.49-2.39-0.084
		c-0.388,0.152-0.709,0.211-1.036,0.007c-0.167-0.099-0.287-0.228-0.689-0.197c-0.485,0.042-0.239,0.237-0.447,0.343
		c-0.239,0.117,0.294,0.258-0.143,0.393c-0.522-0.164-1.08-0.297-1.234-0.59c-0.116-0.227-0.185-0.2-0.688-0.012
		c-0.179,0.069-0.589,0.061-0.912,0.09c-0.014-0.157,0.521-0.272,0.11-0.396c-0.478-0.15-0.548,0.093-0.828,0.129
		c-1.041,0.144-2.151,0.152-3.235,0.2c-0.041,0-0.104-0.002-0.113-0.012c-0.744-0.602-1.514,8.37-2.339,8.484l0,0
		c-0.464-0.089-0.842-0.014-1.22,0.087c-1.007,0.253-1.67,0.151-1.766-0.299c-0.074-0.34-0.764-0.137-1.197-0.182l0,0
		c-1.173,0.345-2.638,0.239-3.966,0.36h0.001c-0.272,0.059-0.54,0.132-0.823,0.181c-0.143,0.029-0.434,0.112-0.476-0.005
		c-0.166-0.428-1.037-0.168-1.595-0.215c-0.316,0.054-0.2,0.164-0.257,0.251c-0.825-0.549-3.415,1.068-3.415,1.068l-0.514-3.06
		c-1.645,0.037-3.366-4.307-5.01-4.429c-0.85-0.071-2.093-0.103-3.038,0.13c-0.57,0.142-1.195,0.105-1.784,0.089
		c-3.039-0.087-6.079-0.133-9.125-0.152c-3.077-0.019-6.167,0.054-9.222-0.104c-0.044-0.005-3.711-0.187-5.588-0.236
		c-0.451-0.012-1.075,0.121-1.425,0.013c-0.14-0.046-5.517,0.098-6.095,0.104c-1.715,0.024-10.196,0.346-12.295,0.602
		c-0.031,0.002-10.104-0.127-10.194-0.119c-2.061,0.179-4.738,0.528-5.426,0.352c0,0-1.55-0.212-0.63,0.967l-0.427-0.473
		c-0.186,0.062,0.085,0.608-0.129,0.643c-0.38,0.059-0.888,0.124-0.789,0.281c0.115,0.173,1.109,1.556,1.474,1.59
		c0.025,0.024,0.038,0.048,0.048,0.071l0,0l0,0c-0.036,0.169-0.345,0.117-0.621,0.112c-0.38-0.019-0.651,0.042-0.596,0.201
		c0.063,0.17,0.433,0.176,0.743,0.128c0.904-0.126,1.661-0.075,2.544,0.219c-0.726-0.02-1.123-0.147-1.62-0.117
		c-0.278,0.021-0.607,0.002-0.672,0.141c-0.051,0.126-0.196,0.314,0.195,0.361c0.831,0.098,1.471,0.433,2.514,0.285
		c0.439-0.258,0.986-0.323,1.838-0.26c0.78,0.049,4.114-0.15,4.622,0.215c0.548-0.085,0.23-0.409,0.542-0.36
		c0.708,0.118-1.157-0.12-0.551-0.051c0.196,0.021,0.508,0.133,0.474,0.175c-0.305,0.419-5.689,0.251-5.246,0.153
		c0.216-0.046,0.433-0.13,0.645-0.054c0.853,0.292,4.416,0.153,5.392,0.273c1.186,0.151,2.248-0.192,3.417-0.197
		c0.068,0.002,0.145,0.002,0.217,0.005l-0.005,0.008c-0.013,0.458-0.972,0.765-1.471,1.149c-0.129,0.096-0.542,0.143-0.525,0.286
		c-0.42-0.012-0.772,0.064-1.144,0.118c-0.54-0.021-1.122-0.039-1.256,0.224c-0.114,0.238,0.372,0.289,0.876,0.344
		c0.379,0.041,0.913,0.098,0.912,0.256c-0.013,0.359,0.591,0.238,1.064,0.199c0.358-0.028,0.82-0.118,0.88,0.073
		c0.04,0.118-0.254,0.326-0.722,0.306c-1.209-0.044-1.075,0.255-1.073,0.515c-0.004,0.63,0.274,1.215,2.5,1.393
		c-1.456,0.182-1.989,0.507-1.694,0.993c-0.121,0.249,0.297,0.304,0.836,0.328c1.002,0.052,1.941-0.359,1.824,0.147
		c-0.042,0.174,0.424,0.27,0.792,0.361c0.355,0.206,0.792,0.358,0.137,0.667c-0.554,0.27,0.998,0.931,2.096,0.918
		c1.878-0.015,8.992-0.132,10.856-0.223c1.171-0.053,1.958,0.565,2.646,0.841c0.218,0.084,0.379,0.169,0.7,0.219
		c0.865,0.143-0.246,0.486-0.067,0.574c-1.686,0.223-2.977,0.223-4.66,0.227c-1.108,0.002-7.41,0.158-8.495,0.269
		c-0.949,0.09-2.043-0.019-3.086-0.063c-0.479-0.017-1.347-0.334-1.831-0.318c-0.535,0.023-0.816,0.067-0.454,0.314
		c0.222,0.153,0.291,0.442,0.042,0.571c-0.762,0.393-0.384,0.571,0.638,0.714c0.214,0.029,0.631,0.065,0.44,0.213
		c-0.142,0.115-0.273,0.219-0.801,0.2c-0.795-0.018-0.817,0.125-0.746,0.423c0.184,0.709,1.664,1.266,1.469,2.007
		c-0.084,0.313,0.642,0.569,0.612,0.895c-1.222-0.266-1.362-0.222-1.496,0.293c-0.062,0.262,0.42,0.26,0.837,0.268
		c1.059,0.02,1.164,0.228,0.666,0.49c-0.539,0.286-0.279,0.394,0.468,0.521c0.492,0.083,0.868,0.255,1.291,0.397
		c1.614,0.535,3.61,0.865,5.457,1.279c0.306,0.069,0.661,0.11,0.951,0.188c1.685,0.45,1.679,0.459,3.73,0.448
		c0.513-0.002,1.061,0.002,1.393,0.106c1.3,0.425,3.001,0.557,4.463,0.86c0,0.379,0.724,0.558,1.403,0.747
		c0.062,0.046,0.191,0.085,0.377,0.115c0.268,0.081,0.586,0.107,0.923,0.107c0.073,0.208-2.277,0.426-2.766,0.729
		c-0.243,0.147-0.304,0.347-0.056,0.469c0.493,0.246,1.034,0.438,0.137,0.733c-0.22,0.065,0.223,0.204,0.458,0.188
		c2.241-0.096,0.97,1.011,3.221,0.851c0.199-0.014,0.402-0.012,0.606-0.021l1.945,0.261c0.904-0.09,0.568-0.373,0.56-0.593
		c0.642-0.071,0.818,0.133,1.136,0.253c0.489,0.187,0.996,0.301,1.624,0.055c-0.301-0.187-1.036-0.126-1.281-0.362
		c0.403-0.052,0.792-0.107,1.185-0.167c0.451-0.112,1.007-0.114,1.4-0.35c0.278-0.165,1.389-0.153,2.028,0.067
		c0,0.059,0,0.119-0.003,0.177c-0.567,0.011-0.833,0.177-1.105,0.314c-0.177,0.09-0.081,0.324,0.128,0.281
		c0.999-0.234,2.051,0.204,2.976-0.09l0,0c0.152,0.006,0.3,0.006,0.445,0.013c0.791,0.016,1.562-0.221,2.414,0.033
		c0.361,0.107,0.909-0.133,1.332-0.244c0.356-0.097,0.957-0.34,0.957-0.34l0.931,0.855c-0.312,0.11-0.572,0.658-0.782,0.821
		c-0.207,0.165-0.886,0.874-0.886,0.874l-3.754,0.108c-0.754,0.066-1.598-0.012-2.4-0.018c-1.356-0.016-2.715-0.042-3.807,0.345
		c-0.209,0.077-0.448,0.054-0.679,0.057c-0.902,0.027-1.797,0.043-2.689,0.064c0,0-0.506,0.295-0.822,0.377l-0.391,0.206
		c-0.157,0.085-0.408,0.16-0.408,0.16c-2.514,0.025-1.492,0.096-3.998,0.134l0,0l0,0c-1.004-0.134-1.539-0.095-2.494,0.171
		c-0.24,0.067-1.133-0.966-1.388-1c-0.179,0.227-0.792,0.928-1.079,1.091c-0.16,0.028-0.327,0.062-0.493,0.091
		c-0.655,0.005-1.306,0.007-1.962,0.017c-0.723-0.131-1.225,0.101-1.943,0.136c0.316,0.209,0.722,0.251,1.225,0.223
		c0.072,0.007,0.151,0.005,0.218,0.009c-0.682,0.235-1.53,0.229-2.33,0.176c-0.342-0.023-0.689-0.064-1.049-0.061
		c-0.115,0-0.234,0.02-0.348,0.033c0.838,0.492-1.544,0.302-1.149,0.7c-0.114,0.157,0.011,0.283,0.494,0.224
		c0.421-0.046-0.374,0.266-1.016,0.242c-2.325-0.079-4.671-0.041-6.977,0.009c-1.167,0.03-2.435,0.197-3.792,0.293
		c0.551,0.286,1.334,0.126,1.865,0.253c0.439,0.107,0.633,0.172,0.086,0.299h-0.009c-0.659,0.18-1.323,0.359-1.99,0.545
		c-0.454,0.065-0.582,0.3-1.172,0.302c-0.077-0.005-0.159-0.007-0.239-0.01l0,0c-0.891,0.008-1.709,0.07-2.357,0.328
		c-0.165,0.069-0.396,0.116-0.352,0.218c0.131,0.332-0.305,0.31-0.946,0.236c-0.716-0.079-0.732-0.061-0.804,0.335
		c-0.858-0.382-1.528-0.058-2.312,0.028c-0.312,0.034-0.452-0.038-2.142,0.319c0.016,0.018,0.049,0.027,0.074,0.039
		c-0.002,0-0.002,0-0.002,0c-0.023-0.012-0.049-0.027-0.072-0.039c-0.986-0.301-1.912,0-2.754,0.107
		c-0.847,0.108-0.686,0.362,0.348,0.655c0.4,0.166,0.325,0.389,0.441,0.575c0.294,0.472,1.524,0.677,2.596,0.387
		c0.422-0.115,0.723-0.287,1.286-0.104c0.021,0.003,0.104,0.003,0.112,0c0.749-0.453,1.468-0.046,2.196-0.012l0,0
		c0.696-0.175,0.952,0.18,1.504,0.162c0.081,0.031,0.156,0.057,0.239,0.085c0.624,0.22,1.479,0.189,2.235,0.255
		c0.4,0.097,0.688,0.246,1.183,0.288c0.047,0.191-0.07,0.348-0.639,0.422c-0.215,0.033-0.319,0.098-0.181,0.177
		c0.145,0.085,0.363,0.067,0.476-0.006c0.2-0.132,0.432-0.094,0.71-0.049c0.627,0.088,1.18,0.293,1.848-0.071
		c0.258-0.143,1.153,0.032,1.639,0.146c1.007,0.237,2.091,0.261,3.22,0.229c0.324-0.01,1.003,0.053,1.064-0.105
		c1.945,0.242,4.011,0.158,6.023,0.246c0.325,0.012,0.532-0.063,0.793-0.08c0.422-0.022,0.872-0.128,1.125,0.154
		c0.21,0.236,1.051,0.231,1.662,0.294c0.537,0.095,1.062,0.188,1.621,0.286c-0.18,0.071-0.306,0.164-0.508,0.194
		c-0.807,0.104-1.157,0.268-0.739,0.576c0.119,0.097-0.246,0.099-0.376,0.152c-1.06-0.022-1.577,0.406-2.584,0.438
		c-0.147,0.008-0.342,0.163-0.214,0.18c0.948,0.134,0.905,0.587,1.814,0.722c0.337,0.456,1.047,0.743,2.457,0.705
		c0.511,0.156,0.942,0.357,1.709,0.352c0.255,0.053,0.499,0.117,0.749,0.175c0.162,0.11,0.79,0.042,0.729,0.24
		c-0.429,0.116-1.38,0.118-0.759,0.461c-0.954,0.074-1.906,0.149-2.859,0.231c-0.337-0.043-0.679-0.073-1.016-0.111
		c-0.862-0.144-1.723-0.101-2.505,0.068c-0.615,0.134-1.238,0.219-1.933,0.239c-1.056,0.153-2.237,0.122-3.203,0.48
		c-0.208,0.075-0.504,0.181-0.877,0.261c-0.194,0.034-0.398,0.063-0.596,0.09c-0.263,0.029-0.551,0.035-0.856,0.013
		c-0.527-0.041-0.84,0.178-1.289,0.262c-0.081,0.01-0.165,0.016-0.25,0.03c-0.089,0-0.188,0.003-0.289-0.006
		c-0.981-0.224-0.999-0.224-1.085,0.151c-0.033,0.156-0.396,0.152-0.617,0.164c-1.599,0.109-3.173,0.258-4.739,0.421
		c-0.45,0.052-1.14,0.142-1.487-0.138c-0.127-0.1-0.331-0.03-0.413,0.044c-0.168,0.162-0.455,0.164-0.768,0.081
		c-0.722-0.197-1.089,0.009-1.549,0.161c0.198,0.141,0.886,0.055,0.82,0.275c-0.147,0.499,0.873,0.442,1.696,0.435
		c0.464,0.008,0.686,0.056,0.503,0.209c-0.147,0.13-0.357,0.238,0.047,0.393c0.458-0.224,0.989-0.401,1.67-0.502
		c0.384,0.487,1.909,0.81,3.981,0.832l0,0c0.314,0.024,0.637,0.065,0.955,0.091c0.443,0.32,0.94,0.576,1.996,0.25l0,0
		c0.211-0.002,0.386-0.019,0.53-0.079c0.96-0.012,0.625-0.276,0.69-0.461l0,0c0.572-0.037,1.146-0.073,1.718-0.107
		c0.319,0.151,0.616,0.024,0.915-0.021c0.761,0.027,0.771-0.242,1.083-0.382c0.244,0.021,0.217,0.102,0.219,0.143
		c-0.002,0.225-0.766,0.521,0.305,0.645c0.655,0.084,1.311,0.203,2.077,0.133c0.424-0.037,0.887-0.021,1.328-0.027
		c0.16-0.108,1.19-0.066,0.42-0.329c0.16-0.188-0.786-0.238-0.395-0.451l0,0c0.756-0.119,0.361,0.232,0.947,0.3
		c0.802,0.087,1.667,0.215,2.42,0.431c0.845,0.225,1.63-0.18,2.506-0.208c0.157-0.008,0.308-0.03,0.466-0.049
		c0.383,0,0.776,0.017,1.159,0c0.424-0.007,0.438,0.071,0.349,0.183c-0.173,0.116-0.118,0.224-0.023,0.339
		c0.268,0.166,0.812,0.158,1.219,0.242c0.562,0.1,0.801-0.05,0.698-0.264c0.295-0.191,2.342-0.747,2.635-0.946
		c0.154,0,0.315-0.002,0.478-0.004c0.173,0.32,0.946,0.459,1.578,0.597l0.687,0.062c0.144,0.129,0.452,0.381,0.156,0.689l0,0l0,0
		c-0.519,0.231-1.442-0.024-1.952,0.222c-0.681,0.046-0.681,0.046-0.494,0.467c-0.23-0.007-0.528-0.041-0.638,0.049
		c-0.081,0.066,0.131,0.129,0.324,0.152c0.267,0.031,0.538,0.045,0.806,0.067c0.901,0.315,1.962,0.12,2.883,0.045
		c0.878-0.062,1.119,0.253,1.81,0.267c0.143,0-0.207,0.066-0.218,0.096c-0.099,0.214-0.957,0.283-0.772,0.544l0,0
		c-0.098,0.521,1.407,0.324,2.007,0.556c0.243,0.091,1.075-0.115,1.37-0.369c0.34,0.184,0.635,0.354,0.949,0.526
		c-0.562,0.095,0.599,0.079,0.746-0.078c0,0,2.637-0.384,3.429-0.276c1.688,0.231,1.951,0.223,3.011-0.244l0.438-0.1
		c0.553,0.16,1.564,0.054,2.152,0.32c0.123,0.054,0.286-0.053,0.392-0.124c0.341-0.216,1.339,0.197,1.963,0.063
		c0.53-0.111,0.357-0.672,1.114-0.677c0.497-0.012,1.096-0.035,1.433,0.04c0.924,0.05,4.624,0.596,4.797,0.142
		c0.464,0.071,0.088-0.385,0.775-0.165c-0.226,0.196,2.578,0.461,3.792,0.429c0.606-0.015,1.083,0.18,0.869,0.467
		c-0.124,0.165,0.304,0.219,0.569,0.306l1.672,0.052l0.621-0.154l0.474-0.05c0.388-0.219,0.902-0.119,1.253-0.032
		c0.32,0.082-0.72,0.861-0.389,0.896c-0.137,0.297-0.85,0.555-0.432,0.878c0.47,0,0.934-0.004,1.404-0.006
		c1.207-0.01,2.522-0.234,3.75-0.369c0.345-0.04,0.263,0.146,0.335,0.233c0.052,0.065,0.229,0.134,0.052,0.199
		c-0.19,0.07-0.229,0.312-0.405,0.29h-0.416c-0.257-0.181-0.36,0.189-0.825,0.293c-0.225,0.041,0.419,0.084,0.958,0.055
		c0.69-0.195,1.213,0.021,1.726,0.111c0.317,0.054-0.251,0.149-0.216,0.252c-0.018,0.021-0.028,0.046-0.035,0.069
		c-1.093,0.006-2.132,0.061-3.204,0.209c-1.36,0.19-2.84,0.28-4.495,0.215c0.641,0.147,1.324,0.405,1.001,0.599
		c-2.592-0.082-4.44-0.284-7.015-0.301c-1.535-0.101-7.674-0.219-9.22-0.298c-0.411-0.022-0.865,0.052-1.301,0.083
		c-0.149,0-0.294-0.006-0.437-0.006l-4.965,0.202c-2.128,0.446-4.379,0.237-6.532,0.09c-1.477-0.096-2.982-0.083-4.447-0.198
		c-1.517-0.131-3.051-0.408-4.554-0.368c-2.511,0.062-4.777-0.271-7.175-0.357l-7.954,0.333l0,0c1.76,0.666,4,0.444,6.136,0.402l0,0
		l0,0c-0.062,0.095-0.33,0.255,0.101,0.248c1.153-0.029,2.209,0.118,3.32,0.159c0.085,0.007,0.191-0.048,0.277-0.075
		c0.377,0.176,0.726,0.335,1.499,0.218c0.571-0.088,0.833,0.253,1.455,0.211c0.214,0.164,0.473,0.141,1.146,0.047
		c0.427-0.064,0.969-0.022,1.442-0.038l0.468,0.075c0.117,0.122-0.512,0.262-0.942,0.267c-0.384,0.002-0.82-0.051-1.129,0.092
		c-0.821,0.075-1.702,0.031-2.48,0.191c-1.418,0.143-2.85,0.026-4.269,0.038c-0.691,0.005-1.356,0.028-2.031,0.175
		c0.515,0.229,1.393,0.201,1.895,0.439c-0.581,0.138-1.253,0.118-1.833,0.108c-2.165-0.018-4.334,0.029-6.482-0.093
		c-0.925-0.054-1.866-0.063-2.799,0.03c-0.313,0.026-0.653,0.033-0.775,0.178c-0.456,0.549-1.796,0.631-2.942,0.588
		c-1.801-0.07-3.062,0.368-4.706,0.507c0.342,0.227,0.906,0.207,1.369,0.264c0.317,0.276,0.134,0.544-0.259,0.796
		c-0.082,0.129-0.035,0.149,0.487,0.197c0.776,0.136,1.433,0.014,2.18-0.077c0.95-0.124,2.009-0.11,3.019-0.152
		c1.188,0.208,2.52,0.206,3.784,0.281c4.996,0.297,10.02,0.535,15.129,0.4c0.908,0.127,1.784-0.263,2.699-0.045
		c0,0.152,0,0.305,0.002,0.461c-0.258,0.003-0.425,0.254-0.73,0.052c-0.464-0.303-0.588,0.359-1.134,0.055
		c-0.128-0.073-0.989-0.04-0.567,0.28c0.178,0.126-0.478,0.253-0.82,0.251c-1.908-0.013-3.746,0.326-5.622,0.221
		c-0.86-0.048-1.795,0.199-2.604-0.1c-0.183-0.07-0.508,0.12-0.73,0.193c-0.333,0.121,0.191,0.114,0.259,0.175
		c0.087,0.078,0.113,0.165,0.162,0.248c0.101,0.209-0.012,0.436,1.039,0.297c0.783-0.108,1.23,0.188,1.434,0.466
		c0.342-0.008,0.575,0.068,0.859,0.118c1.162,0.184,2.084,0.606,3.57,0.481c0.146,0.186,0.668,0.174,1.016,0.242
		c-0.267,0.196-0.059,0.292,0.479,0.284c0.746-0.006,1.406,0.011,2.027,0.204c0.452,0.135,0.998,0.019,1.402-0.128l0,0
		c0.627-0.027,1.24-0.007,1.87,0.101c-0.204-0.306-0.675-0.478-1.375-0.57c-0.004-0.034-0.007-0.056-0.014-0.079
		c0.745,0.039,1.535-0.094,2.248,0.06c0.991,0.006,1.417-0.193,1.426-0.539l0.064,0.007c0.628-0.079,0.585,0.211,1,0.246
		c0.611,0.119,0.606,0.113,0.287,0.197c-0.169,0.041-0.679-0.033-0.441,0.169c0.142,0.114,0.143,0.235,0.612,0.288
		c1.019,0.1,2.075,0.119,3.113,0.18c0.25,0.014,0.505-0.012,0.609-0.115c0.151-0.14-0.061-0.227-0.362-0.285
		c-0.738-0.147-0.805-0.323-0.207-0.539c0.052-0.021,0.081-0.039,0.081-0.062c0.268-0.192,0.537-0.37,1.283-0.161
		c-0.059,0.138-0.354,0.224-0.653,0.304c-0.4,0.101-0.313,0.212,0.033,0.273c1.145,0.212,2.314,0.397,3.466,0.6
		c0.222-0.037,0.432-0.074,0.652-0.11c0.49-0.136,1.046-0.215,1.634-0.14c0.988,0.115,1.973,0.072,3.021,0.019
		c-0.096,0.239-0.66,0.13-0.955,0.196c-0.313,0.063-0.713,0.079-0.624,0.266c0.068,0.143,0.266,0.302,0.643,0.26
		c0.661-0.087,1.823,0.667,1.998-0.171c0.081,0.006,0.158,0.009,0.233,0.014c0.045,0.014,0.099,0.025,0.145,0.027
		c0.789,0.145,1.577,0.01,2.371-0.044c0.482-0.199,1.155-0.056,1.702-0.133c0.604,0.149,0.685-0.225,1.197-0.172
		c0.135,0.159,0.134,0.308-0.27,0.424l0,0c-0.435,0.066-0.805,0.147-0.784,0.354c0.024,0.215-0.024,0.434,0.847,0.262
		c0.215,0.216-0.835,0.31-0.193,0.533c0.278,0.102-0.215,0.177-0.439,0.207c-0.436,0.064-0.815,0.12-0.45,0.312
		c0.35,0.184,0.767,0.156,1.112,0c0.33-0.149,0.7-0.195,1.166-0.109c-0.138,0.282-0.541,0.593,0.793,0.652
		c0.263,0.014,0.305,0.274-0.041,0.274c-1.561,0.011-0.807,0.344-0.724,0.59c-0.408,0.05-0.881-0.143-0.844-0.243
		c0.041-0.104-0.226-0.089-0.402-0.115c-0.955-0.18-1.925-0.225-2.947-0.068c-0.236,0.008-0.48,0.012-0.718,0.018
		c-0.199-0.006-0.336,0.038-0.342,0.098c-0.033,0.23,0.006,0.464-0.827,0.521c0.065,0.029,0.127,0.064,0.188,0.099
		c-1.928,1.061,5.147,1.798,6.157,1.747c-0.375,0.287-0.468,0.43,0.73,0.481c0.981,0.037,3.319,0.508,3.564,0.462
		c0.657,0.322,2.01,0.482,2.593-0.025c0.095-0.082,0.468-0.089,0.662-0.022c1.148,0.394,2.337,0.195,3.522,0.021
		c0.314,0.137,0.901-0.869,1.201-0.849c0.916-0.169,1.866,0.913,1.529,0.396c-0.202-0.315,0.514-0.445,1.298-0.443
		c0.701,0,1.262,0.193,2.048,0.182c0.494-0.01,0.31,0.27,0.225,0.419c-0.086,0.146-0.162,0.287,0.323,0.318
		c0.555,0.031,1.146,0.062,1.671-0.05c0.186-0.044,0.056-0.084-0.096-0.126c-0.588-0.157,0.055-0.348-0.052-0.529
		c-0.03-0.054,0.2-0.088,0.37-0.086c0.242,0.016,0.189,0.1,0.163,0.148c-0.233,0.368,0.655,0.463,1.175,0.652
		c0.307,0.104,0.699,0.114,0.967-0.008c0.362-0.166-0.021-0.229-0.39-0.281c-0.39-0.051-0.717-0.212-0.441-0.288
		c0.391-0.109,0.323-0.434,1.145-0.345c0.624,0.073,1.096,0.031,1.553-0.183c0.36-0.172,0.826-0.123,1.182,0.074
		c0.501,0.277,1.269,0.376,2.186,0.355c0.655-0.016,1.247-0.026,0.84-0.354c0.687-0.04,0.355,0.208,0.729,0.26
		c0.292-0.189-0.161-0.489,0.791-0.547c0.027,0.303,0.951,0.341,1.485,0.527c-0.08,0.087-0.474,0.176-0.04,0.265
		c-0.064,0.021-0.121,0.046-0.192,0.057c-0.357,0.059-0.961,0.083-0.733,0.273c0.241,0.205,1.05,0.152,1.27,0.064
		c0.577-0.243,0.841-0.181,1.239,0.037c0.136,0.07,8.318,0.206,9.073,0.145c0.542-0.076,16.156,0.194,16.156,0.194
		c3.297-0.149,8.535-0.156,9.066,0.232l0,0c-0.602,0.307-0.981,0.707-2.262,0.774c0.3,0.274,0.816,0.264,1.536,0.232
		c0.88-0.047,0.501-0.223,0.639-0.391c0.31-0.392,0.579,0.086,0.967,0.037c0.033-0.113,0.059-0.229,0.093-0.337
		c0.111-0.053,0.222-0.096,0.327-0.146c0.072,0.003,0.135-0.002,0.201-0.018c0.231-0.032,0.427-0.058,0.577,0.058
		c0.515,0.396,1.311,0.587,2.555,0.416c0.086-0.009,0.223,0.026,0.33,0.045c0.417,0.085,0.576-0.113,0.893-0.144
		c0.372,0.313-0.66,0.153-0.69,0.319c-0.409,0.237-1.057,0.515,0.542,0.394c0.262-0.016,0.574,0.075,0.881,0.109
		c0.23,0.026,0.433-0.034,0.473-0.096c0.047-0.075-0.171-0.121-0.356-0.156c0-0.07,0.012-0.139,0.204-0.187l0,0l0,0
		c0.911-0.085,1.42,0.224,2.18,0.289l0,0c0.557,0.118,1.166,0.042,1.756,0.052c-0.33-0.377-0.87-0.593-2.034-0.371l0,0
		c-0.598,0.06-0.265-0.215-0.624-0.237c0.015-0.098,0.224-0.144,0.408-0.197c0.533-0.057,0.658-0.225,0.368-0.332
		c-0.296-0.115-0.795-0.192-1.31-0.1c-0.173,0.035-0.343,0.076-0.514,0.115l-0.013-0.003c-0.541-0.18-0.603-0.501-1.611-0.56
		c-0.587-0.03-0.946-0.007-1.344,0.12l0,0c-0.199-0.308,0.706-0.494,0.649-0.792c-0.011-0.091,0.077-0.179-0.159-0.23
		c-0.375-0.09-0.443,0.078-0.672,0.111l0,0c-0.41-0.174,0.178-0.3,0.178-0.459c0.15-0.238-0.3-0.241-0.753-0.29
		c-0.163-0.017-1.035,0.033-0.459-0.232c0.417,0.01,0.833,0.097,1.264,0.014l0,0c0.256,0,0.436-0.262,0.591-0.101
		c0.246,0.282,2.321,0.124,1.22,0.705c0.323-0.096,1.552,0.266,0.881-0.26l0.008-0.002c0.549,0.021,1.027,0.367,1.671,0.047
		c0.249-0.145,0.384-0.351,1.058-0.192c0.316,0.073,0.691,0.07,0.988-0.048c0.308-0.044,0.616-0.069,0.916-0.002
		c0.47,0.104,0.89,0.246,1.486,0.232c0.02,0.037,0.041,0.067,0.055,0.102c-0.007,0.056-0.023,0.107-0.038,0.161l0,0
		c0.275,0.319,1.19,0.214,1.744,0.349c0.584-0.063,0.856,0.131,1.336,0.191l0.124-0.03c1.087,0.078,1.814-0.332,2.874-0.294
		c0.261,0.021,0.628-0.006,0.62-0.08c-0.062-0.468,0.621-0.254,1.157-0.186c-0.158,0.08-0.453,0.144-0.236,0.266
		c-0.066,0.084-0.077,0.28-0.406,0.196c-1.08-0.274-0.245,0.188-0.573,0.185c-0.091,0.054-0.187,0.104-0.278,0.156
		c-0.225-0.005-0.391,0.031-0.481,0.106c-0.677,0.033-1.275,0.092-0.739,0.402c0.389,0.226-0.546,0.216-0.459,0.382
		c-0.072,0.014-0.142,0.032-0.21,0.054c-1.638-0.198-1.528,0.338-1.986,0.633l0,0c-0.45-0.017-0.729-0.057-0.648-0.264
		c0.136-0.367-0.383-0.505-1.339-0.447l0,0c-0.817-0.254-1.868,0.002-2.74-0.155c-0.166-0.031-0.397,0.041-0.438,0.129
		c-0.05,0.104,0.109,0.172,0.374,0.191c0.589,0.035,1.164,0.171,1.781,0.035l0,0c0.052,0.293,0.132,0.6-1.148,0.461
		c-0.248-0.025-0.551-0.005-0.46,0.125c0.131,0.173,0.274,0.439,0.935,0.349c0.607-0.086,0.445,0.023,0.458,0.125
		c-0.362,0.039-0.798,0.212-0.562,0.242c0.444,0.067,0.918,0.302,1.541,0.111c1.054-0.368,1.054-0.382-0.285-0.711
		c1.388,0.014,2.318,0.131,2.93,0.581c0.318-0.452,1.448-0.138,2.043-0.345l0,0c-0.312-0.194-0.201-0.441-0.582-0.634
		c-0.174-0.092,0.178-0.137,0.358-0.192c0.644,0.089,1.286,0.146,1.929,0.007c0.472,0.009,0.534,0.117,0.486,0.261
		c-0.194,0.07-0.631,0.064-0.557,0.196c0.065,0.126,0.441,0.097,0.714,0.1c0.236,0.002,0.486-0.039,0.665,0.048
		c0.022,0.045,0.096,0.073,0.218,0.075c0.259,0.021,0.62-0.026,0.425-0.112c-0.326-0.135-0.297-0.372-0.927-0.415
		c0.628-0.218,1.37-0.362,2.119-0.514l0,0c0.025,0.051,0.052,0.097,0.081,0.14c0.376,0.067,0.27,0.369,0.991,0.271
		c0.074-0.006,0.146-0.006,0.214,0.008c-0.188,0.251,0.049,0.396,0.756,0.44c0.155,0.046,0.347,0.077,0.457,0.132
		c0.162,0.088,0.25,0.208,0.59,0.179c0.449-0.037,0.35-0.215,0.485-0.33c0.185-0.152-0.25-0.15-0.497-0.161
		c-0.278-0.019-0.43-0.065-0.492-0.16c0.869-0.062,1.714-0.191,2.625-0.127c0.996,0.071,1.509,0.302,1.728,0.639
		c0.21,0.315,0.714,0.573,1.141,0.848c0.032,0.019,0.228,0.004,0.344,0.004c0.167,0.003,0.331,0.008,0.495,0.008
		c1.153,0.379,2.137-0.043,3.196-0.105c0.045-0.016,0.103-0.025,0.167-0.025l0.822-0.953c0.315-0.154,0.115,0.89,0.552,0.899
		c0.199,0.052,6.037,0.212,6.695,0.241c0.976,0.041,1.929,0.139,2.927,0.109c0,0,8.825-0.068,9.874-0.068
		c1.048,0,2.698,0.149,3.897,0c1.199-0.149,7.834,0.436,8.992,0c0.089-0.002,2.009,0.152,2.098,0.149
		c0.183,0.024-1.074-1.616-0.898-1.591c0.246,0.131,0.654,0.019,0.949,0.072l0,0c0.613-0.005,1.241-0.011,1.896-0.013
		c0.284,0.008,0.57,0.018,0.851,0.018c-0.609,0.353-1.747,0.451-2.252,0.797c-0.014,0.008-0.027,0.016-0.038,0.024
		c-0.143,0.117,0.062,0.159,0.603,0.152c0.265,0.253,0.762,0.361,1.41,0.213c0.367-0.084,0.702-0.039,0.882-0.006
		c0.73,0.149,0.901,0.016,0.914-0.289c0.345,0.223,0.206,0.487,0.948,0.511c0.917,0.023,1.223-0.253,1.669-0.453
		c0.043,0.021,0.062,0.048,0.062,0.066c0.53,0.213,1.06,0.105,1.192-0.089c0.322-0.476,1.187-0.485,2.196-0.442
		c-0.051,0.096-0.109,0.184-0.173,0.273l0,0c-0.002,0.174,0.133,0.376,0.647,0.329c0.539-0.047,0.516-0.266,0.293-0.441
		c0.252-0.115,0.352-0.212,0.38-0.31c0.705,0.081,1.41,0.124,2.124-0.067c0.155-0.042,0.341-0.028,0.438,0.048
		c0.109,0.078,0.201,0.135,0.286,0.176c-0.007,0.016-0.019,0.024-0.019,0.04c-0.155,0.126-0.502,0.207-0.5,0.359
		c-0.523,0.188-0.67,0.391-0.066,0.574c0.7,0.212,1.646,0.313,2.306,0.062c0.704-0.262,1.151-0.18,1.771-0.035
		c0.663,0.159,1.358,0.021,1.963-0.059c0.275-0.044,0.363-0.271,0.54-0.41c-0.51-0.029-0.914-0.248-1.493-0.127
		c-0.237,0.054-0.439,0.102-0.642,0.024c-0.214-0.079,0.075-0.161,0.116-0.24c0.006-0.023,0.03-0.046,0.055-0.073
		c0.17,0.135,0.592,0.043,0.775-0.011c1.096-0.337,2.368-0.432,3.601-0.477c0.026,0,0.046-0.002,0.071-0.002
		c0.202-0.012,0.401-0.023,0.595-0.025c0.338-0.013,0.631-0.038,0.902-0.073c0.101,0.134,0.354,0.3,0.436,0.427
		c0.11,0.161,0.699,0.096,1.04,0.011c0.326-0.092,0.492-0.083,0.583,0.061c0.134,0.022,0.267,0.034,0.402,0.044
		c0.018,0.004,0.033,0.004,0.049,0.007c-0.121,0.091-0.227,0.187-0.313,0.288c-0.162,0.176,0.278,0.19,0.586,0.201
		c0.545-0.004,1.068-0.161,1.328-0.348c0.443,0.021,0.897,0.028,1.37-0.023c0.066-0.011,0.136-0.016,0.209-0.011
		c1.182,0.064,1.651-0.053,1.763-0.524c0.029,0,0.049,0,0.076,0c1.111,0.676,1.701,0.049,2.491-0.124
		c0.034-0.008,0.069-0.013,0.104-0.02c-0.009-0.009,0.009-0.012,0.012-0.024c0.426,0.109,10.24,0.366,10.24,0.366
		c1.129,0.062,2.258,0.115,3.381,0.073c-0.084,0.023-0.143,0.054-0.133,0.11c0.028,0.138,0.398,0.111,0.689,0.111
		c0.114-0.002,0.313-0.012,0.345,0.013c1.056,0.687,2.885,0.307,4.357,0.388c0.751,0.043,1.51,0.045,2.269,0.072
		c-0.138,0.031-0.277,0.082-0.395,0.173c-0.287,0.037-0.535,0.119-0.458,0.245c0.067,0.103,0.384,0.096,0.623,0.089
		c0.288-0.02,0.577-0.042,0.866-0.066c0.227-0.059,0.407-0.106,0.719-0.032c0.291,0.07,0.495-0.054,0.546-0.176
		c0.027-0.075-0.003-0.139-0.101-0.174c0.227,0.006,0.449,0.02,0.672,0.021c0.641,0.006,1.397-0.018,1.916-0.245
		c0.508-0.219,1.14-0.028,1.692-0.058c1.507-0.093,3.007-0.04,4.499-0.072c1.082-0.031,3.86,0.266,4.359,0.11
		c0.312-0.103,6.231,0.052,6.255,0.047c0.03-0.007,0.062-0.011,0.093-0.018c1.246-0.22,2.514,0,3.768-0.044
		c0.449-0.021,0.879,0.003,1.309,0.038c1.569,0.13,16.965,0.82,18.533,0.745c0.468,0.125,5.063,0.088,5.477,0.293
		c0.364,0.18,0.578,0.864,0.898,0.772c1.05-0.314,0.146,0.218,1.146,0.239c0.168,0.006,0.337,0.014,0.506,0.014
		c0.942-0.021,1.151,0.54,2.127,0.679c0.911,0.134,1.831-0.145,2.778-0.127c0.549-0.094,1.117-0.204,1.631-0.31
		c0.978-0.209-0.062-0.325-0.409-0.523c0.445-0.033,0.812-0.061,1.189-0.078c0.387-0.02,0.79,0.018,0.936-0.233
		c0.101-0.176,0.579-0.114,0.89-0.129c0.571-0.018,1.148-0.016,1.72-0.028c0.391-0.021,0.782,0.099,1.171-0.016
		c0.224-0.009,0.42,0.099,0.652,0.028l0.089,0.002h0.087c0.018,0.019,0.041,0.042,0.052,0.057c-0.712,0.397-0.712,0.397,0.325,0.483
		l0,0c0.222,0.114,0.405,0.278-0.158,0.224c-0.551-0.05-1.103,0.03-1.629-0.05c-0.721,0.055-1.382,0.373-2.178,0.089
		c-0.109-0.034-0.341,0.002-0.414,0.089c-0.083,0.092,0.046,0.147,0.21,0.169c0.214,0.038,0.442,0.062,0.655,0.083
		c0.092,0.151-0.21,0.142-0.351,0.176c-0.431,0.116-0.784,0.24-0.304,0.448c0.3,0.134,0.417,0.425,1.163,0.16
		c0.761-0.268,1.795-0.092,2.674-0.072c0.808,0.021,1.631-0.177,2.473,0.048c0.309,0.082,3.195,0.152,4.253,0.099
		c1.087-0.056,6.254,0.278,7.704,0.192c1.289-0.077,6.958,0.021,8.485,0.18c0.688,0.073,4.851-0.019,5.646-0.008
		c0.546,0.006,8.789,0.309,8.919,0.131c0,0,11.263-0.17,12.062-0.07c0.8,0.1,9.99-0.2,10.69-0.2s4.297,0,4.297,0
		c0.812,0.021,2.874,0.296,3.697,0.3c0,0,4.496-0.399,5.595-0.3c1.101,0.099,12.291,0,12.89,0c0.6,0,7.095,0,7.794,0.099
		c0.699,0.102,3.096-0.699,11.091-0.198c7.994,0.499,16.484-1.399,19.283-1.399c1.123,0,21.528,0.266,22.143,0.135l0,0
		c0.351,0.107,5.112,0.187,6.104,0.046l0,0c0.201-0.072,2.969-0.048,3.286,0.027c0.319,0.073,0.581,0.048,0.804,0.073
		c0.226,0.026,1.028,0.24,1.028,0.24c0.338,0.076,1.1-0.15,1.319-0.008c0.181,0.11,0.376,0.28,0.68,0.202
		c0.354-0.097,2.948,0.096,3.64-0.07c0.428-0.11,2.17,0.46,2.459-0.16c0.723-0.107,1.447-0.204,2.194-0.145
		c0.617,0.111,1.237,0.199,1.867,0.017c0.461-0.129,0.553,0.103,0.717,0.254c0.352,0.326,0.66,0.579,1.237,0.077
		c0.282-0.246,0.894-0.205,1.356-0.272c0.295-0.041,0.601-0.066,0.855-0.172c0.502-0.199,0.494-0.484-0.035-0.561
		c-1.235-0.152-2.48-0.406-3.779-0.107h0.007c-0.391-0.018-2.633-0.659-3.435-0.741c-0.55-0.068-1.224-0.134-1.408,0.404
		c-0.082,0.254-0.257,0.346-0.593,0.021c-0.616-0.606-3.008-0.231-3.102-0.36c-0.133-0.168-0.326-0.103-0.505-0.006
		c-0.05,0.025-0.12,0.07-0.135,0.064c-1.108-0.399-2.474,0.113-3.55-0.309c0,0-0.463-0.192-0.805-0.072l0,0
		c-1.312,0.042-2.553-0.14-3.797-0.343c-0.219-0.025-0.591-0.238-0.633,0.191c-0.021,0.207-0.782,0.137-1.112,0.084
		c-0.748-0.126-1.467-0.128-2.221-0.072c-0.249,0.008-0.6,0.093-0.773-0.069c-0.193-0.358,0.053-0.382,0.437-0.454l0,0
		c0.337,0.172,0.544,0.091,0.829-0.096c0.739-0.479-0.621-0.412-0.472-0.755c2.89,0.146,5.789,0.154,8.694,0.202l0.263,0.008
		c1.229-0.041,2.428-0.004,3.658,0.158c0.632,0.079,1.564,0.125,2.27-0.158c0.434-0.169,0.904-0.128,1.34-0.108
		c2.276,0.108,4.554,0.173,6.839,0.203c2.3,0.023,4.611-0.062,6.902,0.14c0.031,0,0.084-0.048,0.123-0.071
		c1.373,0.312,2.814,0.085,4.215,0.154c0.336,0.019,0.652,0.064,0.915,0.195c0.108,0.056,0.306,0.135,0.382,0.108
		c0.923-0.302,2.006-0.093,2.935-0.351c0.408,0.075,0.814,0.129,1.249,0.125c1.286-0.024,1.286-0.014,1.049-0.715
		c-0.33-0.111-0.316,0.319-0.483,0.166c-0.535-0.501-1.209-0.032-1.783-0.129l-0.056,0.031l0,0c0.016-0.009,0.037-0.018,0.056-0.031
		c0.009-0.375-0.53-0.367-0.939-0.492c1.458,0.125,2.856,0.018,4.225-0.276c0.074-0.033,0.151-0.067,0.231-0.097l0,0
		c0.722-0.066,1.473-0.021,2.138-0.263c1.636,0.096,3.2-0.043,4.771-0.353c0.539-0.107,1.094-0.135,1.517-0.384
		c0.113-0.067,0.316-0.094,0.422-0.02c0.822,0.563,0.825-0.193,1.183-0.305c0.229-0.07,0.358-0.302,0.756-0.262
		c0.118,0.008,0.304,0.039,0.273-0.055c-0.213-0.624,0.635-0.368,1.046-0.431c0.41-0.066,0.948,0.061,0.93-0.395
		c-0.009-0.217,0.325-0.15,0.432-0.047c0.393,0.361,1.293,0.189,1.664,0.574c0.04,0.033,0.323,0.043,0.332,0.028l0.147-0.967
		l-0.669-1.33c-0.151-0.029-0.386-0.164-0.359-0.214c0.234-0.504-0.227-0.302-0.558-0.19c-0.166,0.062-0.33,0.155-0.482,0.073
		c-0.64-0.366-1.514-0.185-2.241-0.338c-0.889-0.185-2.855,0.368-2.855,0.368l0.634-0.539l0.131-0.15
		c0.106-0.098,0.446-0.134,0.44-0.28c0.345,0.009,0.641-0.062,0.947-0.119c0.448,0.019,0.934,0.047,1.045-0.221
		c0.097-0.239-0.307-0.29-0.729-0.345c-0.314-0.043-0.761-0.102-0.762-0.256c0.013-0.362-0.49-0.246-0.89-0.207
		c-0.302,0.031-0.674,0.123-0.734-0.067c-0.03-0.117,0.217-0.326,0.602-0.31c1.011,0.043,0.896-0.251,0.899-0.513
		c0-0.633-0.236-1.211-2.09-1.396c1.22-0.176,1.666-0.504,1.414-0.992c0.104-0.244-0.256-0.303-0.694-0.331
		c-0.833-0.047-1.622-0.108-1.529-0.615c0.037-0.174-0.352-0.272-0.656-0.361c-0.297-0.208-0.657-0.357-0.114-0.667
		c0.464-0.272-0.839-0.934-1.755-0.926c-1.566,0.015-3.146,0.02-4.704,0.104c-0.972,0.056-1.628-0.086-2.203-0.369
		c-0.185-0.088-0.32-0.167-0.579-0.221c-0.727-0.137,0.253-0.12,0.113-0.211c1.4-0.213,2.808-0.014,4.216-0.011
		c0.927-0.009,1.796-0.081,2.701-0.188c0.786-0.094,7.899-0.175,8.771-0.136c0.399,0.019,0.815,0.004,1.223-0.019
		c0.442-0.017,0.679-0.063,0.372-0.305c-0.184-0.159-0.243-0.447-0.034-0.574c0.638-0.393,0.321-0.573-0.533-0.719
		c-0.175-0.03-0.522-0.065-0.366-0.21c0.122-0.112,0.231-0.221,0.668-0.204c0.665,0.022,0.687-0.122,0.623-0.414
		c-0.15-0.708-1.392-2.469-1.225-3.205c0.066-0.317-0.538-0.574-0.512-0.903c1.016,0.268,1.139,0.23,1.241-0.285
		c0.054-0.266-0.348-0.262-0.694-0.271c-0.883-0.021-0.968-0.228-0.559-0.489c0.448-0.286,0.232-0.396-0.388-0.526
		c-0.412-0.083-0.733-0.258-1.079-0.394c-1.342-0.543-3.005-0.877-4.548-1.288c-0.263-0.069-0.553-0.113-0.797-0.193
		c-1.4-0.451-1.4-0.456-3.112-0.447c-0.427,0.002-0.884-0.004-1.156-0.109c-1.088-0.424-2.511-0.565-3.732-0.864
		c0.005-0.38-0.595-0.558-1.162-0.753c-0.057-0.048-0.162-0.081-0.315-0.113c-0.225-0.082-0.49-0.103-0.776-0.11
		c-0.055-0.208,1.035-0.146,0.577-0.447c0.014-0.032,0.037-1.253,0.062-1.271c0.56-0.07,1.268,0.096,1.673-0.203
		c0.203-0.156,0.25-0.35,0.04-0.474c-0.413-0.241-0.864-0.438-0.113-0.729c0.187-0.074-0.179-0.198-0.377-0.194
		c-1.871,0.095-9.879-0.342-11.759-0.183c-0.162,0.008-0.337,0.012-0.502,0.015l0.154-0.316c-0.379,0.111-0.837,0.119-1.167,0.354
		c-0.229,0.166-1.149,0.149-1.69-0.066c0.005-0.06,0.01-0.123,0.007-0.182c0.467-0.012,0.69-0.179,0.923-0.316
		c0.149-0.091,0.064-0.322-0.111-0.271c-0.827,0.226-1.711-0.206-2.486,0.077c-0.116-0.004-0.239-0.006-0.364-0.01l0,0
		c-0.664-0.018-1.305,0.218-2.008-0.036c-0.303-0.108-0.764,0.136-1.116,0.24C394.174,130.638,393.935,130.771,393.676,130.884
		L393.676,130.884"/>
	<path fill="#FFFFFF" d="M335.145-2.155c-0.202,0.016-0.413,0.032-0.836,0.067c-1.147,3.948-2.079,8.154-3.437,12.119
		c-1.362,3.959-0.537,2.339-1.887,6.578c-1.144,4.222-2.284,8.446-3.635,12.685c-1.36,3.96-1.249,7.808-2.807,12.065
		c-1.567,3.979-1.873,8.135-2.813,12.062c-0.927,4.206-1.864,8.412-2.797,12.617c-0.932,4.204-1.866,8.132-2.592,12.32
		c-0.929,4.208-1.65,8.392-2.582,12.599c-0.725,4.189-1.434,8.648-2.158,12.838c-0.721,4.189-1.653,8.394-1.954,12.545
		c-0.522,3.896-1.665,7.848-1.566,11.417c0.408-0.308,0.82-0.619,0.807-1.167c1.07-6.689,2.35-13.405,3.209-20.081
		c4.071-27.033,11.077-54.029,18.514-80.784c2.861-10.419,3.331-14.955,6.187-25.376C334.987-0.491,334.964-1.313,335.145-2.155
		 M323.331,24.777c0.353-2.508,1.33-5.065,1.882-7.861c0.196-0.567,0.379-1.408,0.361-1.956c-0.823,0.616-1.228,1.199-1.619,2.056
		c-0.384,1.407-0.543,3.072-1.344,4.512c-2.378,5.151-3.918,10.23-4.389,15.775c-0.188,0.838-0.374,1.683-0.767,2.536
		c-0.58,1.977-1.369,3.691-1.945,5.667c-1.125,4.77-2.039,9.524-2.744,14.261c-2.036,9.804-4.699,19.653-5.896,29.386
		c-1.964,11.994-3.938,23.993-5.918,35.717c0.418-0.036,0.63-0.05,0.835-0.07c1.294-6.438,2.37-12.854,3.452-19.275
		c1.609-9.763,3.015-19.512,5.058-29.04c2.588-12.321,5.818-24.42,9.056-36.521c0.548-2.795,1.733-5.372,2.294-7.894
		C322.211,29.819,322.775,27.299,323.331,24.777 M280.571,125.417l-0.202,0.289l-0.004-0.271l0.412-0.31L280.571,125.417z
		 M291.385,98.937c-3.536,8.819-7.067,17.642-10.608,26.188c-0.236-0.81-0.26-1.633,0.146-2.216
		c3.137-7.961,6.686-16.229,10.033-24.213C290.959,98.972,291.174,98.953,291.385,98.937 M314.332,11.464
		c0.983-2.556,1.955-5.388,2.718-7.929c0,0-0.214-0.258-0.429-0.239c-1,1.732-2.417,3.496-3.837,5.538
		c-0.195,0.569-11.252,25.688-12.22,28.518c-6.701,15.688-13.415,31.094-19.692,46.742c-3.548,8.546-7.5,17.401-11.043,25.944
		c-0.782,1.99-1.779,3.999-1.296,6.165c1.596-3.16,2.966-6.572,4.553-10.006c6.105-14.53,12.422-29.087,18.941-43.653
		c2.769-6.278,5.534-12.56,8.507-18.857C305.264,32.845,309.594,22.307,314.332,11.464 M245.101,97.571c0,0,0.285-0.035,0.575-0.07
		c-1.354,5.394-13.066,52.794-14.456,57.92c0,0-1.201,2.903-1.491,2.935c1.39-5.122,13.446-54.951,14.831-60.07 M227.189,174.771
		c-0.188,0-0.539,0.148-0.513-0.135c0.728-8.827,3.902-19.629,6.471-28.366c-1.917,9.273-3.804,18.816-5.96,28.384 M235.35,72.913
		c3.034-11.534,6.288-22.812,9.738-34.377c1.916-6.761,4.444-13.849,6.568-20.626c0.97-2.829,1.511-5.904,2.058-8.703
		c-0.207,0.019-0.743-0.131-0.836,0.068c-3.62,7.947-5.86,15.615-8.793,23.562c-1.339,4.513-9.138,30.992-9.138,30.992
		c-1.352,4.479-9.669,39.357-11.738,48.054c-4.89,20.218-6.639,30.307-9.755,50.636c-0.158,1.044,0.638,0.895,0.525,0.915
		c0.508-0.104,1.503-1.255,1.702-1.824c1.102-5.595,0.086-1.074,1.182-6.942c1.308-5.613,0.779-3.356,1.883-8.953
		c0.556-2.522,2.953-13.061,3.113-14.999c0.108-3.313,6.666-31.65,7.62-35.028C231.577,88.082,233.25,80.517,235.35,72.913
		 M339.347-10.845c-4.556,17.162-8.123,32.232-13.096,49.425c-8.203,29.567-13.892,58.661-17.889,88.168
		c-1.379,10.573-2.133,21.095-3.306,31.651c-0.111,3.585,0.352,15.227,1.084,18.447c0.523,2.319,0.83,7.023-1.32,7.652
		c-2.006,0.586-2.254-0.874-4.023-1.36c-2.871-0.788-4.191,1.376-5.479,1.041c-3.173-0.819-6.053-1.837-5.82-8.463
		c0.208-7.448-0.376-23.188,0.246-30.946c1.595-17.746,4.021-35.839,7.291-53.994c0.179-1.12,0.15-2.219,0.297-4.435
		c-1.001,1.734-1.609,2.607-2.212,3.486c-0.214,0.014-0.223-0.261-0.223-0.261c0.778-2.265,1.782-3.996,2.56-6.263
		c0.388-1.133,0.562-2.246,0.737-3.642c-8.507,18.861-16.161,37.926-23.821,56.993c0.211-0.019,0.423-0.036,0.642,0.223
		c1.181-2.85,2.36-5.7,3.747-8.566c0.168-0.361,2.385-6.178,2.613-6.549c0.31-0.5-0.422,2.552-0.074,2.049
		c-2.15,5.683-5.431,13.546-8.005,19.263c-1.39,2.863-3.416,5.506-5.648,8.438c-0.609,0.602-1.642,1.233-2.073,0.992
		c-2.963-0.582-5.627,1.831-8.311,3.427c-2.481,1.577-4.358,2.007-5.882,0.198c-0.435-0.516-0.662-1.044-1.289-0.997
		c-2.734-0.052-3.436-2.474-3.728-5.476c-0.468-1.618-0.313-3.557-0.372-5.477c0.018-14.315,0.238-28.649,0.257-42.968
		c-0.037-1.1-0.28-2.183-0.728-3.245c-0.772,2.265-1.554,4.528-2.517,7.637c0.452-6.37,3.649-12.131,2.846-18.126
		c-0.58,1.698-0.958,3.106-1.342,4.512c-5.697,21.387-11.392,42.766-15.616,64.312c-1.276,6.985-0.708,3.335-0.936,5.123
		c-0.326,2.59-1.745,12.399-4.118,13.282c-1.471,0.547-2.686,1.123-4.946,0.263c-1.34-0.51-2.245,2.075-3.237,4.083
		c-2.299,0.46-1.967-2.591-3.265-3.865c-0.398,0.581-1.021,1.181-1.623,2.055c-1.747-2.331-2.064-6.161-1.968-10.021
		c-0.047-9.081,0.315-4.091,2.143-13.601c3.72-17.098,7.23-34.169,11.153-51.282c3.738-16.54,7.687-32.83,12.052-49.426
		c4.345-17.147,9.747-34.378,16.624-51.176c1.182-2.846,2.571-5.712,4.18-8.322c1.003-1.731,2.202-3.755,3.698-3.049
		c0.855,0.479,0.9,2.13,2.006,3.964c0.401-0.583,1-1.732,1.812-2.899c2.845-3.26,3.266-3.292,5.033-0.405
		c3.928-2.246,4.998-1.508,6.166,2.526c0.615-0.599,1.237-0.923,2.472-1.85c-0.752,3.088-3.259,25.87-3.259,25.87
		c-1.412,16.905-2.82,33.813-4.032,50.428c-0.155,1.937-0.784,9.958-0.78,9.423c-0.069,9.379-1.162,18.264-1.333,27.087
		c0.215-0.019,0.215-0.019,0.418-0.034c1.975-4.562,4.164-8.868,5.929-13.418c8.305-18.29,15.977-36.807,24.069-55.356
		c4.748-10.569,8.145-15.622,13.311-26.226c2.973-6.297,7.789-15.585,10.77-21.61c1.004-1.733,1.773-4.272,4.264-5.302
		c-0.544,3.075-0.892,5.581-1.448,8.379c0.216-0.017,0.435,0.239,0.644,0.223c1.804-3.176,3.401-6.056,5.619-9.539
		c1.454-0.394,1.302,1.548,1.961,2.595c1.029-0.911,2.257-1.836,3.286-2.742c0.451,1.063,0.692,2.145,0.935,3.225
		c1.055,0.192,2.316,0.089,2.755,0.88C339.687-13.628,339.525-11.963,339.347-10.845"/>
	<path fill="#FFFFFF" d="M368.261,105.983c3.394-2.948,4.76-7.271,6.653-11.018c-0.261-0.288-0.51-0.271-0.759-0.256
		C372.271,98.461,370.146,102.234,368.261,105.983 M339.459,89.286c-3.409,2.928-4.803,7.246-6.717,10.985
		c0.259,0.286,0.51,0.27,0.756,0.258C335.403,96.785,337.554,93.027,339.459,89.286 M335.917,138.67
		c5.02-6.979,10.04-13.966,14.551-21.211c3.812-5.994,7.602-12.59,11.153-18.871c0.945-1.573,1.888-3.452,1.347-5.225
		c-1.96,1.04-2.157,2.861-3.104,4.44c-2.595,5.005-4.936,9.989-7.798,14.416c-5.221,8.502-10.714,16.419-16.191,24.64
		c-0.717,1.262-1.684,2.231-1.386,4.023C334.964,139.945,335.688,139.296,335.917,138.67 M335.376,132.053
		c2.001-2.944,3.558-5.295,4.876-7.637c5.769-8.537,11.529-17.351,15.89-26.92c1.532-2.911,2.6-6.074,3.444-9.224
		c0.377-3.117-0.794-3.876-3.286-2.021c-0.456,0.309-0.902,0.623-1.352,1.215c-3.597,3.333-6.49,7.463-8.672,12.107
		c-5.056,9.329-8.252,19.098-10.529,28.803C335.308,129.25,335.568,130.357,335.376,132.053 M334.788,127.033
		c3.129-12.285,7.437-23.812,14.753-34.981C343.44,96.96,335.428,116.604,334.788,127.033 M338.846,81.437
		c-0.251-0.292-0.264-0.59-0.511-0.574c-5.106,3.669-8.423,9.325-12.581,20.775C330.272,94.392,334.556,87.76,338.846,81.437
		 M380.906,131.075c0.104,1.656-0.52,3.822-0.983,5.358c-0.925,2.478-1.657,4.499-2.974,6.852c-0.835,1.496-1.585,2.959-2.541,4.233
		c-6.705,8.906-11.821,14.981-20.076,21.585c-1.937,1.642-3.88,3.281-5.849,3.714c-5.661,1.598-11.301,3.792-16.511,3.848
		c-9.914-0.224-13.188-8.123-16.677-18.142c-2.154-6.191-2.589-13.405-2.041-20.686c1.777-16.725,5.293-33.335,13.794-49.306
		c4.964-9.096,9.598-15.1,17.657-19.875c4.634-2.733,9.066-3.941,13.548-3.037c6.467,0.763,11.993,3.408,17.064,7.585
		c0.76,0.853,2.029,1.674,2.804,2.826c3.062,3.413,3.191,8.235,0.622,14.142c-3.51,7.79-7.518,15.607-12.525,22.888
		c-1.919,2.545-3.365,5.34-5.228,8.207c-1.33,2.023-0.78,1.209-1.919,2.846c-1.581,2.288-2.84,4.719-4.527,6.646
		c-4.308,5.727-9.11,11.489-13.918,17.246c-0.966,0.974-2.17,2.261-3.393,2.95c-0.727,0.349-1.73,0.418-2.711,0.485
		c-0.223,0.922-0.443,2.145-0.406,3.348c0.083,3.017,0.638,5.394,2.406,6.475c1.516,1.104,3.817-0.112,5.512-1.442
		c8.518-6.008,13.778-12.237,20.723-21.462c1.435-1.911,2.612-4.404,3.795-6.3c1.196-1.587,2.153-2.86,3.37-3.849
		c-0.644,3.665-2.292,7.097-2.936,10.764c1.434-1.91,2.374-3.786,3.804-5.997c1.449-1.603,1.63-4.03,3.823-5.394
		c1.039,1.746-1.133,4.003-0.569,6.383c1.172-2.194,2.362-4.089,3.316-5.658c2.019,1.373,2.019,1.373,0.688,7.192
		c0.703-1.555,1.646-3.129,2.599-4.703C380.595,130.891,380.997,130.679,380.906,131.075"/>
	<g>
		<path fill="#214865" d="M206.965,126.099c-1.197,3.692-2.395,7.102-3.795,10.514c-1.804,4.262-3.418,5.118-8.079,4.572
			c-2.022,0.577-4.047,0.872-6.067,1.445c-2.428,0.864-4.451,0.872-6.083-1.672c-0.202-0.283-0.406-0.564-0.611-0.848
			c-3.461-3.955-4.289-7.92-1.282-14.459c1.603-3.694,4.018-7.109,6.229-10.237c1.411-1.71,3.023-3.42,4.449-1.44
			c0.203,0.283,0.811,0.281,1.013,0.279c6.673-2.018,10.341,2.505,13.799,7.31C207.152,122.413,207.163,124.681,206.965,126.099z
			 M208.198,130.066c-1.001,2.271-1.953,4.036-2.812,6.001c-0.332,0.757-0.601-0.316-0.806-0.316
			c1.004-1.989,1.662-4.041,2.464-5.749C207.043,130.002,207.796,130.066,208.198,130.066z"/>
	</g>
	<path fill="#FFFFFF" d="M63.823-13.419c-0.4-0.627-1.614-0.644-2.623-0.866c-0.202-0.832-0.407-1.663-0.81-2.495
		c-1.014,0.604-2.218,1.206-3.231,1.811c-0.604-0.836-0.408-2.284-1.815-2.096c-2.223,2.45-1.792,3.136-3.875,5.328
		c-0.122,0.129-0.609-0.373-0.614-0.214c0.04-1.819-0.202-1.667,0.404-3.934c-2.421,0.585-3.227,2.436-4.238,3.661
		c-1.375,1.954-2.585,3.967-3.78,6.007c-0.092,0.138-0.185,0.271-0.273,0.417c-1.546,2.51-3.026,4.644-3.639,5.703
		C34.173,8.762-10.76,87.996-11.466,89.078c-3.037,4.648-5.786,4.864-8.448,3.063c-0.162-5.925,0.578-8.391,1.04-14.256
		c0.194-2.488,1.054-8.626,1.812-12.357c0.729-3.6,9.995-50.934,10.412-53.169c0.284-3.036,0.23-3.258,0.159-4.211
		C-6.484,6.6-7.158,3.973-8.447,4.56c-0.671,1.637-1.058,1.864-1.29,1.649c-0.082-0.201-0.071-0.402-0.057-0.606
		C-9.73,4.591-9.672,3.58-10.248,3.39c-0.592,0.017-1.055,1.037-1.499,1.855c-0.157,0.407-0.34,0.812-0.529,1.22
		c-0.426,0.188-0.8-0.225-0.657-0.787c0.039-0.206,0.08-0.406,0.11-0.606c0.132-0.609,0.197-1.623-0.088-1.817
		c-0.184-0.199-0.787,0.018-1.114,0.43c-0.099,0.162-0.209,0.335-0.314,0.508c-0.696-0.632-1.888-0.559-2.455-0.569
		C-27.6,3.418-32.383,23.168-34.335,29.988c-4.681,16.406-7.927,31.743-7.811,51.482c1.25,20.748,3.697,25.7,8.884,33.975
		c2.916,4.655,6.779,6.669,6.903,6.803c10.12,4.034,20.514-2.941,26.432-9.585l-0.03,0.138c-0.44,1.927-1.049,4.026-1.856,7.246
		c-1.886,5.421-2.764,11.785-4.302,16.259c0,0-9.976,35.368-10.482,37.143c-0.953,2.851-4.351,13.652-7.604,20.775
		c-1.523,3.523-3.13,6.894-3.367,7.495c0.012,0.084-0.295,0.749,0,0c-0.012-0.07-0.279,0.316-1.446,2.56l-4.477,8.657l-2.76,4.836
		l-0.708,1.34c-0.492,3.545,1.976,3.182,4.625,2.821c1.217-0.002,2.435-0.004,3.675-2.14c0.378-0.36,0.963-1.073,1.106-0.714
		c1.266,1.414,3.068,0.781,4.124-1.358c1.659-2.846,2.47,0.344,4.051-1.792c2.044,2.483,3.44-2.686,4.693-3.044
		c0.271-1.064,1.773-0.359,3.248-3.209c1.015,0.356,1.935-2.136,3.046-2.85c0.874-3.913,1.22-3.913,1.647-2.845
		c4.051-7.719,4.414-9.397,5.916-14.186c1.732-4.438,3.813-10.12,6.125-16.649c1.605-4.445,3.153-8.92,4.666-13.409
		C25.648,114.021,47.143,45.804,47.143,45.804s14.038-44.873,15.39-52.61l1.295-3.922C64.03-11.555,64.229-12.794,63.823-13.419z
		 M-21.741,90.664c-0.056,0.608-0.114,2.08-0.876,1.911c-0.21-0.361-0.215-1.192-0.22-1.816c-0.107-4.039,0.504-8.14,0.76-12.292
		c0.423-3.672,0.907-7.515,1.385-11.039c1.006-5.665,1.896-11.309,3.077-16.861c0.472-2.283,1.058-4.595,1.696-6.761
		c0.234-0.669,0.886-1.042,1.287-1.599c-0.183,1.435-0.473,2.901-0.66,4.344C-16.282,50.973-19.408,65.431-21.741,90.664z
		 M1.115,77.587c-0.431,1.044-0.55,1.248-1.349,2.499c-0.45,0.198-2.334,0.425-2.006-0.397c0.094-0.235,1.517-2.706,1.626-2.94
		C2.907,69.937,32.198,17.523,37.578,8.86c0.097-0.166,3.751-5.925,6.223-9.65l1.157-0.19C43.993,0.725,3.363,72.143,1.115,77.587z
		 M30.861,63.423l-4.938,15.241c-0.615,1.196-1.224,2.308-1.845,3.603c-0.148-0.353-0.148-0.353-0.112-0.711
		c0.746-2.488,1.838-4.98,2.787-7.826C27.813,71.327,29.886,66.028,30.861,63.423z M-13.561,199.496
		c-0.633,1.579-1.403,3.013-2.033,4.604c-0.908-0.379-0.004-4.181,0.703-5.695c3.625-7.965,6.938-17.445,9.817-25.076
		c2.378-6.475,4.489-12.671,6.861-19.151c2.377-6.474,4.486-12.668,6.592-18.86c2.183-6.121,9.751-26.189,11.152-30.392
		c2.269-6.81,6.134-18.151,8.395-25.156c1.302-3.668,0.655-2.029,1.967-5.701c-0.225,1.445,1.435-2.489,0.951-0.759
		c-1.654,5.546-5.611,17.891-5.716,18.195c-4.544,13.904-11.035,32.537-15.828,46.705c-3.179,8.994-6.667,18.787-10.035,28.153
		C-4.683,176.787-9.612,189.063-13.561,199.496z M-4.985,195.014c-0.615,1.198-2.206,4.151-2.827,5.449
		c-0.149-0.354-0.149-0.354-0.113-0.711c0.747-2.491,2.823-6.827,3.771-9.673c1.061-2.4,3.131-7.699,4.107-10.304L-4.985,195.014z
		 M17.186,129.824c0,0-13.496,36.919-15.377,41.522c-1.724,4.59-4.021,7.901-5.75,12.497c-0.201,0.612-0.526,0.923-1.028,1.535
		c1.132-4.592,2.416-9.177,4.12-13.465c0.752-1.838,4.515-12.86,5.693-16.227c0.858-3.062,6.133-16.12,6.437-17.955
		c0.577-1.531,32.036-92.136,33.103-94.91c1.002-2.597,1.118-1.391,1.143-0.735L17.186,129.824z"/>
	<path fill="#FFFFFF" d="M100.147,88.326l-0.846-3.747l-0.082,1.687l-0.091-0.302c-0.19,3.813-0.787,7.658-1.449,11.554
		c-0.787,4.974-1.574,9.868-2.518,14.688c-1.43,6.657-3.196,13.096-5.684,19.523c-0.311,0.737-0.641,1.513-1.01,2.356l-1.648,2.34
		c0.717-1.773,1.333-3.326,1.602-3.965c4.261-10.925,6.101-22.39,8.018-34.279c1.196-6.912,2.185-13.667,1.052-20.383
		c-0.274-1.618-0.77-3.949-1.643-5.124c-1.308-2.204-2.953-4.001-4.896-5.102c-8.79-5.241-18.516-3.364-28.231,5.014
		c-2.191,1.933-4.479,1.249-6.669,3.187l-0.404,0.14c-1.445-1.86-2.835-0.2-4.022,1.392c-2.428,2.903-4.744,6.365-6.858,9.754
		c-6.878,11.833-11.695,25.314-14.69,39.354c-1.395,6.976-2.587,13.891-2.267,20.872c0.113,0.552,0.132,5.071,0.35,6.181
		c0.945,4.698,1.494,9.438,3.327,13.235c2.115,5.18,5.648,7.802,9.328,10.078c3.112,1.591,6.443,1.026,9.918,0.121
		c2.211-0.763,4.861-2.014,6.812-3.533c1.293-1.002,10.556-6.959,15.8-12.938c2.826-2.872,10.244-11.6,18.267-30.814l-0.044,0.062
		c0.107-0.219,0.122-0.262,0.126-0.278c3.108-7.891,6.442-23.251,6.632-24.543C98.671,103.768,99.731,95.429,100.147,88.326z
		 M42.457,102.335c-2.257,6.985-4.365,13.629-6.424,20.54c-1.032,4.494-2.011,9.264-3.19,14.101
		c-0.294,0.697-0.633,1.111-0.932,1.799c0.672-13.823,5.057-26.27,11.014-38.374C42.639,101.087,42.745,101.646,42.457,102.335z
		 M37.853,137.314c-0.199,0.07-0.257-0.209-0.449-0.14c1.008-5.666,1.563-11.471,3.945-16.731
		C40.081,125.908,39.066,131.582,37.853,137.314z M42.467,137.792c0.46-8.43,2.434-16.798,5.73-25.027
		C46.218,121.129,44.441,129.429,42.467,137.792z M89.065,95.7c0.792,1.803,0.119,3.804-0.012,5.326
		c-0.699,6.151-2.257,12.306-4.006,16.453C86.33,109.945,87.526,103.029,89.065,95.7z M74.936,107.956
		c-1.281,7.134-2.941,14.153-5.534,21c-3.289,8.824-7.386,17.182-13.292,23.687c-0.878,1.044-1.628,1.801-2.714,2.672
		c-1.721,1.342-1.888,1.396-3.201-0.632c-2.446-4.116-3.221-9.796-3.034-16.066c-0.021-10.897,7.312-28.312,6.625-26.338
		c0.661-1.223,1.102-2.614,1.714-4.065c1.672-4.296,3.59-8.185,6.431-11.146c0.138,0.697,0.108,1.449,0.292,2.381
		c1.113-1.63,2.159-2.734,2.988-4.01c2.186-3.481,4.557-6.039,7.241-7.957c1.884-1.396,2.653-1.164,3.218,1.62
		C76.83,94.897,76.304,101.279,74.936,107.956z M70.057,142.452c2.601-7.401,5.221-13.622,7.186-19.912
		c1.764-6.227,2.867-12.515,4.72-19.36c0,0,0.4-0.139,0.808-0.28c-1.13,13.69-5.51,26.135-10.871,38.035
		C71.61,141.621,71.006,141.831,70.057,142.452z M85.441,139.769c0.014-0.031,0.027-0.059,0.039-0.09l-0.02,0.065L85.441,139.769z"
		/>
	<path fill="#FFFFFF" d="M166.498,178.462c-1.012,3.709-2.762,4.293-4.866,2.684c-0.812-0.808-2.769-1.422-4.184-1.092
		c-1.897,0.316-3.392-0.728-4.709-2.798c-2.12-3.449-2.462-6.589-2.505-11.382c0.012-7.875-0.156-5.883-0.16-13.416
		c-0.164-1.704,0.118-3.77,0.156-5.826c-1.402,0.379-1.997,2.004-2.641,3.032c-3.466,5.537-6.465,9.445-10.042,14.672
		c-2.06,3.478-4.671,6.285-7.313,8.756c-3.294,3.169-6.341,3.937-9.791,2.998c-2.46-0.621-5.125-0.891-7.552-1.166
		c-3.143-0.26-5.29-2.601-7.468-5.284c-4.457-6.388-5.691-14.229-5.624-23.473c0.343-18.844,9.081-48.514,16.291-65.824
		c1.138-3.111,2.584-5.55,4.269-7.989c0.826-1.394,1.992-2.764,2.759-1.959c-0.432,5.492-4.072,10.037-4.676,16.216
		c1.858-3.129,3.747-5.919,5.401-8.702c0.826-1.392,1.378-3.119,2.204-4.508c0.761-2.077,2.161-2.454,3.557-0.439
		c-1.898,5.186-3.733,11.059-5.838,16.59c0.24-0.004,0.479-0.012,0.514,0.33c2.378-5.198,4.721-10.739,7.101-15.94
		c3.07,1.974,3.475,3.676,1.922,7.485c-0.555,1.726-1.141,3.108-1.728,4.493c-0.346,1.381-0.933,2.767-0.801,4.131
		c0.553-1.726,1.347-3.459,2.139-5.191c0.792-1.731,1.792-3.815,2.344-5.541c0.242-0.006,0.481-0.014,0.752,0.323
		c-0.176,0.688-0.075,1.712-0.249,2.402c-3.691,9.002-10.413,29.71-12.841,39.363c0.034,0.342-0.142,1.032,0.13,1.368
		c0.382-1.037,0.555-1.727,0.696-2.757c0.379-1.04,0.758-2.075,1.141-3.115c1.212-4.825,7.166-21.063,8.825-26.246
		c0.759-2.072,1.759-4.154,3.238-6.248c-5.393,16.236-13.937,43.676-15.879,60.85c1.643-0.384,3.617-3.08,4.473-4.128
		c7.574-13.559,14.909-27.104,22.001-40.648c5.886-11.113,10.081-21.598,15.492-32.7c1.238-2.085,2.75-3.837,4.5-5.594
		c0.446-0.358,1.465-0.468,1.913-0.051c0.304,0.281,1.152,0.492,0.263,2.728c-0.556,1.4-0.933,2.766-1.42,5.178
		c2.262-1.431,2.724-3.624,4.054-5.246c1.639-1.997,3.357-1.043,3.211,0.94c-0.052,0.708-0.142,1.034-0.314,1.719
		c2.501-1.433,2.98-1.447,4.68,1.248c0.814,1.005,1.87,2.003,2.244,3.365c0.437,2.042,0.189,4.444-0.778,6.867
		c-2.115,7.932-10.674,29.239-13.342,42.857c-3.187,16.268-1.708,20.203-2.415,36.629c-0.495,3.758,0.541,14.556,1.142,16.621
		C166.774,175.044,166.915,177.44,166.498,178.462z M158.485,87.763c0,0-0.029-0.003-0.208,0.349
		c-11.154,21.832-21.909,44.069-34.808,64.616c0,0-0.206,0.348-0.173,0.686C129.189,149.836,157.078,98.075,158.485,87.763z
		 M150.463,138.188c-4.923,8.692-9.226,16.339-13.767,23.991C142.121,156.215,149.486,143.006,150.463,138.188z M147.661,139.134
		c1.816-3.133,3.223-5.548,4.104-7.922c-0.074-0.717-0.684-1.312-0.621-0.614C149.198,132.396,147.876,134.724,147.661,139.134z"/>
	<polygon fill="#B4D9C5" points="382.335,163.24 382.344,163.254 382.342,163.258 	"/>
	<g>
		<path fill="#FFFFFF" d="M31.611,189.865c2.142,1.135,3.779,2.769,4.916,4.903c1.135,2.136,1.703,4.675,1.703,7.62
			c0,2.919-0.568,5.439-1.703,7.559c-1.137,2.122-2.774,3.744-4.916,4.865c-2.143,1.122-4.709,1.683-7.703,1.683h-8.012v-28.333
			h8.012C26.901,188.162,29.468,188.729,31.611,189.865z M32.52,211.043c1.975-2.066,2.962-4.952,2.962-8.654
			c0-3.729-0.987-6.64-2.962-8.735c-1.975-2.093-4.846-3.141-8.612-3.141h-5.304v23.63h5.304
			C27.674,214.143,30.545,213.109,32.52,211.043z"/>
		<path fill="#FFFFFF" d="M62.462,206.521H44.926c0.077,1.677,0.465,3.109,1.162,4.299c0.696,1.188,1.612,2.087,2.75,2.696
			c1.134,0.607,2.374,0.911,3.714,0.911c1.756,0,3.234-0.446,4.432-1.338c1.201-0.891,1.994-2.095,2.381-3.608h2.865
			c-0.517,2.163-1.621,3.927-3.309,5.291c-1.691,1.363-3.813,2.046-6.369,2.046c-1.986,0-3.767-0.465-5.342-1.396
			c-1.574-0.935-2.805-2.257-3.695-3.974c-0.892-1.716-1.336-3.723-1.336-6.019c0-2.298,0.439-4.311,1.316-6.039
			c0.876-1.729,2.103-3.054,3.678-3.974c1.573-0.917,3.367-1.378,5.379-1.378c2.013,0,3.774,0.461,5.285,1.378
			c1.509,0.92,2.67,2.157,3.483,3.709c0.813,1.554,1.219,3.276,1.219,5.168C62.539,205.267,62.513,206.011,62.462,206.521z
			 M58.843,199.998c-0.658-1.161-1.556-2.04-2.69-2.634c-1.136-0.596-2.375-0.894-3.716-0.894c-2.015,0-3.731,0.675-5.149,2.027
			c-1.421,1.352-2.207,3.255-2.362,5.715h14.866C59.817,202.566,59.502,201.159,58.843,199.998z M55.921,187.839l-7.937,4.822
			v-2.188l7.937-5.188V187.839z"/>
		<path fill="#FFFFFF" d="M70.398,186.5v29.995h-2.709V186.5H70.398z"/>
		<path fill="#FFFFFF" d="M76.707,189.581c-0.386-0.406-0.581-0.905-0.581-1.501c0-0.594,0.194-1.086,0.581-1.479
			c0.388-0.392,0.853-0.588,1.394-0.588c0.543,0,1.007,0.196,1.393,0.588c0.388,0.393,0.581,0.885,0.581,1.479
			c0,0.596-0.193,1.095-0.581,1.501c-0.386,0.404-0.85,0.607-1.393,0.607C77.56,190.188,77.094,189.985,76.707,189.581z
			 M79.456,194.363v22.132h-2.709v-22.132H79.456z"/>
		<path fill="#FFFFFF" d="M85.88,199.41c0.877-1.715,2.091-3.04,3.638-3.974c1.549-0.931,3.316-1.397,5.304-1.397
			c2.607,0,4.754,0.677,6.444,2.027c1.691,1.351,2.781,3.188,3.272,5.512h-2.904c-0.361-1.594-1.142-2.844-2.342-3.749
			c-1.199-0.904-2.691-1.358-4.471-1.358c-1.419,0-2.698,0.339-3.832,1.015c-1.136,0.675-2.033,1.681-2.691,3.019
			c-0.658,1.338-0.987,2.979-0.987,4.926c0,1.944,0.329,3.594,0.987,4.944c0.658,1.353,1.555,2.365,2.691,3.04
			c1.134,0.676,2.413,1.014,3.832,1.014c1.78,0,3.272-0.454,4.471-1.358c1.2-0.905,1.981-2.168,2.342-3.79h2.904
			c-0.491,2.271-1.588,4.094-3.291,5.472c-1.704,1.378-3.846,2.067-6.426,2.067c-1.988,0-3.755-0.465-5.304-1.396
			c-1.547-0.935-2.761-2.257-3.638-3.974c-0.877-1.716-1.316-3.723-1.316-6.019C84.564,203.132,85.003,201.127,85.88,199.41z"/>
		<path fill="#FFFFFF" d="M128.771,206.521h-17.536c0.078,1.677,0.464,3.109,1.161,4.299c0.697,1.188,1.612,2.087,2.749,2.696
			c1.136,0.607,2.374,0.911,3.716,0.911c1.753,0,3.232-0.446,4.432-1.338c1.2-0.891,1.993-2.095,2.38-3.608h2.865
			c-0.516,2.163-1.619,3.927-3.311,5.291c-1.69,1.363-3.812,2.046-6.367,2.046c-1.989,0-3.768-0.465-5.341-1.396
			c-1.575-0.935-2.808-2.257-3.698-3.974c-0.89-1.716-1.335-3.723-1.335-6.019c0-2.298,0.438-4.311,1.316-6.039
			c0.877-1.729,2.103-3.054,3.677-3.974c1.575-0.917,3.369-1.378,5.382-1.378c2.012,0,3.775,0.461,5.284,1.378
			c1.51,0.92,2.671,2.157,3.484,3.709c0.812,1.554,1.22,3.276,1.22,5.168C128.849,205.267,128.823,206.011,128.771,206.521z
			 M125.151,199.998c-0.658-1.161-1.555-2.04-2.69-2.634c-1.136-0.596-2.375-0.894-3.715-0.894c-2.013,0-3.729,0.675-5.148,2.027
			c-1.419,1.352-2.206,3.255-2.361,5.715H126.1C126.125,202.566,125.809,201.159,125.151,199.998z"/>
		<path fill="#FFFFFF" d="M135.332,215.057c-1.535-1.177-2.395-2.777-2.575-4.805h2.788c0.13,1.243,0.69,2.25,1.685,3.021
			c0.993,0.771,2.329,1.155,4.005,1.155c1.472,0,2.626-0.365,3.466-1.095c0.838-0.729,1.257-1.634,1.257-2.716
			c0-0.757-0.232-1.377-0.697-1.864c-0.465-0.485-1.052-0.871-1.762-1.154c-0.709-0.284-1.669-0.588-2.882-0.913
			c-1.576-0.432-2.853-0.865-3.833-1.297c-0.98-0.433-1.812-1.075-2.497-1.925c-0.684-0.852-1.026-1.993-1.026-3.426
			c0-1.08,0.31-2.08,0.93-2.999c0.617-0.917,1.496-1.648,2.632-2.19c1.135-0.539,2.424-0.81,3.871-0.81
			c2.27,0,4.103,0.603,5.496,1.805c1.393,1.202,2.143,2.856,2.246,4.964h-2.71c-0.077-1.297-0.562-2.343-1.451-3.14
			c-0.89-0.799-2.11-1.197-3.658-1.197c-1.369,0-2.478,0.339-3.331,1.015c-0.852,0.675-1.276,1.513-1.276,2.513
			c0,0.864,0.25,1.575,0.754,2.127c0.504,0.556,1.128,0.988,1.878,1.297c0.747,0.312,1.753,0.656,3.019,1.035
			c1.522,0.432,2.735,0.851,3.639,1.256c0.902,0.405,1.676,1,2.323,1.784c0.644,0.784,0.98,1.823,1.005,3.12
			c0,1.189-0.31,2.25-0.929,3.183c-0.621,0.931-1.484,1.668-2.594,2.209c-1.11,0.538-2.386,0.81-3.831,0.81
			C138.848,216.818,136.867,216.23,135.332,215.057z"/>
		<path fill="#FFFFFF" d="M169.247,199.41c0.878-1.715,2.084-3.04,3.621-3.974c1.533-0.931,3.271-1.397,5.205-1.397
			c1.86,0,3.537,0.474,5.033,1.42c1.496,0.945,2.594,2.175,3.29,3.688V186.5h2.709v29.995h-2.709v-4.944
			c-0.646,1.539-1.702,2.801-3.173,3.788c-1.473,0.987-3.202,1.479-5.187,1.479c-1.937,0-3.672-0.473-5.208-1.419
			c-1.536-0.945-2.735-2.282-3.599-4.013c-0.866-1.728-1.297-3.729-1.297-5.998C167.931,203.118,168.37,201.127,169.247,199.41z
			 M185.352,200.727c-0.698-1.35-1.647-2.39-2.845-3.121c-1.201-0.729-2.525-1.093-3.969-1.093c-1.497,0-2.838,0.351-4.025,1.054
			c-1.187,0.702-2.122,1.722-2.806,3.06c-0.683,1.338-1.026,2.925-1.026,4.763c0,1.81,0.343,3.397,1.026,4.762
			c0.684,1.366,1.619,2.406,2.806,3.122c1.188,0.717,2.529,1.073,4.025,1.073c1.444,0,2.768-0.364,3.969-1.094
			c1.198-0.729,2.147-1.771,2.845-3.121c0.695-1.352,1.044-2.918,1.044-4.701C186.396,203.645,186.047,202.079,185.352,200.727z"/>
		<path fill="#FFFFFF" d="M213.801,194.363v22.132h-2.708v-3.891c-0.621,1.377-1.576,2.432-2.864,3.16
			c-1.292,0.73-2.738,1.096-4.337,1.096c-2.529,0-4.592-0.817-6.194-2.453c-1.6-1.635-2.397-4.006-2.397-7.115v-12.929h2.669v12.606
			c0,2.404,0.574,4.242,1.723,5.512c1.148,1.271,2.714,1.905,4.702,1.905c2.04,0,3.665-0.675,4.878-2.026
			c1.213-1.353,1.82-3.337,1.82-5.96v-12.037H213.801z"/>
		<path fill="#FFFFFF" d="M266.646,196.411c1.56,1.635,2.343,4.006,2.343,7.113v12.971h-2.673v-12.648
			c0-2.402-0.555-4.239-1.665-5.51c-1.109-1.271-2.618-1.905-4.528-1.905c-1.987,0-3.573,0.688-4.761,2.066
			c-1.188,1.379-1.779,3.378-1.779,5.998v11.999h-2.672v-12.648c0-2.402-0.556-4.239-1.666-5.51
			c-1.109-1.271-2.633-1.905-4.566-1.905c-1.988,0-3.576,0.688-4.762,2.066c-1.187,1.379-1.782,3.378-1.782,5.998v11.999h-2.709
			v-22.132h2.709v3.81c0.672-1.377,1.627-2.424,2.866-3.141c1.237-0.716,2.618-1.073,4.14-1.073c1.833,0,3.441,0.46,4.821,1.377
			c1.38,0.92,2.381,2.27,2.999,4.055c0.568-1.757,1.543-3.102,2.923-4.034c1.381-0.933,2.948-1.397,4.704-1.397
			C263.065,193.959,265.084,194.775,266.646,196.411z"/>
		<path fill="#FFFFFF" d="M279.072,215.422c-1.587-0.935-2.838-2.257-3.753-3.974c-0.918-1.716-1.375-3.723-1.375-6.019
			c0-2.298,0.464-4.303,1.393-6.02c0.93-1.715,2.192-3.04,3.794-3.974c1.601-0.931,3.394-1.397,5.378-1.397
			c1.989,0,3.79,0.467,5.401,1.397c1.613,0.934,2.879,2.259,3.794,3.974c0.915,1.717,1.375,3.722,1.375,6.02
			c0,2.27-0.464,4.269-1.395,5.999c-0.929,1.729-2.205,3.059-3.831,3.993c-1.628,0.932-3.433,1.396-5.42,1.396
			C282.447,216.818,280.66,216.354,279.072,215.422z M288.303,213.354c1.188-0.663,2.151-1.661,2.885-2.999
			c0.736-1.339,1.104-2.98,1.104-4.925c0-1.946-0.361-3.588-1.086-4.926c-0.723-1.338-1.676-2.337-2.862-2.999
			c-1.188-0.662-2.478-0.992-3.871-0.992s-2.684,0.33-3.87,0.992c-1.188,0.662-2.137,1.661-2.846,2.999
			c-0.71,1.338-1.066,2.979-1.066,4.926c0,1.944,0.356,3.586,1.066,4.925c0.709,1.338,1.651,2.336,2.826,2.999
			c1.174,0.663,2.456,0.992,3.851,0.992C285.826,214.346,287.117,214.017,288.303,213.354z"/>
		<path fill="#FFFFFF" d="M316.331,196.411c1.598,1.635,2.4,4.006,2.4,7.113v12.971h-2.672v-12.648c0-2.402-0.574-4.239-1.722-5.51
			c-1.15-1.271-2.718-1.905-4.705-1.905c-2.037,0-3.662,0.676-4.876,2.025c-1.213,1.352-1.819,3.339-1.819,5.958v12.08h-2.709
			v-22.132h2.709v3.77c0.669-1.351,1.636-2.384,2.904-3.101c1.263-0.716,2.694-1.073,4.295-1.073
			C312.664,193.959,314.73,194.775,316.331,196.411z"/>
		<path fill="#FFFFFF" d="M325,199.41c0.876-1.715,2.086-3.04,3.619-3.974c1.535-0.931,3.271-1.397,5.208-1.397
			c1.856,0,3.534,0.474,5.032,1.42c1.497,0.945,2.593,2.175,3.291,3.688V186.5h2.708v29.995h-2.708v-4.944
			c-0.647,1.539-1.705,2.801-3.176,3.788s-3.199,1.479-5.188,1.479c-1.935,0-3.672-0.473-5.205-1.419
			c-1.537-0.945-2.736-2.283-3.603-4.013c-0.864-1.728-1.294-3.73-1.294-5.998C323.686,203.118,324.124,201.127,325,199.41z
			 M341.104,200.727c-0.695-1.35-1.645-2.39-2.846-3.121c-1.198-0.73-2.521-1.093-3.966-1.093c-1.497,0-2.839,0.351-4.027,1.054
			c-1.187,0.702-2.123,1.722-2.808,3.06c-0.684,1.338-1.025,2.925-1.025,4.763c0,1.81,0.342,3.397,1.025,4.762
			c0.685,1.366,1.621,2.406,2.808,3.122c1.188,0.717,2.53,1.073,4.027,1.073c1.444,0,2.768-0.364,3.966-1.094
			c1.201-0.729,2.15-1.771,2.846-3.121c0.697-1.352,1.047-2.918,1.047-4.701C342.151,203.645,341.801,202.079,341.104,200.727z"/>
		<path fill="#FFFFFF" d="M370.291,206.521h-17.535c0.078,1.677,0.464,3.109,1.161,4.299c0.695,1.188,1.611,2.087,2.748,2.696
			c1.136,0.607,2.374,0.911,3.717,0.911c1.755,0,3.233-0.446,4.432-1.338c1.199-0.891,1.994-2.095,2.383-3.608h2.863
			c-0.517,2.163-1.621,3.927-3.312,5.291c-1.688,1.363-3.813,2.046-6.366,2.046c-1.986,0-3.77-0.465-5.342-1.396
			c-1.574-0.935-2.807-2.257-3.699-3.974c-0.89-1.716-1.334-3.723-1.334-6.019c0-2.298,0.438-4.311,1.316-6.039
			c0.878-1.729,2.102-3.054,3.677-3.974c1.574-0.917,3.369-1.378,5.381-1.378c2.013,0,3.774,0.461,5.284,1.378
			c1.508,0.92,2.669,2.157,3.482,3.709c0.812,1.554,1.219,3.276,1.219,5.168C370.367,205.267,370.343,206.011,370.291,206.521z
			 M366.672,199.998c-0.659-1.161-1.557-2.04-2.689-2.634c-1.135-0.596-2.374-0.894-3.717-0.894c-2.014,0-3.729,0.675-5.148,2.027
			c-1.418,1.352-2.208,3.255-2.361,5.715h14.863C367.645,202.566,367.328,201.159,366.672,199.998z"/>
	</g>
	<path fill="#FFFFFF" d="M587.816-30.887c-6.078-2.1-12.793-3.781-20.113-5.063c-3.07,4.651-10.246,6.896-16.586,5.025
		c-4.422-1.303-7.306-4.289-7.974-7.661c-9.148-0.457-18.95-0.452-29.41,0.041c-56.548,2.667-100.979,30.445-108.049,67.551
		c-3.277,17.205,3.002,33.466,17.687,45.782c1.744,1.463,3.612,2.832,5.546,4.149l-40.735,36.694l38.822-13.983l30.109-10.155
		c10.568,1.879,34.645,3.182,46.827,2.608c59.877-2.823,123.299-46.983,121.546-84.157C624.627-8.288,611.249-22.788,587.816-30.887
		z"/>
	<path opacity="0.21" fill="#FFFFFF" d="M576.779-30.158c-3.581-1.235-7.389-2.33-11.408-3.282
		c-3.613,2.878-9.198,4.007-14.254,2.516c-3.709-1.095-6.318-3.378-7.462-6.073c-12.278-1.249-25.956-1.524-40.956-0.816
		C446.153-35.146,401.718-7.37,394.648,29.738c-3.276,17.206,3.006,33.462,17.688,45.779c1.349,1.133,2.776,2.202,4.242,3.248
		l-39.217,35.329l68.694-24.749l-0.628-0.386l11.685,2.534c10.566,1.879,21.837,3.174,34.021,2.6
		c59.877-2.823,125.071-46.246,123.316-83.42C613.59-7.559,600.213-22.061,576.779-30.158z"/>
	<path fill="#FFFFFF" d="M561.346-56.389c-5.815-2.626-12.659-0.044-15.289,5.772c-0.891,1.973-1.171,4.062-0.938,6.065
		c0.071,0.629,0.212,1.245,0.386,1.85c0.893,3.156,3.099,5.917,6.323,7.373c4.396,1.987,9.365,0.992,12.67-2.116
		c0.836-0.79,1.575-1.706,2.159-2.751c0.166-0.293,0.322-0.592,0.466-0.903C569.749-46.915,567.167-53.759,561.346-56.389z"/>
	<path fill="none" stroke="#001E32" stroke-width="2.5" stroke-linecap="round" stroke-linejoin="round" stroke-miterlimit="10" d="
		M584.514-16.529c-1.622,3.624-5.885,5.187-9.516,3.493c-3.629-1.694-5.258-6.005-3.632-9.626c1.624-3.622,5.885-5.187,9.515-3.493
		C584.512-24.459,586.138-20.15,584.514-16.529z"/>
	<g>
		<path fill="#FFFFFF" d="M581.552-70.55L581.552-70.55c0.969,0,1.911,0.344,2.654,0.967c0.84,0.706,1.354,1.693,1.447,2.782
			c0.093,1.083-0.242,2.138-0.944,2.968c-0.78,0.924-1.927,1.453-3.144,1.453c-0.969,0-1.912-0.343-2.654-0.965
			c-0.842-0.707-1.356-1.697-1.448-2.786c-0.092-1.082,0.244-2.134,0.949-2.967C579.191-70.021,580.335-70.55,581.552-70.55
			 M581.552-73.05c-1.881,0-3.747,0.796-5.05,2.34c-2.354,2.779-1.992,6.932,0.801,9.279c1.243,1.042,2.758,1.551,4.263,1.551
			c1.881,0,3.747-0.795,5.053-2.339c2.35-2.782,1.987-6.935-0.805-9.279C584.57-72.541,583.057-73.05,581.552-73.05L581.552-73.05z"
			/>
	</g>
	<path fill="#FFFFFF" d="M601.63-37.513c-0.87,0-1.717-0.183-2.52-0.545c-1.494-0.674-2.633-1.891-3.212-3.422
		c-0.58-1.532-0.525-3.198,0.149-4.689c0.989-2.191,3.185-3.607,5.589-3.607c0.87,0,1.719,0.184,2.521,0.545
		c1.493,0.675,2.634,1.89,3.212,3.421c0.581,1.532,0.526,3.199-0.148,4.69C606.23-38.93,604.036-37.513,601.63-37.513z"/>
	<path fill="#001E32" d="M559.012-7.849c-0.458,0-0.901-0.096-1.325-0.286c-0.784-0.355-1.383-0.995-1.688-1.799
		c-0.305-0.805-0.275-1.68,0.078-2.465c0.521-1.152,1.675-1.897,2.939-1.897c0.457,0,0.905,0.097,1.324,0.287
		c0.784,0.355,1.385,0.995,1.688,1.798c0.306,0.806,0.278,1.683-0.077,2.466C561.43-8.593,560.276-7.849,559.012-7.849z"/>
	<path fill="none" stroke="#001E32" stroke-miterlimit="10" d="M573.66,7.28c-0.657,0-1.3-0.141-1.909-0.415
		c-1.13-0.511-1.991-1.43-2.433-2.591c-0.438-1.16-0.397-2.421,0.113-3.551c0.75-1.66,2.412-2.732,4.233-2.732
		c0.659,0,1.303,0.137,1.909,0.413c1.132,0.51,1.995,1.43,2.435,2.591c0.438,1.161,0.398,2.422-0.113,3.552
		C577.146,6.206,575.482,7.28,573.66,7.28z"/>
	<path fill="#FFFFFF" d="M606.596-117.177c-0.797-0.224-1.527-0.613-2.171-1.153c-1.194-1.003-1.929-2.411-2.065-3.967
		c-0.137-1.556,0.344-3.069,1.347-4.265c1.475-1.756,3.854-2.491,6.062-1.87c0.8,0.225,1.529,0.613,2.172,1.152
		c1.196,1.005,1.93,2.412,2.066,3.969c0.135,1.555-0.342,3.07-1.347,4.265C611.185-117.291,608.804-116.556,606.596-117.177z"/>
	<g>
		<path fill="#FFFFFF" d="M588.803-92.247c-4.803,5.724-13.344,6.469-19.07,1.659c-5.721-4.806-6.466-13.344-1.659-19.067
			c4.808-5.725,13.344-6.468,19.068-1.662C592.868-106.509,593.612-97.971,588.803-92.247z"/>
	</g>
	<path fill="#FFFFFF" d="M620.785-76.583c-1.966-0.553-3.764-1.504-5.343-2.832c-6.067-5.096-6.857-14.177-1.766-20.244
		c3.626-4.316,9.479-6.119,14.904-4.594c1.966,0.553,3.763,1.504,5.341,2.83c2.941,2.471,4.744,5.936,5.078,9.758
		c0.332,3.826-0.841,7.55-3.312,10.491C632.063-76.86,626.213-75.058,620.785-76.583z"/>
	<path fill="#001E32" d="M448.878,15.306c0.183-0.978,0.925-1.845,0.563-2.868c-0.075-0.183-0.181-0.359-0.361-0.42
		c-0.141-0.034-0.263,0.025-0.421,0.061c-3.038,1.212-2.334,5.567-1.332,7.951c0.955,2.329,2.699,4.01,4.608,5.522
		c0.056-0.046,0.146-0.098,0.234-0.152c1.61-1.161,3.28-2.069,5.141-2.717c0.152-0.068,1.423-0.218,1.101-0.012
		c-1.8,1.071-3.823,2.189-5.661,3.536c0.078,0.049,0.155,0.1,0.24,0.181c2.494,1.883,5.884,5.239,2.649,8.265
		c-1.604,1.496-4.64,1.671-6.604,0.807c-3.819-1.687-2.277-5.408,0.092-7.675c-0.7-0.58-1.373-1.198-1.996-1.894
		c-0.377-0.35-0.705-0.611-0.783-0.662c-1.018-0.976-1.894-2.051-2.512-3.315c-1.29-2.788-0.574-6.757,1.189-9.19
		c1.428-1.991,6.376-3.628,7.111-0.185c0.292,1.307-0.284,2.47-1.468,3.001c-0.279,0.097-1.493,0.5-1.719,0.083
		c-0.047-0.056-0.062-0.119-0.114-0.208L448.878,15.306z M449.549,33.271c0.717,1.411,3.559,3.217,4.037-0.032
		c0.131-0.763-0.568-1.945-1.089-2.63c-0.778-0.496-1.498-1.171-2.211-1.814C449.415,30.126,448.646,31.468,449.549,33.271z"/>
	<path fill="#001E32" d="M458.219-3.793c0.3,0.603,0.305,1.369,0.414,2.013c0.112,0.644,0.285,1.274,0.333,1.931
		c0.178,1.698-4.619,2.668-4.878,1.056c-0.151-0.97-0.076-1.988-0.029-2.967c0.092-1.091,0.345-1.75,1.286-2.328
		C456.164-4.604,457.705-4.747,458.219-3.793z M457.193,19.899c-0.915-3.504-1.913-8.264-0.687-11.746
		c0.216-0.682,2.798-1.393,3.256-0.692c1.945,2.875,1.623,6.823,2.363,10.134c0.392,1.751,0.935,3.434,1.701,5.068
		c0.578,1.242,1.171,1.944,0.565,3.283c-0.226,0.486-1.485,0.534-1.935,0.465C459.199,26.037,457.937,22.775,457.193,19.899z"/>
	<path fill="#001E32" d="M479.237,29.55c-0.868,1.499-3.419,1.599-4.934,1.403c-3.613-0.465-5.307-3.261-6.543-6.395
		c-1.941-4.947-2.903-10.448-3.831-15.654c-0.033-0.294-0.103-0.614-0.174-0.931c-0.651,0.378-1.333,0.766-2.009,1.184
		c-0.323,0.205-3.038,0.611-2.318-0.052c1.16-1.096,2.581-1.913,4.077-2.548c-0.739-3.913-1.566-8.808,0.277-11.926
		c0.314-0.537,2.299-1.082,2.702-0.469c1.517,2.301,1.119,5.898,1.517,8.585c0.116,0.81,0.223,1.588,0.367,2.39
		c1.567-0.316,3.351-0.413,4.13,0.383c0.177,0.193-0.46,0.336-0.547,0.39c-1.133,0.317-2.221,0.395-3.363,0.515
		c0.382,2.153,0.826,4.294,1.232,6.411c0.622,2.937,2.899,19.406,8.473,16.826C478.381,29.608,479.28,29.442,479.237,29.55z"/>
	<path fill="#001E32" d="M474.125,16.988c-0.637-3.901-0.423-9.23,3.254-11.622c2.044-1.326,5.636-2.161,7.14,0.244
		c1.464,1.613-0.121,4.841-1.149,6.375c-1.035,1.501-2.397,2.875-4.012,3.736c0.309,1.536,0.772,3.905,1.806,4.944
		c2.023,2.022,4.721-3.56,5.646-5.405c0.134-0.297,1.668-0.471,1.631-0.331c-0.632,3.45-4.502,8.124-7.774,8.588
		C476.327,24.15,474.748,20.826,474.125,16.988z M479.159,14.529c0.84-0.723,1.591-1.56,2.214-2.5
		c0.725-1.097,1.383-2.347,1.479-3.707c0.052-1.114-0.409-1.98-0.738-3.009C478.752,4.926,478.752,11.511,479.159,14.529z"/>
	<path fill="#001E32" d="M501.349,10.911c-0.637-3.901-0.424-9.231,3.254-11.622c2.044-1.325,5.634-2.16,7.141,0.244
		c1.462,1.614-0.121,4.84-1.149,6.373c-1.036,1.502-2.399,2.878-4.014,3.737c0.311,1.538,0.772,3.906,1.808,4.945
		c2.022,2.023,4.721-3.561,5.645-5.404c0.135-0.298,1.668-0.472,1.631-0.331c-0.633,3.45-4.502,8.124-7.774,8.587
		C503.551,18.074,501.973,14.75,501.349,10.911z M506.381,8.452c0.843-0.724,1.592-1.559,2.218-2.5
		c0.723-1.098,1.38-2.346,1.477-3.707c0.054-1.114-0.409-1.98-0.739-3.009C505.975-1.15,505.975,5.435,506.381,8.452z"/>
	<path fill="#001E32" d="M527.11-5.602c-0.028-0.127-0.711-3.183-0.994-2.952c-1.318,1.128-1.66,3.345-2.103,4.948
		c-0.548,1.894-0.992,3.797-1.396,5.725c-0.37,1.789-0.707,3.567-1.078,5.354c0.009,0.333,0.016,0.666,0.024,0.997
		c0.023,1.601,0.327,3.27,0.185,4.874c-0.017,0.069-0.074,0.116-0.154,0.201c-0.025,0.041-0.019,0.072-0.035,0.142
		c-0.124,0.795-2.794,1.26-3.318,0.707c-0.007-0.03-0.054-0.088-0.093-0.112c-0.117-0.076-0.226-0.117-0.286-0.237
		c-0.251-0.378-0.479-0.796-0.707-1.212c-1.138-2.253-1.396-5.205-1.668-7.615c-0.349-3.064-0.837-6.9,0.603-9.728
		c0.35-0.679,3.038-1.512,3.417-0.563c1.086,2.768,0.51,6.471,0.821,9.511c0,0,0.007,0.031,0.014,0.063
		c0.411-2.197,0.919-4.416,1.433-6.602c0.699-2.863,1.262-7.068,4.588-8.043c3.134-0.934,3.457,2.604,4.003,5.056
		c0.251,1.114,0.46,2.204,0.677,3.324c0.639,2.264,0.895,4.748,1.473,6.891c0.699,2.685,1.585,6.498,3.747,8.388
		c0.37,0.318-1.522,0.674-1.728,0.653c-0.402-0.01-0.757-0.1-1.087-0.226C528.774,8.433,528.186,1.31,527.11-5.602z"/>
	<path fill="#001E32" d="M437.625,65.435c0.301,1.503,0.753,4.276,1.882,5.427c2.021,2.023,4.769-3.337,5.694-5.182
		c0.133-0.296,1.664-0.471,1.63-0.33c-0.634,3.451-4.552,7.901-7.825,8.365c-4.336,0.634-5.883-2.698-6.539-6.528
		c-0.637-3.902-0.424-9.231,3.254-11.623c2.1-1.372,5.856-2.209,7.285,0.446c0.007,0.032-0.711,0.26-0.797,0.178
		C436.708,52.804,437.055,62.586,437.625,65.435z"/>
	<path fill="#001E32" d="M445.377,63.469c-0.516-3.06-0.249-6.795,1.192-9.625c0.49-0.943,1.299-1.959,2.138-2.547
		c0.233-0.153,2.648-1.16,3.668-1.086c0.559-0.193,1.195-0.335,1.894-0.355c5.926-0.255,7.972,7.109,7.383,12.557
		c0.905-0.136,1.76-0.495,2.284-1.146c0.547-0.691,3.497-0.949,2.855-0.236c-1.255,1.415-3.207,2.252-5.312,2.555
		c-0.162,0.771-0.377,1.453-0.607,2.073c-1.034,2.404-3.282,4.31-5.733,5.158c-0.312,0.103-1.202,0.302-2.122,0.374
		C449.314,72.115,445.955,66.818,445.377,63.469z M454.236,69.916c0.096-0.022,0.19-0.044,0.325-0.041
		c1.521-0.673,2.906-2.252,3.475-3.449c0.409-0.861,0.671-1.789,0.829-2.726c-2.768-0.117-5.515-1.041-7.168-2.61
		c-0.479-0.496-0.932-1.028-1.266-1.622C450.591,62.572,451.348,68.053,454.236,69.916z M452.999,58.393
		c0.869,1.644,2.343,2.853,4.084,3.465c0.549,0.213,1.225,0.396,1.95,0.501c0.006-0.269,0.053-0.513,0.061-0.781
		c0.074-2.958-0.744-6.018-2.576-8.383c-0.333-0.594-0.779-1.095-1.333-1.474c-0.992,0.189-1.962,0.338-2.956,0.526
		c-0.383,0.386-0.269,1.797-0.249,2.329C452.003,55.874,452.379,57.261,452.999,58.393z"/>
	<path fill="#001E32" d="M476.217,46.657c-0.027-0.126-0.711-3.183-0.994-2.951c-1.317,1.128-1.657,3.345-2.103,4.946
		c-0.547,1.894-0.989,3.799-1.395,5.727c-0.37,1.788-0.708,3.566-1.078,5.352c0.009,0.335,0.017,0.667,0.023,0.999
		c0.023,1.601,0.329,3.269,0.186,4.874c-0.017,0.069-0.075,0.116-0.155,0.2c-0.024,0.04-0.019,0.071-0.034,0.142
		c-0.124,0.796-2.795,1.26-3.319,0.708c-0.007-0.031-0.054-0.089-0.092-0.113c-0.117-0.076-0.227-0.117-0.285-0.237
		c-0.253-0.378-0.48-0.795-0.708-1.213c-1.138-2.251-1.394-5.202-1.666-7.615c-0.35-3.064-0.84-6.899,0.6-9.728
		c0.352-0.679,3.039-1.513,3.418-0.561c1.085,2.766,0.51,6.469,0.821,9.509c0,0,0.006,0.031,0.014,0.063
		c0.412-2.198,0.918-4.416,1.433-6.603c0.697-2.863,1.264-7.068,4.587-8.045c3.134-0.933,3.457,2.604,4.005,5.056
		c0.249,1.114,0.458,2.204,0.674,3.325c0.64,2.264,0.895,4.749,1.475,6.891c0.698,2.684,1.584,6.497,3.745,8.389
		c0.372,0.318-1.521,0.674-1.727,0.654c-0.403-0.011-0.757-0.1-1.086-0.226C477.882,60.693,477.294,53.57,476.217,46.657z"/>
	<path fill="#001E32" d="M488.89,47.271c0.185-0.977,0.927-1.844,0.565-2.866c-0.075-0.183-0.182-0.36-0.362-0.421
		c-0.141-0.033-0.263,0.026-0.42,0.062c-3.039,1.212-2.335,5.567-1.333,7.951c0.954,2.329,2.7,4.009,4.609,5.523
		c0.057-0.047,0.146-0.1,0.232-0.153c1.613-1.162,3.281-2.069,5.142-2.718c0.152-0.068,1.423-0.218,1.102-0.012
		c-1.8,1.07-3.822,2.19-5.663,3.537c0.08,0.048,0.157,0.099,0.242,0.179c2.493,1.883,5.884,5.239,2.648,8.265
		c-1.604,1.495-4.64,1.673-6.604,0.808c-3.82-1.687-2.278-5.408,0.091-7.674c-0.698-0.58-1.372-1.2-1.995-1.895
		c-0.378-0.349-0.706-0.613-0.782-0.662c-1.02-0.975-1.896-2.05-2.514-3.315c-1.289-2.788-0.573-6.757,1.19-9.191
		c1.428-1.989,6.374-3.627,7.111-0.184c0.292,1.307-0.283,2.471-1.468,3.003c-0.28,0.095-1.493,0.499-1.72,0.082
		c-0.046-0.056-0.061-0.12-0.113-0.209L488.89,47.271z M489.563,65.237c0.715,1.41,3.559,3.217,4.035-0.031
		c0.13-0.765-0.567-1.946-1.088-2.633c-0.778-0.494-1.498-1.17-2.21-1.812C489.43,62.092,488.659,63.433,489.563,65.237z"/>
	<path fill="#001E32" d="M510.559,63.458c-0.869,1.499-3.421,1.6-4.935,1.403c-3.613-0.465-5.308-3.26-6.541-6.394
		c-1.942-4.947-2.904-10.448-3.832-15.656c-0.032-0.294-0.104-0.612-0.175-0.929c-0.652,0.378-1.333,0.765-2.009,1.184
		c-0.323,0.206-3.038,0.61-2.319-0.05c1.162-1.096,2.582-1.914,4.078-2.549c-0.74-3.912-1.566-8.809,0.277-11.927
		c0.313-0.538,2.299-1.081,2.702-0.47c1.518,2.303,1.118,5.9,1.518,8.586c0.113,0.809,0.221,1.587,0.368,2.39
		c1.566-0.316,3.349-0.414,4.129,0.383c0.177,0.194-0.46,0.335-0.549,0.389c-1.133,0.319-2.218,0.395-3.36,0.517
		c0.38,2.153,0.826,4.293,1.232,6.409c0.622,2.937,2.896,19.406,8.471,16.827C509.702,63.517,510.601,63.349,510.559,63.458z"/>
	<path fill="#001E32" d="M514.786,43.028c0.114-0.393,0.798-6.161-0.703-5.993c-0.715,0.092-1.346,4.746-1.476,5.51
		c-0.51,2.954-1.041,5.814-0.538,8.811c0.305,1.669,1.025,3.246,1.236,4.937c0.206,1.525-2.488,2.027-3.528,1.857
		c-2.075-0.305-2.739-2.528-3.105-4.322c-0.964-4.463-2.564-9.986-1.124-14.455c0.264-0.761,3.053-1.448,3.417-0.561
		c0.628,1.464,1.034,2.978,1.374,4.506c0.02-0.07,0.029-0.173,0.04-0.276c0.301-1.939,0.506-5.361,2.278-6.558
		c4.072-2.714,5.641,3.253,5.123,6.175C517.65,43.426,514.617,43.768,514.786,43.028z"/>
	<path fill="#001E32" d="M529.523,46.89c0.225-4.527-1.758-9.065,0.236-13.454c0.178-0.408,2.562-0.806,2.862-0.506
		c2.812,3.016,2.128,6.979,3.083,10.811c0.739,3.007,1.453,8.899,4.622,10.365c0.149,0.066-0.149,0.233-0.18,0.24
		c-3.615,1.777-6.022-0.325-7.677-3.534c-0.338-0.626-0.655-1.29-0.97-1.955c-0.113,4.136-4.548,7.03-8.082,4.076
		c-1.93-1.608-2.518-4.385-3.043-6.74c-0.663-2.827-0.979-5.732-0.93-8.65c0.028-0.475,0.048-0.981,0.282-1.434
		c0.207-0.414,0.699-0.758,1.196-0.634c0.668,0.152,0.858,1.01,0.945,1.694c0.418,3.817,0.883,7.69,2.001,11.353
		c0.427,1.308,0.916,2.603,1.816,3.639c0.498,0.59,1.317,1.108,2.046,0.779c0.304-0.135,0.509-0.414,0.713-0.693
		C529.543,50.564,529.443,48.78,529.523,46.89z"/>
	<path fill="#001E32" d="M543.368,41.828c0.303,1.504,0.756,4.278,1.882,5.429c2.021,2.023,4.769-3.337,5.693-5.182
		c0.135-0.298,1.666-0.471,1.633-0.331c-0.635,3.451-4.553,7.901-7.827,8.365c-4.337,0.634-5.883-2.698-6.538-6.528
		c-0.637-3.901-0.423-9.23,3.253-11.622c2.101-1.371,5.856-2.209,7.287,0.446c0.006,0.031-0.711,0.259-0.797,0.178
		C542.452,29.2,542.799,38.98,543.368,41.828z"/>
	<path fill="#001E32" d="M566.758,50.914c-0.87,1.497-3.419,1.597-4.936,1.402c-3.612-0.465-5.307-3.26-6.541-6.396
		c-1.94-4.946-2.902-10.447-3.832-15.655c-0.031-0.293-0.104-0.611-0.173-0.929c-0.651,0.378-1.334,0.765-2.01,1.183
		c-0.321,0.205-3.039,0.611-2.316-0.05c1.158-1.096,2.579-1.913,4.074-2.548c-0.739-3.914-1.565-8.809,0.279-11.928
		c0.313-0.537,2.298-1.081,2.701-0.468c1.518,2.302,1.118,5.898,1.518,8.585c0.114,0.81,0.222,1.589,0.367,2.391
		c1.567-0.317,3.351-0.414,4.13,0.381c0.177,0.195-0.46,0.337-0.549,0.391c-1.132,0.317-2.218,0.394-3.359,0.515
		c0.38,2.154,0.824,4.294,1.231,6.41c0.621,2.936,2.896,19.406,8.471,16.825C565.9,50.97,566.799,50.802,566.758,50.914z"/>
	<path fill="#001E32" d="M563.792,13.539c0.3,0.602,0.305,1.369,0.414,2.012c0.111,0.645,0.286,1.274,0.333,1.931
		c0.179,1.699-4.616,2.668-4.879,1.057c-0.149-0.969-0.076-1.989-0.027-2.968c0.091-1.09,0.345-1.749,1.284-2.327
		C561.739,12.727,563.278,12.584,563.792,13.539z M562.767,37.231c-0.916-3.504-1.914-8.265-0.686-11.746
		c0.215-0.684,2.797-1.394,3.255-0.693c1.946,2.875,1.624,6.822,2.363,10.134c0.393,1.751,0.936,3.435,1.703,5.069
		c0.577,1.241,1.168,1.944,0.564,3.282c-0.227,0.486-1.485,0.533-1.936,0.465C564.771,43.368,563.51,40.106,562.767,37.231z"/>
	<path fill="#001E32" d="M570.289,35.586c-0.517-3.061-0.248-6.797,1.192-9.625c0.49-0.946,1.299-1.961,2.138-2.548
		c0.232-0.154,2.649-1.161,3.667-1.087c0.56-0.192,1.195-0.335,1.893-0.356c5.927-0.255,7.974,7.109,7.384,12.557
		c0.905-0.137,1.762-0.495,2.285-1.145c0.548-0.69,3.498-0.949,2.854-0.236c-1.254,1.416-3.205,2.253-5.31,2.555
		c-0.162,0.771-0.377,1.456-0.607,2.074c-1.032,2.404-3.281,4.309-5.733,5.157c-0.311,0.103-1.203,0.301-2.122,0.372
		C574.226,44.231,570.867,38.932,570.289,35.586z M579.148,42.031c0.095-0.021,0.19-0.042,0.325-0.04
		c1.52-0.673,2.906-2.252,3.474-3.45c0.409-0.86,0.671-1.788,0.829-2.726c-2.768-0.118-5.513-1.041-7.168-2.61
		c-0.479-0.496-0.933-1.028-1.266-1.623C575.502,34.688,576.26,40.168,579.148,42.031z M577.911,30.508
		c0.869,1.644,2.342,2.853,4.083,3.466c0.549,0.212,1.224,0.395,1.95,0.502c0.007-0.27,0.053-0.514,0.059-0.783
		c0.075-2.958-0.741-6.018-2.573-8.384c-0.333-0.593-0.779-1.094-1.332-1.473c-0.995,0.189-1.964,0.337-2.958,0.525
		c-0.382,0.387-0.266,1.798-0.248,2.33C576.913,27.989,577.29,29.376,577.911,30.508z"/>
	<path fill="#001E32" d="M601.13,18.773c-0.028-0.127-0.712-3.184-0.994-2.953c-1.318,1.129-1.66,3.346-2.103,4.948
		c-0.547,1.893-0.992,3.798-1.397,5.726c-0.368,1.789-0.707,3.567-1.076,5.354c0.009,0.333,0.016,0.666,0.022,0.998
		c0.023,1.601,0.329,3.27,0.186,4.873c-0.016,0.069-0.074,0.116-0.154,0.2c-0.025,0.041-0.018,0.072-0.035,0.143
		c-0.124,0.795-2.793,1.259-3.318,0.707c-0.008-0.03-0.053-0.087-0.093-0.112c-0.117-0.075-0.226-0.117-0.286-0.237
		c-0.252-0.378-0.479-0.796-0.706-1.214c-1.138-2.25-1.396-5.202-1.668-7.614c-0.351-3.063-0.838-6.899,0.603-9.728
		c0.35-0.68,3.037-1.513,3.416-0.562c1.087,2.767,0.509,6.469,0.822,9.51c0,0,0.007,0.031,0.014,0.062
		c0.41-2.198,0.918-4.415,1.432-6.603c0.697-2.863,1.262-7.067,4.588-8.042c3.134-0.935,3.457,2.604,4.005,5.056
		c0.248,1.112,0.458,2.201,0.675,3.322c0.64,2.265,0.894,4.75,1.473,6.892c0.699,2.685,1.585,6.499,3.747,8.389
		c0.371,0.318-1.521,0.674-1.727,0.653c-0.404-0.009-0.76-0.099-1.087-0.226C602.793,32.809,602.205,25.686,601.13,18.773z"/>
</g>
</svg>
